<svg width="18" height="18" viewBox="0 0 18 18" fill="none" xmlns="http://www.w3.org/2000/svg">
<g clip-path="url(#clip0)">
<path d="M16.8169 3.63402C17.5558 2.64503 17.998 1.6182 18.0001 0.884619C17.9992 0.647061 17.9516 0.461415 17.8609 0.323121C17.8514 0.306209 17.8253 0.261945 17.7792 0.218327C17.7334 0.172857 17.6922 0.148563 17.6833 0.143651C17.5382 0.0468278 17.3517 0.00012207 17.1141 0.00012207C16.3823 0.00135736 15.3552 0.443297 14.3659 1.18335C13.5663 1.78173 12.7666 2.62444 11.6596 3.79137C11.4718 3.98929 11.2741 4.19737 11.0651 4.41558L8.92088 3.77293L8.92732 3.76679C9.01644 3.67673 9.06718 3.55288 9.06594 3.43117C9.06718 3.3027 9.01524 3.17885 8.92579 3.08973L8.53856 2.70188C8.44912 2.61182 8.32556 2.5602 8.19774 2.5602C8.06865 2.5602 7.94818 2.61 7.85812 2.70097L7.2788 3.28061L6.97207 3.18902C7.03816 3.10511 7.07471 3.00032 7.07348 2.89705C7.07471 2.76673 7.0243 2.64535 6.93366 2.55529L6.54457 2.1662C6.45575 2.07709 6.3328 2.02606 6.20375 2.02606C6.07528 2.02606 5.9551 2.07617 5.86598 2.16682L5.33431 2.6982L3.15408 2.04512C3.10523 2.03067 3.05358 2.023 2.99826 2.023C2.84337 2.02485 2.69985 2.08232 2.59505 2.1862L1.82855 2.95299C1.74155 3.03997 1.6927 3.15767 1.69364 3.26923C1.69088 3.43364 1.78185 3.58546 1.92752 3.66352L6.51233 6.22484C6.53477 6.23743 6.59963 6.2854 6.6236 6.30937L7.93068 7.61616C6.7081 8.90418 5.6189 10.1517 4.77007 11.2368C4.69078 11.3377 4.61578 11.436 4.54202 11.5334L0.995087 11.2113C0.977881 11.2092 0.958498 11.2076 0.93391 11.2076C0.771323 11.211 0.612441 11.2753 0.494441 11.3893L0.137001 11.7464C0.0487955 11.8328 -0.00099846 11.9496 0.00023683 12.0623C-0.00252787 12.2345 0.101648 12.3936 0.258089 12.4634L2.75332 13.6485C2.77482 13.6593 2.83076 13.6989 2.8489 13.717L3.05605 13.9226C2.9912 14.1052 2.95832 14.2635 2.95646 14.4024C2.95584 14.5883 3.01579 14.7475 3.13043 14.8622L3.13934 14.8699L3.14179 14.8717C3.25949 14.9857 3.41193 15.0438 3.60064 15.0438C3.73649 15.0417 3.89322 15.0094 4.0764 14.9449L4.28661 15.1548C4.3029 15.172 4.34193 15.2267 4.35208 15.2485L5.53469 17.7382C5.60692 17.8971 5.76272 18.0001 5.93236 18.0001H5.93481C6.05222 18.0001 6.16439 17.953 6.25013 17.867L6.61616 17.4997C6.72463 17.3854 6.78857 17.2278 6.79101 17.0615C6.79101 17.0412 6.7901 17.0255 6.78948 17.0169L6.46648 13.4571C6.5636 13.3839 6.66195 13.3086 6.76304 13.23C7.84977 12.3799 9.09756 11.2897 10.3831 10.069L11.6911 11.3783C11.7123 11.3985 11.7618 11.4634 11.7763 11.4904L14.3327 16.067C14.4107 16.2148 14.561 16.3061 14.7276 16.3061C14.8466 16.3061 14.9597 16.259 15.0463 16.1718L15.8183 15.4003C15.9185 15.2956 15.9748 15.1532 15.9763 14.9977C15.9763 14.9455 15.9689 14.8948 15.9554 14.8472L15.3023 12.6663L15.8337 12.134C15.9231 12.0452 15.9739 11.9216 15.9739 11.7947C15.9739 11.6672 15.9244 11.5473 15.8343 11.456L15.4446 11.0666C15.3555 10.9772 15.2322 10.9262 15.1053 10.9262C14.9978 10.9262 14.8927 10.9622 14.8106 11.027L14.7193 10.7215L15.2992 10.1416C15.3884 10.0521 15.4391 9.92859 15.4391 9.80135C15.4391 9.67321 15.3896 9.55306 15.2992 9.463L14.9114 9.07512C14.8219 8.98445 14.6978 8.93312 14.5702 8.93312C14.4421 8.93312 14.3179 8.98506 14.2303 9.0745L14.2263 9.07818L13.584 6.93422C13.8059 6.72278 14.0164 6.52145 14.2177 6.33184C15.3805 5.22846 16.2201 4.43184 16.8169 3.63402Z" fill="black"/>
</g>
<defs>
<clipPath id="clip0">
<rect width="18" height="18" fill="white"/>
</clipPath>
</defs>
</svg>
