<svg width="94" height="18" viewBox="0 0 94 18" fill="none" xmlns="http://www.w3.org/2000/svg">
<g clip-path="url(#clip0)">
<path fill-rule="evenodd" clip-rule="evenodd" d="M37.0435 14.087C33.5479 16.6435 28.5392 18 24.2087 18C18.1566 18 12.6783 15.7565 8.50439 12C8.19135 11.687 8.45222 11.3217 8.86961 11.5304C13.3566 14.1391 18.8348 15.7044 24.574 15.7044C28.4348 15.7044 32.6609 14.9217 36.5218 13.2522C37.1479 13.0435 37.6174 13.6696 37.0435 14.087Z" fill="#333E47"/>
<path fill-rule="evenodd" clip-rule="evenodd" d="M38.5044 12.4696C38.0348 11.8957 35.5827 12.2087 34.4348 12.313C34.1218 12.3652 34.0696 12.0522 34.3305 11.8435C36.3131 10.4348 39.5479 10.8522 39.9653 11.3217C40.3305 11.7913 39.8609 15.0783 37.9827 16.5913C37.7218 16.8522 37.4087 16.6957 37.5653 16.3826C38.0348 15.3391 38.9218 12.9913 38.5044 12.4696Z" fill="#333E47"/>
<path fill-rule="evenodd" clip-rule="evenodd" d="M34.5392 1.9826V0.626082C34.5392 0.417386 34.6957 0.260864 34.9044 0.260864H40.9566C41.1653 0.260864 41.3218 0.417386 41.3218 0.626082V1.77391C41.3218 1.9826 41.1653 2.24347 40.8522 2.60869L37.7218 7.09565C38.8696 7.04347 40.1218 7.25217 41.1653 7.82608C41.4261 7.9826 41.4783 8.13912 41.4783 8.34782V9.80869C41.4783 10.0174 41.2696 10.2261 41.0087 10.1217C39.1305 9.13043 36.6783 9.02608 34.5913 10.1217C34.3826 10.2261 34.174 10.0174 34.174 9.80869V8.45217C34.174 8.24347 34.174 7.87826 34.3826 7.51304L38.0348 2.29565H34.8522C34.6957 2.34782 34.5392 2.1913 34.5392 1.9826Z" fill="#333E47"/>
<path fill-rule="evenodd" clip-rule="evenodd" d="M12.3652 10.4348H10.5391C10.3826 10.4348 10.2261 10.2783 10.2261 10.1217V0.626083C10.2261 0.417387 10.3826 0.260865 10.5913 0.260865H12.313C12.4696 0.260865 12.6261 0.417387 12.6261 0.573909V1.82608H12.6782C13.1478 0.626083 13.9826 0.0521698 15.1304 0.0521698C16.2782 0.0521698 17.0087 0.626083 17.5304 1.82608C18 0.626083 18.9913 0.0521698 20.0869 0.0521698C20.8696 0.0521698 21.7043 0.365213 22.2261 1.09565C22.8 1.87826 22.6956 3.07826 22.6956 4.06956V10.0696C22.6956 10.2783 22.5391 10.4348 22.3304 10.4348H20.5043C20.2956 10.4348 20.1913 10.2783 20.1913 10.0696V5.06086C20.1913 4.64347 20.2435 3.65217 20.1391 3.28695C19.9826 2.66087 19.5652 2.45217 19.0435 2.45217C18.5739 2.45217 18.1043 2.76521 17.9478 3.23478C17.7391 3.70434 17.7913 4.48695 17.7913 5.06086V10.0696C17.7913 10.2783 17.6348 10.4348 17.4261 10.4348H15.6C15.3913 10.4348 15.2869 10.2783 15.2869 10.0696V5.06086C15.2869 4.01739 15.4435 2.45217 14.1391 2.45217C12.8348 2.45217 12.8869 3.96521 12.8869 5.06086V10.0696C12.7304 10.2783 12.5739 10.4348 12.3652 10.4348Z" fill="#333E47"/>
<path fill-rule="evenodd" clip-rule="evenodd" d="M46.5391 2.03479C45.1826 2.03479 45.0783 3.91305 45.0783 5.06088C45.0783 6.2087 45.0783 8.71305 46.487 8.71305C47.8957 8.71305 48 6.73044 48 5.47827C48 4.69566 47.9478 3.70435 47.7392 2.97392C47.5305 2.29566 47.1131 2.03479 46.5391 2.03479ZM46.5391 0.104355C49.3044 0.104355 50.7652 2.45218 50.7652 5.47827C50.7652 8.34783 49.1478 10.6957 46.5391 10.6957C43.8261 10.6957 42.3652 8.34783 42.3652 5.42609C42.3652 2.40001 43.8783 0.104355 46.5391 0.104355Z" fill="#333E47"/>
<path fill-rule="evenodd" clip-rule="evenodd" d="M54.3131 10.4348H52.487C52.2783 10.4348 52.174 10.2783 52.174 10.0696V0.573909C52.174 0.417387 52.3305 0.260865 52.5392 0.260865H54.2609C54.4174 0.260865 54.574 0.365213 54.574 0.521735V1.9826H54.6261C55.1479 0.678257 55.8783 0.0521698 57.1305 0.0521698C57.9653 0.0521698 58.7479 0.365213 59.2696 1.14782C59.7392 1.93043 59.7392 3.1826 59.7392 4.12174V10.0696C59.7392 10.2261 59.5826 10.3826 59.374 10.3826H57.4957C57.3392 10.3826 57.1826 10.2261 57.1826 10.0696V5.00869C57.1826 3.96521 57.287 2.45217 56.0348 2.45217C55.5653 2.45217 55.1479 2.76521 54.9392 3.23478C54.6783 3.80869 54.6261 4.3826 54.6261 5.00869V10.1217C54.6783 10.2783 54.5218 10.4348 54.3131 10.4348Z" fill="#333E47"/>
<path fill-rule="evenodd" clip-rule="evenodd" d="M31.5652 10.4348C31.4609 10.5391 31.2522 10.5391 31.1478 10.487C30.5217 9.96521 30.4174 9.75652 30.1044 9.23478C29.113 10.2783 28.3826 10.5913 27.0783 10.5913C25.5131 10.5913 24.313 9.65217 24.313 7.72174C24.313 6.20869 25.1478 5.21739 26.2957 4.69565C27.287 4.27826 28.6957 4.17391 29.7913 4.06956V3.80869C29.7913 3.3913 29.8435 2.86956 29.5826 2.45217C29.3739 2.08695 28.9044 1.9826 28.5391 1.9826C27.8087 1.9826 27.1826 2.34782 27.0783 3.07826C27.0261 3.23478 26.9217 3.3913 26.7652 3.44347L24.9913 3.23478C24.6783 3.1826 24.5217 3.07826 24.5217 2.86956C24.9391 0.730431 26.8174 0.0521698 28.5913 0.0521698H28.7478C29.6348 0.0521698 30.7826 0.313039 31.4609 0.9913C32.3478 1.82608 32.2957 2.97391 32.2957 4.17391V7.04347C32.2957 7.93043 32.6609 8.29565 32.9739 8.76521C33.0783 8.92174 33.1304 9.13043 32.9739 9.23478C32.6087 9.49565 31.9304 10.1217 31.5652 10.4348ZM29.687 5.89565C29.687 6.62608 29.687 7.2 29.3217 7.87826C29.0087 8.4 28.5391 8.71304 28.0174 8.71304C27.287 8.71304 26.8696 8.1913 26.8696 7.35652C26.8696 5.7913 28.2783 5.47826 29.6348 5.47826V5.89565H29.687Z" fill="#333E47"/>
<path fill-rule="evenodd" clip-rule="evenodd" d="M7.30436 10.4348C7.20001 10.5391 6.99131 10.5391 6.88696 10.487C6.26088 9.96522 6.15653 9.75652 5.84349 9.23478C4.85218 10.2783 4.12175 10.5913 2.8174 10.5913C1.25218 10.5913 0.0521823 9.65217 0.0521823 7.72174C8.41543e-06 6.2087 0.834791 5.16522 1.98262 4.69565C2.97392 4.27826 4.38262 4.17391 5.47827 4.06957V3.8087C5.47827 3.3913 5.53044 2.86957 5.26957 2.45217C5.0087 2.13913 4.59131 1.98261 4.17392 1.98261C3.44349 1.98261 2.8174 2.34783 2.71305 3.07826C2.66088 3.23478 2.55653 3.44348 2.40001 3.44348L0.573921 3.23478C0.4174 3.18261 0.260878 3.07826 0.313052 2.86957C0.730443 0.678261 2.6087 0.0521739 4.38262 0H4.53914C5.4261 0 6.57392 0.26087 7.25218 0.93913C8.13914 1.77391 8.08696 2.92174 8.08696 4.12174V6.9913C8.08696 7.87826 8.45218 8.24348 8.76523 8.71304C8.86957 8.86957 8.92175 9.07826 8.76523 9.18261C8.34783 9.49565 7.66957 10.1217 7.30436 10.4348ZM5.4261 5.89565C5.4261 6.62609 5.4261 7.2 5.06088 7.87826C4.74783 8.4 4.27827 8.71304 3.75653 8.71304C3.0261 8.71304 2.6087 8.1913 2.6087 7.35652C2.6087 5.7913 4.0174 5.47826 5.37392 5.47826V5.89565H5.4261Z" fill="#333E47"/>
<path fill-rule="evenodd" clip-rule="evenodd" d="M84.9913 13.8783C84.9913 13.6174 84.9913 13.4087 84.9913 13.2C84.9913 12.9913 85.0957 12.8869 85.3044 12.8869C85.6696 12.9391 86.2435 12.9913 86.6087 12.9391C87.1305 12.8348 87.4957 12.4696 87.7044 12C88.0174 11.3217 88.2261 10.7478 88.3305 10.3826L84.5218 0.782599C84.4696 0.626078 84.4174 0.313034 84.7826 0.313034H86.1392C86.4 0.313034 86.5044 0.469556 86.5565 0.626078L89.3218 8.34782L91.9826 0.626078C92.0348 0.469556 92.1392 0.313034 92.4 0.313034H93.6522C93.9652 0.313034 93.9652 0.626078 93.9131 0.782599L90.1044 10.5913C89.6348 11.8956 88.9565 13.9826 87.4957 14.3478C86.7652 14.5565 85.8261 14.4522 85.2522 14.2435C85.0435 14.1391 84.9913 13.9826 84.9913 13.8783Z" fill="#333E47"/>
<path fill-rule="evenodd" clip-rule="evenodd" d="M83.2174 9.86087C83.2174 10.0174 83.0609 10.1739 82.9044 10.1739H81.9652C81.7565 10.1739 81.6 10.0174 81.6 9.86087L81.4957 9.23478C81.0783 9.6 80.5044 9.91304 79.9305 10.1739C78.8348 10.5913 77.5305 10.6957 76.4348 10.0174C75.6522 9.54783 75.2348 8.6087 75.2348 7.61739C75.2348 6.88696 75.4435 6.10435 75.9652 5.58261C76.6435 4.85217 77.6348 4.48696 78.8348 4.48696C79.5652 4.48696 80.6087 4.5913 81.3392 4.8V3.44348C81.3392 2.13913 80.7652 1.56522 79.3044 1.56522C78.2087 1.56522 77.3218 1.72174 76.1218 2.08696C75.9131 2.08696 75.8087 1.93043 75.8087 1.77391V1.04348C75.8087 0.886957 75.9652 0.678261 76.1218 0.626087C76.9565 0.26087 78.1565 0 79.4609 0C81.1305 0 83.1131 0.365217 83.1131 2.97391V9.86087H83.2174ZM81.3913 7.98261V6C80.7652 5.84348 79.7218 5.73913 79.3044 5.73913C78.6783 5.73913 77.9478 5.89565 77.5826 6.31304C77.3218 6.62609 77.1652 7.04348 77.1652 7.4087C77.1652 7.93043 77.3218 8.45217 77.7913 8.71304C78.2609 9.02609 79.0435 9.02609 79.7739 8.81739C80.4522 8.6087 81.0783 8.29565 81.3913 7.98261Z" fill="#333E47"/>
<path fill-rule="evenodd" clip-rule="evenodd" d="M69.2348 1.61739C71.3217 1.61739 71.8956 3.28696 71.8956 5.16522C71.8956 6.41739 71.6869 7.56522 71.0087 8.24348C70.5391 8.71304 69.9652 8.86957 69.1304 8.86957C68.4 8.86957 67.4087 8.50435 66.6783 7.93043V2.50435C67.4609 1.93043 68.4522 1.61739 69.2348 1.61739ZM66.3652 14.1913H65.113C64.9565 14.1913 64.8 14.0348 64.8 13.8783C64.8 9.44348 64.8 5.06087 64.8 0.626087C64.8 0.469565 64.9565 0.313043 65.113 0.313043H66.1043C66.313 0.313043 66.4696 0.469565 66.4696 0.626087L66.5739 1.30435C67.4609 0.521739 68.6609 0 69.7565 0C72.8869 0 73.9304 2.55652 73.9304 5.26957C73.9304 8.13913 72.3652 10.4348 69.7043 10.4348C68.6087 10.4348 67.513 10.0174 66.7304 9.28696V13.8783C66.6783 14.0348 66.5739 14.1913 66.3652 14.1913Z" fill="#333E47"/>
</g>
<defs>
<clipPath id="clip0">
<rect width="93.913" height="18" fill="white"/>
</clipPath>
</defs>
</svg>
