<svg width="234" height="81" viewBox="0 0 234 81" fill="none" xmlns="http://www.w3.org/2000/svg">
<g clip-path="url(#clip0)">
<path d="M226.8 13.8C213 13.8 209.5 0 178.8 0C163.7 0 150.6 3.9 142.3 9.9C142.3 9.9 138.6 12.8 135.4 12.8C132.3 12.8 130.2 9.1 126 9.1C121.8 9.1 116.7 9.1 116.7 9.1C116.7 9.1 111.6 9.1 107.4 9.1C103.2 9.1 101.1 12.8 98 12.8C94.8 12.8 91.1 9.9 91.1 9.9C82.9 3.9 69.8 0 54.7 0C24 0 20.5 13.8 6.7 13.8C2.1 13.8 0 14.7 0 17C0 19.3 0 21.3 0 23.7C0 26.1 1.2 26.7 4.7 26.7C9.4 26.7 11.9 30.4 13 37.2C15.9 55 25.4 81 55.5 81C83 81 102.6 55.2 103 31C103 28.4 100.7 29.3 100.7 26C100.7 23.8 101.9 21.7 104 20.9C107.2 19.6 112 18.8 116.7 18.8C121.4 18.8 126.2 19.5 129.4 20.9C131.5 21.8 132.7 23.8 132.7 26C132.7 29.3 130.4 28.4 130.4 31C130.8 55.2 150.5 81 177.9 81C208 81 217.5 55 220.4 37.2C221.5 30.4 224 26.7 228.7 26.7C232.2 26.7 233.4 26.1 233.4 23.7C233.4 21.3 233.4 19.4 233.4 17C233.5 14.7 231.4 13.8 226.8 13.8ZM12.4 22.7C11.4 22.7 10.5 22.2 10.1 21.5C9.6 22.2 8.8 22.7 7.8 22.7C6.3 22.7 5.1 21.6 5.1 20.3C5.1 19 6.3 17.9 7.8 17.9C8.8 17.9 9.7 18.4 10.1 19.1C10.6 18.4 11.4 17.9 12.4 17.9C13.9 17.9 15.1 19 15.1 20.3C15.1 21.6 13.8 22.7 12.4 22.7ZM55 76.5C34.3 76.5 18.2 57.8 18.2 34.5C18.2 11.2 38.2 5.3 54.5 5.3C70.8 5.3 94.8 10.6 94.8 35.8C94.8 61 75.7 76.5 55 76.5ZM178.5 76.5C157.8 76.5 138.7 61 138.7 35.8C138.7 10.6 162.7 5.3 179 5.3C195.3 5.3 215.3 11.1 215.3 34.5C215.3 57.8 199.2 76.5 178.5 76.5ZM225.8 22.7C224.8 22.7 223.9 22.2 223.5 21.5C223 22.2 222.2 22.7 221.2 22.7C219.7 22.7 218.5 21.6 218.5 20.3C218.5 19 219.7 17.9 221.2 17.9C222.2 17.9 223.1 18.4 223.5 19.1C224 18.4 224.8 17.9 225.8 17.9C227.3 17.9 228.5 19 228.5 20.3C228.5 21.6 227.3 22.7 225.8 22.7Z" fill="black"/>
</g>
<defs>
<clipPath id="clip0">
<rect width="233.5" height="81" fill="white"/>
</clipPath>
</defs>
</svg>
