<svg width="45" height="18" viewBox="0 0 45 18" fill="none" xmlns="http://www.w3.org/2000/svg">
<g clip-path="url(#clip0)">
<path d="M40 0H31.1C31 0 30.8 0 30.6 0H22.3H14C13.8 0 13.7 0 13.5 0H4.7C2.4 0 0 1.8 0 6.7C0 11.7 3.3 17.3 6.1 17.3H10.9C15.1 17.3 19.3 10.1 19.3 7.5V4.8C19.3 4.5 19.2 4.2 19.1 3.8C19.7 3.5 20.9 3 22.4 3C23.8 3 25.1 3.5 25.6 3.8C25.5 4.1 25.4 4.4 25.4 4.8V7.6C25.4 10.2 29.6 17.4 33.8 17.4H38.6C41.5 17.4 44.7 11.7 44.7 6.8C44.7 1.8 42.3 0 40 0ZM18.3 7.6C18.3 9.8 14.4 16.4 10.9 16.4H6.1C4.1 16.3 1 11.2 1 6.7C1 3.2 2.4 1 4.7 1H13.6C15.4 1 18.3 2.8 18.3 4.8V7.6ZM22.4 2C20.8 2 19.4 2.5 18.7 2.9C18 1.9 16.9 1 15.7 0.5H22.4H29C27.8 1 26.7 1.9 26 2.9C25.4 2.6 24 2 22.4 2ZM38.6 16.3H33.8C30.2 16.3 26.4 9.7 26.4 7.5V4.8C26.4 2.9 29.3 1 31.1 1H40C42.3 1 43.7 3.2 43.7 6.7C43.7 11.2 40.7 16.3 38.6 16.3Z" fill="black"/>
</g>
<defs>
<clipPath id="clip0">
<rect width="44.7" height="17.3" fill="white"/>
</clipPath>
</defs>
</svg>
