<svg width="10" height="10" viewBox="0 0 10 10" fill="none" xmlns="http://www.w3.org/2000/svg">
<path d="M0 0.454501H1.81818V5.90905H0V0.454501ZM10 5.4545C10 5.9545 9.59091 6.36359 9.09091 6.36359H6.22727L6.68182 8.4545C6.68182 8.49996 6.68182 8.54541 6.68182 8.59086C6.68182 8.77268 6.59091 8.9545 6.50002 9.09086L6 9.54541L3 6.54541C2.81818 6.40905 2.72727 6.18177 2.72727 5.90905V1.36359C2.72727 0.863592 3.13636 0.454501 3.63636 0.454501H7.72727C8.09091 0.454501 8.40909 0.681774 8.54545 0.999956L9.90909 4.22725C9.95455 4.31816 9.95455 4.45452 9.95455 4.54543V5.45452H10C10 5.40905 10 5.4545 10 5.4545Z" fill="black"/>
</svg>
