<svg width="805" height="472" viewBox="0 0 805 472" fill="none" xmlns="http://www.w3.org/2000/svg">
<path d="M637.5 400.5C727.5 337 732.5 174 724 80.5002C659 4.00018 522.5 22.5002 452.5 22.5002C382.5 22.5002 227.5 64.0002 206 80.5002C188.8 93.7002 142.166 120.334 121 132V234C141 275 190.3 365.7 227.5 400.5C264.7 435.3 359.666 449.334 402.5 452C450.833 456 565.5 451.3 637.5 400.5Z" fill="#555455"/>
<path d="M532 2C183 2 135.7 140.3 0 115V179C0 179 77.2 153.5 106.3 220.7C169 365 221 465 444 465C658 465 720.3 347 737.3 225C754.3 103 805 95 805 62C805 29 757 2 532 2ZM435.7 441.7C183 441.7 133 239 133 173C133 79 391.7 31 539.7 31C687.7 31 713 96.3 713 173C713 249.7 691 441.7 435.7 441.7Z" fill="#E8E8E8"/>
</svg>
