<svg width="63" height="29" viewBox="0 0 63 29" fill="none" xmlns="http://www.w3.org/2000/svg">
<path d="M16.2344 13.12C16.6901 12.9681 16.9939 12.6643 17.2977 12.2846C17.5256 11.9048 17.6775 11.4491 17.6775 10.9934C17.6775 10.3099 17.4496 9.70227 16.918 9.17063C16.3863 8.63898 15.7028 8.41113 14.7154 8.41113H10.0825V18.7402H14.9433C15.9306 18.7402 16.7661 18.4365 17.3737 17.9048C17.9813 17.2972 18.2851 16.6137 18.2851 15.7782C18.2851 15.0947 18.1332 14.563 17.7534 14.1073C17.3737 13.5757 16.842 13.2719 16.2344 13.12ZM12.2851 10.4618H14.2597C14.5635 10.4618 14.8673 10.5377 15.0952 10.7656C15.323 10.9934 15.399 11.2213 15.399 11.4491C15.399 11.7529 15.323 11.9808 15.0952 12.2086C14.8673 12.4365 14.5635 12.5124 14.1838 12.5124H12.2851V10.4618ZM15.4749 16.4618C15.1711 16.6896 14.8673 16.7656 14.4116 16.7656H12.2851V14.3352H14.4116C14.8673 14.3352 15.1711 14.4871 15.399 14.7149C15.6268 14.9428 15.7787 15.2466 15.7787 15.6263C15.7787 15.9301 15.7028 16.2339 15.4749 16.4618Z" fill="black"/>
<path d="M21.6266 12.1329V11.1455H19.5V18.8164H21.7025V15.3227C21.7025 14.5632 21.8544 14.0316 22.1582 13.6519C22.462 13.2721 22.9177 13.1202 23.4494 13.1202C23.7532 13.1202 24.1329 13.1962 24.4367 13.2721L24.5886 11.1455C24.2848 10.9936 23.9051 10.9936 23.6013 10.9936C22.8418 10.9177 22.1582 11.2974 21.6266 12.1329Z" fill="black"/>
<path d="M31.1209 11.981C30.4373 11.2974 29.6779 10.9937 28.7665 10.9937C27.7032 10.9937 26.7918 11.3734 26.0323 12.1329C25.3487 12.8924 24.969 13.8797 24.969 15.019C24.969 16.1582 25.3487 17.1456 26.0323 17.905C26.7158 18.6645 27.6272 19.0443 28.7665 19.0443C29.6779 19.0443 30.5133 18.7405 31.1209 18.0569V18.8164H33.1715V11.1456H31.1209V11.981ZM30.5892 16.3861C30.2095 16.7658 29.7538 16.9937 29.1462 16.9937C28.6146 16.9937 28.0829 16.7658 27.7032 16.3861C27.3234 16.0063 27.1715 15.4747 27.1715 14.943C27.1715 14.4114 27.3234 13.8797 27.7032 13.5C28.0829 13.1202 28.5386 12.8924 29.1462 12.8924C29.6779 12.8924 30.2095 13.1202 30.5892 13.5C30.969 13.8797 31.1968 14.4114 31.1968 14.943C31.1209 15.4747 30.969 16.0063 30.5892 16.3861Z" fill="black"/>
<path d="M39.4747 10.9175C38.943 10.9175 38.4114 11.0694 38.0316 11.2972C37.576 11.5251 37.2722 11.8289 37.0443 12.2086V11.1453H34.9177V18.8162H37.1203V14.7909C37.1203 14.2593 37.2722 13.8036 37.576 13.4998C37.8798 13.196 38.2595 12.9681 38.7911 12.9681C39.2468 12.9681 39.6266 13.12 39.8544 13.4238C40.1582 13.7276 40.2342 14.1833 40.2342 14.7149V18.8162H42.4367V14.1074C42.4367 13.0441 42.1329 12.2846 41.6013 11.7529C40.9937 11.2213 40.3101 10.9175 39.4747 10.9175Z" fill="black"/>
<path d="M49.6519 11.9048C49.0443 11.2973 48.2848 10.9935 47.4493 10.9935C46.386 10.9935 45.4746 11.3732 44.7151 12.1327C44.0316 12.8922 43.6519 13.8795 43.6519 15.0188C43.6519 16.158 44.0316 17.1454 44.7151 17.9048C45.4746 18.6643 46.3101 19.0441 47.4493 19.0441C48.3607 19.0441 49.1202 18.7403 49.7278 18.0567V18.8922H51.8544V8.25928H49.6519V11.9048ZM49.1962 16.3859C48.8164 16.7656 48.3607 16.9935 47.8291 16.9935C47.2215 16.9935 46.7658 16.7656 46.386 16.3859C46.0063 16.0061 45.8544 15.4745 45.8544 14.9428C45.8544 14.4112 46.0063 13.8795 46.386 13.4998C46.7658 13.12 47.2215 12.8922 47.8291 12.8922C48.3607 12.8922 48.8924 13.12 49.1962 13.4998C49.5759 13.8795 49.7278 14.3352 49.7278 14.9428C49.7278 15.5504 49.5759 16.0061 49.1962 16.3859Z" fill="black"/>
<path d="M52.4626 8.33525H52.8424V9.47449H53.0702V8.33525H53.45V8.18335H52.4626V8.33525Z" fill="black"/>
<path d="M54.893 8.18335L54.2854 8.94284L53.7537 8.18335H53.6018V9.47449H53.8297V8.63905L54.2854 9.24664H54.3613L54.817 8.63905V9.47449H54.9689V8.18335H54.893Z" fill="black"/>
<rect x="0.5" y="0.5" width="62" height="27.5" stroke="black"/>
</svg>
