<svg width="14" height="19" viewBox="0 0 14 19" fill="none" xmlns="http://www.w3.org/2000/svg">
<g clip-path="url(#clip0)">
<path d="M12.5001 0H1.50012C1.1023 0 0.720636 0.158149 0.439331 0.439453C0.158026 0.720758 0.00012207 1.10218 0.00012207 1.5V17.5C0.00012207 17.8978 0.158026 18.2792 0.439331 18.5605C0.720636 18.8419 1.1023 19 1.50012 19H12.5001C12.8979 19 13.2794 18.8419 13.5607 18.5605C13.842 18.2792 14.0001 17.8978 14.0001 17.5V1.5C14.0001 1.10218 13.842 0.720758 13.5607 0.439453C13.2794 0.158149 12.8979 0 12.5001 0ZM1.50012 1H12.5001C12.6327 1 12.7599 1.05272 12.8536 1.14648C12.9474 1.24025 13.0001 1.36739 13.0001 1.5V13.55H1.00012V1.5C1.00012 1.36739 1.05259 1.24025 1.14636 1.14648C1.24013 1.05272 1.36751 1 1.50012 1ZM12.5001 18H1.50012C1.36751 18 1.24013 17.9473 1.14636 17.8535C1.05259 17.7597 1.00012 17.6326 1.00012 17.5V14.55H13.0001V17.5C13.0001 17.6326 12.9474 17.7597 12.8536 17.8535C12.7599 17.9473 12.6327 18 12.5001 18Z" fill="black"/>
<path d="M7.98002 15.4902H6.02002V16.4902H7.98002V15.4902Z" fill="black"/>
<path d="M10.4801 4V5.88989H11.4801V4C11.4801 3.46957 11.2692 2.96077 10.8942 2.58569C10.5191 2.21062 10.0105 2 9.4801 2H7.58997V3H9.4801C9.74532 3 9.9996 3.10543 10.1871 3.29297C10.3747 3.48051 10.4801 3.73478 10.4801 4Z" fill="black"/>
</g>
<defs>
<clipPath id="clip0">
<rect width="14" height="19" fill="white"/>
</clipPath>
</defs>
</svg>
