<svg width="71" height="15" viewBox="0 0 71 15" fill="none" xmlns="http://www.w3.org/2000/svg">
<path fill-rule="evenodd" clip-rule="evenodd" d="M64.1233 12.013V7.88675H68.6485V5.77878H64.1233V2.50793H69.7342V0.399248H61.8066V14.1203H70.3125V12.013H64.1233ZM57.7542 14.6476L57.7719 0.381456H55.4551L55.4913 9.41328L45.3206 0L45.3021 14.1196H47.6189L47.5821 5.43361L57.7542 14.6476ZM41.2462 14.1196L41.2476 0.381456H38.9315L38.9294 14.1196H41.2462ZM27.982 14.1203H36.0358V12.013H30.2988V0.381456H27.982V14.1203ZM16.0005 14.1203H24.5072V12.013H18.3173V7.88675H22.8417V5.77878H18.3173V2.50793H23.9282V0.399248H16.0005V14.1203ZM2.46135 7.17863C2.46135 4.5611 4.27139 2.18056 7.3479 2.18056C8.75965 2.18056 10.153 2.68941 11.1126 3.63451L12.3429 2.01688C11.8907 1.47174 10.153 0.0725905 7.3479 0.0725905C3.00422 0.0725905 0 3.37973 0 7.23272C0 11.1768 3.16722 14.4477 7.60091 14.4477C9.55553 14.4477 11.1849 13.8121 12.4336 12.6122L11.3656 11.1035C10.8227 11.6494 9.42938 12.3582 7.71005 12.3582C4.61512 12.3582 2.46135 10.0502 2.46135 7.17863Z" fill="#000206"/>
</svg>
