<svg height="20" viewBox="0 0 150 32" width="96" xmlns="http://www.w3.org/2000/svg"><path d="m136.796456 25.6277776v-8.8027165h9.65357v-4.4970069h-9.65357v-6.9778002h11.969822v-4.4985251h-16.912268v29.2715374h18.14599v-4.4954887zm-13.58757 5.6204996.037798-30.4345042h-4.942447l.077108 19.2678985-21.697476-20.0816715-.03931 30.1217481h4.942447l-.07862-18.5300371zm-35.21701-1.1265291.003024-29.3079751h-4.940935l-.004535 29.3079751zm-28.2969802.0015182h17.1813892v-4.4954887h-12.2389427v-24.8140046h-4.9424465zm-25.5604161 0h18.1475023v-4.4954887h-13.2050558v-8.8027165h9.6520582v-4.4970069h-9.6520582v-6.9778002h11.9698222v-4.4985251h-16.9122687zm-28.8836028-14.8088473c0-5.584062 3.8614281-10.6625523 10.4246462-10.6625523 3.0117325 0 5.9841552 1.0855368 8.0312866 3.1017506l2.6246825-3.4509442c-.9646011-1.1629667-4.6718139-4.1478133-10.6559691-4.1478133-9.2665202 0-15.6755231 7.05523-15.6755231 15.2749449 0 8.4140488 6.7567431 15.3918489 16.2152764 15.3918489 4.1698585 0 7.6457485-1.3557823 10.3097407-3.9155236l-2.2784542-3.2186545c-1.158126 1.1644849-4.1305487 2.6766452-7.7984518 2.6766452-6.6025279 0-11.1972342-4.9236305-11.1972342-11.0497017z" fill="#000206" fill-rule="evenodd"/></svg>