<svg width="31" height="20" viewBox="0 0 31 20" fill="none" xmlns="http://www.w3.org/2000/svg">
<g clip-path="url(#clip0)">
<path d="M2.64014 7.02018V10.4402H3.64014V7.07023C3.64276 6.90488 3.71026 6.74714 3.82812 6.63114C3.94599 6.51515 4.10465 6.45021 4.27002 6.45023H7.65015V5.45023H4.28003C3.8562 5.44735 3.44801 5.60965 3.14185 5.90275C2.83568 6.19584 2.65573 6.59662 2.64014 7.02018Z" fill="black"/>
<path d="M29.6001 0.000143468H13.6001C13.4675 0.000143468 13.3404 0.0527376 13.2466 0.146506C13.1528 0.240274 13.1001 0.367535 13.1001 0.500143V2.60012H0.5C0.367392 2.60012 0.240253 2.65271 0.146484 2.74648C0.0527162 2.84025 0 2.96751 0 3.10012V17.1C0 17.2326 0.0527162 17.36 0.146484 17.4538C0.240253 17.5475 0.367392 17.6 0.5 17.6H4.11011L6.11011 19.6C6.20242 19.6942 6.32808 19.7483 6.45996 19.7501C6.59185 19.7483 6.71774 19.6942 6.81006 19.6L8.72998 17.6H16.51C16.6426 17.6 16.7698 17.5475 16.8635 17.4538C16.9573 17.36 17.01 17.2326 17.01 17.1V15.0001H21.4001L23.3201 17.0001C23.4222 17.0853 23.5476 17.1375 23.6799 17.15C23.8118 17.1482 23.9377 17.0944 24.03 17.0001L26.03 15.0001H29.6401C29.7727 15.0001 29.8999 14.9474 29.9937 14.8537C30.0874 14.7599 30.1401 14.6328 30.1401 14.5001V0.500143C30.1404 0.430977 30.1262 0.362397 30.0986 0.298972C30.071 0.235546 30.0305 0.178606 29.9797 0.131613C29.929 0.0846205 29.8691 0.04866 29.8037 0.0260224C29.7384 0.00338479 29.669 -0.00539026 29.6001 0.000143468ZM16 16.6H8.51001C8.44302 16.5996 8.37654 16.6128 8.3147 16.6386C8.25285 16.6643 8.19704 16.7023 8.15015 16.7501L6.43994 18.5102L4.66992 16.7401C4.57761 16.6459 4.45195 16.5919 4.32007 16.59H1.03003V3.59011H16.03V16.59L16 16.6ZM29.1001 14.0001H25.79C25.6582 14.002 25.5323 14.0558 25.4399 14.15L23.6699 15.9201L21.96 14.1601C21.9131 14.1122 21.857 14.0743 21.7952 14.0485C21.7333 14.0227 21.6671 14.0098 21.6001 14.0102H17.03V3.11013C17.03 2.97752 16.9773 2.85026 16.8835 2.75649C16.7898 2.66272 16.6626 2.61013 16.53 2.61013H14.1301V1.01003H29.1301V14.0102L29.1001 14.0001Z" fill="black"/>
<path d="M26.46 4.43982V7.81982H27.46V4.43982C27.4573 4.01098 27.2859 3.60048 26.9827 3.29724C26.6794 2.994 26.2689 2.82245 25.8401 2.81982H22.47V3.81982H25.8501C26.012 3.82495 26.1657 3.89224 26.2793 4.00769C26.3929 4.12314 26.4575 4.27788 26.46 4.43982Z" fill="black"/>
</g>
<defs>
<clipPath id="clip0">
<rect width="30.1" height="19.73" fill="white"/>
</clipPath>
</defs>
</svg>
