<svg width="18" height="18" viewBox="0 0 18 18" fill="none" xmlns="http://www.w3.org/2000/svg">
<path d="M0.631588 11.1031V3.44475C0.631588 3.0192 0.976559 2.67419 1.40215 2.67419H9.05656C9.48212 2.67419 9.82709 3.0192 9.82709 3.44475V11.1032C9.82709 11.245 9.71212 11.36 9.57024 11.36H0.888441C0.746559 11.36 0.631588 11.245 0.631588 11.1031ZM6.81276 13.7267C6.81276 14.6094 6.09721 15.3249 5.21459 15.3249C4.33197 15.3249 3.61641 14.6094 3.61641 13.7267C3.61641 12.844 4.33197 12.1285 5.21459 12.1285C6.09721 12.1285 6.81276 12.844 6.81276 13.7267ZM6.01365 13.7267C6.01365 13.2854 5.65588 12.9276 5.21456 12.9276C4.77324 12.9276 4.41544 13.2854 4.41544 13.7267C4.41544 14.168 4.77324 14.5258 5.21456 14.5258C5.65588 14.5258 6.01365 14.168 6.01365 13.7267ZM3.83809 12.1285H0.256853C0.115 12.1285 0 12.2435 0 12.3854V13.1646C0 13.3065 0.115 13.4215 0.256853 13.4215H3.12738C3.20232 12.9072 3.46188 12.453 3.83809 12.1285ZM15.1746 13.7267C15.1746 14.6094 14.4591 15.3249 13.5765 15.3249C12.6938 15.3249 11.9783 14.6094 11.9783 13.7267C11.9783 12.844 12.6938 12.1285 13.5765 12.1285C14.4591 12.1285 15.1746 12.844 15.1746 13.7267ZM14.3756 13.7267C14.3756 13.2854 14.0178 12.9276 13.5765 12.9276C13.1351 12.9276 12.7774 13.2854 12.7774 13.7267C12.7774 14.168 13.1351 14.5258 13.5765 14.5258C14.0178 14.5258 14.3756 14.168 14.3756 13.7267ZM18 12.3854V13.1646C18 13.3065 17.885 13.4215 17.7431 13.4215H15.6636C15.5149 12.4014 14.637 11.6148 13.5765 11.6148C12.5159 11.6148 11.6379 12.4014 11.4892 13.4215H7.30179C7.22682 12.9073 6.96729 12.453 6.59109 12.1285H10.5615V4.7817C10.5615 4.49799 10.7915 4.26799 11.0752 4.26799H13.5001C14.1828 4.26799 14.821 4.60714 15.203 5.17299L16.7662 7.48832C16.9955 7.82794 17.1181 8.22836 17.1181 8.63815V12.1285H17.7431C17.885 12.1285 18 12.2435 18 12.3854ZM15.3944 7.54762L14.1443 5.77135C14.0962 5.703 14.0179 5.66232 13.9343 5.66232H11.9844C11.8426 5.66232 11.7276 5.77732 11.7276 5.91917V7.69544C11.7276 7.83733 11.8426 7.9523 11.9844 7.9523H15.1844C15.3924 7.9523 15.5141 7.7178 15.3944 7.54762Z" fill="black"/>
</svg>
