<svg width="43" height="43" viewBox="0 0 43 43" fill="none" xmlns="http://www.w3.org/2000/svg">
<path d="M28.6975 5.34398C28.2582 4.17249 26.9403 3.73318 25.7688 4.17249C24.8902 4.46536 24.0115 4.31892 23.4258 3.73318C22.5472 2.85456 21.2293 2.85456 20.3506 3.73318C19.7649 4.31892 18.7399 4.6118 18.0077 4.17249C16.8362 3.73318 15.6647 4.17249 15.079 5.34398C14.7861 6.22259 13.9075 6.6619 13.0289 6.6619C11.8574 6.6619 10.8323 7.68695 10.8323 8.85844C10.8323 9.73706 10.2466 10.4692 9.51439 10.9085C8.3429 11.3479 7.90359 12.6658 8.3429 13.8373C8.63577 14.7159 8.48933 15.5945 7.90359 16.1802C7.02497 17.0589 7.02497 18.3768 7.90359 19.2554C8.48933 19.8411 8.78221 20.8662 8.3429 21.5984C7.90359 22.7699 8.3429 23.9413 9.51439 24.5271C10.393 24.82 10.8323 25.6986 10.8323 26.5772C10.8323 27.7487 11.8574 28.7737 13.0289 28.7737C13.9075 28.7737 14.6396 29.3595 15.079 30.0917C15.5183 31.2631 16.8362 31.7025 18.0077 31.2631C18.8863 30.9703 19.7649 31.1167 20.3506 31.7025C21.2293 32.5811 22.5472 32.5811 23.4258 31.7025C24.0115 31.1167 25.0366 30.8238 25.7688 31.2631C26.9403 31.7025 28.1118 31.2631 28.6975 30.0917C28.9904 29.213 29.869 28.7737 30.7476 28.7737C31.9191 28.7737 32.9441 27.7487 32.9441 26.5772C32.9441 25.6986 33.5299 24.9664 34.2621 24.5271C35.4336 24.0878 35.8729 22.7699 35.4336 21.5984C35.1407 20.7198 35.2871 19.8411 35.8729 19.2554C36.7515 18.3768 36.7515 17.0589 35.8729 16.1802C35.2871 15.5945 34.9943 14.5694 35.4336 13.8373C35.8729 12.6658 35.4336 11.4943 34.2621 10.9085C33.3835 10.6157 32.9441 9.73706 32.9441 8.85844C32.9441 7.68695 31.9191 6.6619 30.7476 6.6619C29.869 6.6619 29.1368 6.07616 28.6975 5.34398Z" stroke="#1D1D1B" stroke-miterlimit="10"/>
<path d="M26.834 22.5087C29.5218 19.8209 29.5218 15.4632 26.834 12.7755C24.1463 10.0877 19.7886 10.0877 17.1008 12.7755C14.413 15.4632 14.413 19.8209 17.1008 22.5087C19.7886 25.1965 24.1463 25.1965 26.834 22.5087Z" stroke="#1D1D1B" stroke-miterlimit="10"/>
<path d="M25.1829 31.556L30.7475 41.0744L32.944 36.6813L37.9229 36.9742L32.3583 27.4558" stroke="#1D1D1B" stroke-miterlimit="10"/>
<path d="M11.5645 27.4558L5.99994 36.9742L10.9788 36.6813L13.1753 41.0744L18.7399 31.556" stroke="#1D1D1B" stroke-miterlimit="10"/>
</svg>
