<svg width="43" height="43" viewBox="0 0 43 43" fill="none" xmlns="http://www.w3.org/2000/svg">
<path d="M11.3547 30.3274C14.0471 30.3274 16.2297 28.1448 16.2297 25.4524C16.2297 22.76 14.0471 20.5774 11.3547 20.5774C8.66235 20.5774 6.47974 22.76 6.47974 25.4524C6.47974 28.1448 8.66235 30.3274 11.3547 30.3274Z" stroke="#1D1D1B" stroke-miterlimit="10" stroke-linecap="square"/>
<path d="M11.3547 34.8074C16.5212 34.8074 20.7094 30.6191 20.7094 25.4526C20.7094 20.2862 16.5212 16.0979 11.3547 16.0979C6.18825 16.0979 2 20.2862 2 25.4526C2 30.6191 6.18825 34.8074 11.3547 34.8074Z" stroke="#1D1D1B" stroke-miterlimit="10" stroke-linecap="square"/>
<path d="M11.3547 19.5234V18.6011" stroke="#1D1D1B" stroke-miterlimit="10" stroke-linecap="square"/>
<path d="M8.32435 20.3142L7.92908 19.5237" stroke="#1D1D1B" stroke-miterlimit="10" stroke-linecap="square"/>
<path d="M6.2162 22.5539L5.42566 22.0269" stroke="#1D1D1B" stroke-miterlimit="10" stroke-linecap="square"/>
<path d="M5.42571 25.4526H4.50342" stroke="#1D1D1B" stroke-miterlimit="10" stroke-linecap="square"/>
<path d="M6.2162 28.4829L5.42566 28.8782" stroke="#1D1D1B" stroke-miterlimit="10" stroke-linecap="square"/>
<path d="M17.2838 22.0269L16.625 22.5539" stroke="#1D1D1B" stroke-miterlimit="10" stroke-linecap="square"/>
<path d="M14.7804 19.5237L14.3851 20.3142" stroke="#1D1D1B" stroke-miterlimit="10" stroke-linecap="square"/>
<path d="M19.7871 11.0911H6.61145V13.9897H15.1756V17.1519" stroke="#1D1D1B" stroke-miterlimit="10"/>
<path d="M31.6453 30.3274C34.3376 30.3274 36.5203 28.1448 36.5203 25.4524C36.5203 22.76 34.3376 20.5774 31.6453 20.5774C28.9529 20.5774 26.7703 22.76 26.7703 25.4524C26.7703 28.1448 28.9529 30.3274 31.6453 30.3274Z" stroke="#1D1D1B" stroke-miterlimit="10" stroke-linecap="square"/>
<path d="M31.6453 34.8074C36.8117 34.8074 41 30.6191 41 25.4526C41 20.2862 36.8117 16.0979 31.6453 16.0979C26.4788 16.0979 22.2905 20.2862 22.2905 25.4526C22.2905 30.6191 26.4788 34.8074 31.6453 34.8074Z" stroke="#1D1D1B" stroke-miterlimit="10" stroke-linecap="square"/>
<path d="M31.6453 19.5234V18.6011" stroke="#1D1D1B" stroke-miterlimit="10" stroke-linecap="square"/>
<path d="M34.6757 20.3142L35.0709 19.5237" stroke="#1D1D1B" stroke-miterlimit="10" stroke-linecap="square"/>
<path d="M36.7838 22.5539L37.5744 22.0269" stroke="#1D1D1B" stroke-miterlimit="10" stroke-linecap="square"/>
<path d="M37.5742 25.4526H38.4965" stroke="#1D1D1B" stroke-miterlimit="10" stroke-linecap="square"/>
<path d="M36.7838 28.4829L37.5744 28.8782" stroke="#1D1D1B" stroke-miterlimit="10" stroke-linecap="square"/>
<path d="M25.7162 22.0269L26.375 22.5539" stroke="#1D1D1B" stroke-miterlimit="10" stroke-linecap="square"/>
<path d="M28.2196 19.5237L28.6149 20.3142" stroke="#1D1D1B" stroke-miterlimit="10" stroke-linecap="square"/>
<path d="M23.2129 11.0911H36.3886V13.9897H27.8244V17.1519" stroke="#1D1D1B" stroke-miterlimit="10"/>
<path d="M22.9493 8.19238H20.0507V20.841H22.9493V8.19238Z" stroke="#1D1D1B" stroke-miterlimit="10" stroke-linecap="square"/>
<path d="M20.0507 12.4087H22.9493" stroke="#1D1D1B" stroke-miterlimit="10" stroke-linecap="square"/>
<path d="M20.3142 16.6248H22.6858" stroke="#1D1D1B" stroke-miterlimit="10" stroke-linecap="square"/>
</svg>
