<svg width="43" height="43" viewBox="0 0 43 43" fill="none" xmlns="http://www.w3.org/2000/svg">
<path d="M37.8333 25.1667L41 22L37.8333 18.8333L39.575 14.7167L35.4583 12.975V8.54167H31.025L29.2833 4.425L25.1667 6.16667L22 3L18.8333 6.16667L14.7167 4.425L12.975 8.54167H8.54167V12.975L4.425 14.7167L6.16667 18.8333L3 22L6.16667 25.1667L4.425 29.2833L8.54167 31.025V35.4583H12.975L14.7167 39.575L18.8333 37.8333L22 41L25.1667 37.8333L29.2833 39.575L31.025 35.4583H35.4583V31.025L39.575 29.2833L37.8333 25.1667Z" stroke="#1D1D1B" stroke-miterlimit="10" stroke-linecap="square"/>
<path d="M15.9833 22.6331L19.9416 26.5915L27.8583 18.6748" stroke="#1D1D1B" stroke-miterlimit="10" stroke-linecap="square"/>
</svg>
