<svg width="43" height="51" viewBox="0 0 43 51" fill="none" xmlns="http://www.w3.org/2000/svg">
<path d="M15.6771 33.625C17.0233 33.625 18.1146 32.5337 18.1146 31.1875C18.1146 29.8413 17.0233 28.75 15.6771 28.75C14.3309 28.75 13.2396 29.8413 13.2396 31.1875C13.2396 32.5337 14.3309 33.625 15.6771 33.625Z" stroke="#1D1D1B" stroke-miterlimit="10" stroke-linecap="square"/>
<path d="M28.8124 33.625C30.1586 33.625 31.2499 32.5337 31.2499 31.1875C31.2499 29.8413 30.1586 28.75 28.8124 28.75C27.4662 28.75 26.3749 29.8413 26.3749 31.1875C26.3749 32.5337 27.4662 33.625 28.8124 33.625Z" stroke="#1D1D1B" stroke-miterlimit="10" stroke-linecap="square"/>
<path d="M25.4271 20.7605H27.5938C27.8646 20.7605 28.2708 20.8959 28.4063 21.1667L32.1979 25.2293C32.3334 25.5001 32.4688 25.7709 32.4688 26.0418V30.9168H31.25" stroke="#1D1D1B" stroke-miterlimit="10" stroke-linecap="square"/>
<path d="M17.9792 30.7813H25.2917V18.8646C25.2917 18.0521 24.6146 17.375 23.8021 17.375H14.5938C13.7813 17.375 13.1042 18.0521 13.1042 18.8646V20.0833" stroke="#1D1D1B" stroke-miterlimit="10" stroke-linecap="square"/>
<path d="M10.5312 20.0833H19.875" stroke="#1D1D1B" stroke-miterlimit="10" stroke-linecap="square"/>
<path d="M11.6147 22.7917H20.9584" stroke="#1D1D1B" stroke-miterlimit="10" stroke-linecap="square"/>
<path d="M10.5312 25.5H19.875" stroke="#1D1D1B" stroke-miterlimit="10" stroke-linecap="square"/>
<path d="M32.1979 25.5H25.4271" stroke="#1D1D1B" stroke-miterlimit="10" stroke-linecap="square"/>
<path d="M24.0729 30.7812H26.5104" stroke="#1D1D1B" stroke-miterlimit="10" stroke-linecap="square"/>
<path d="M13.2396 27.2605V30.7813" stroke="#1D1D1B" stroke-miterlimit="10" stroke-linecap="square"/>
<path d="M30.1667 42.969C36.5313 39.719 41.0001 33.219 41.0001 25.5003C41.0001 14.6669 32.3334 6.00024 21.5001 6.00024" stroke="#1D1D1B" stroke-miterlimit="10"/>
<path d="M26.3751 1.125L21.5001 6.00001L26.3751 10.875" stroke="#1D1D1B" stroke-miterlimit="10"/>
<path d="M12.8333 8.03149C6.46876 11.2815 2 17.7815 2 25.5003C2 36.3336 10.6667 45.0003 21.5 45.0003" stroke="#1D1D1B" stroke-miterlimit="10"/>
<path d="M16.6251 49.875L21.5001 45L16.6251 40.125" stroke="#1D1D1B" stroke-miterlimit="10"/>
</svg>
