<svg enable-background="new 0 0 484 237" viewBox="0 0 484 237" xmlns="http://www.w3.org/2000/svg" xmlns:xlink="http://www.w3.org/1999/xlink"><clipPath id="a"><path d="m30.5 61.6h436.4v168.7h-436.4z"/></clipPath><clipPath id="b"><path d="m30.5 61.6h436.4v168.7h-436.4z"/></clipPath><clipPath id="c"><path d="m30.5 61.6h436.4v168.7h-436.4z"/></clipPath><clipPath id="d"><path d="m30.5 61.6h436.4v168.7h-436.4z"/></clipPath><path clip-path="url(#a)" d="m31.9 64h56.6c48.8 0 67.8 28.8 67.8 59.3 0 31-24.5 58.6-70.9 58.6h-53.5c-.9 0-1.4-.6-1.4-1.2s.6-1.1 1.5-1.1h10c3.1 0 5.1-1.8 5.1-5.3v-102.5c0-2.5-1.3-5.4-5.3-5.4h-10.1c-.7 0-1.2-.6-1.2-1.1 0-.6.2-1.3 1.4-1.3m35.3 112.3c0 2.5 1.1 3.3 2.8 3.3h15c37 0 50.4-28.5 50.4-57.1s-14.1-56.2-45.4-56.2h-20.4c-2.1 0-2.3 1.8-2.3 2.6z"/><path clip-path="url(#b)" d="m161.9 64c-.9 0-1.7.3-1.7 1.1 0 .7.4 1.1 1.3 1.1h9.9c2.3 0 4.5 1.6 4.5 6v102.1c0 2.1-1.6 5.3-4.4 5.3h-9.9c-1.1 0-1.3.9-1.3 1.3s-.1 1 1.2 1h48.1c.7 0 1.7-.1 1.7-.8s-.2-1.4-1.4-1.4h-9.3c-1.3 0-5-.8-5-4.9v-103.7c0-2.9 1.8-4.9 5.2-4.9h9.1c.8 0 1.2-.4 1.2-1.1 0-.6-.5-1.1-1.5-1.1z"/><path clip-path="url(#c)" d="m237 123c0-32.6 14.5-59 41.7-59 26.6 0 41.7 26.4 41.7 59s-13.7 59-41.7 59c-27.2 0-41.7-26.4-41.7-59m41.6 61.4c38.6 0 63-27.5 63-61.4s-24.2-61.4-63-61.4c-38.9 0-63 27.5-63 61.4s25.2 61.4 63 61.4"/><path clip-path="url(#d)" d="m465.2 181.2c-15.2 1.6-23.5-23.5-31.2-35.4-5.7-8.8-17.9-17.8-30-19.5 19.7-1.1 42-7.5 42-30.1 0-18.3-11.2-32.2-52.3-32.2h-47.4c-.6 0-1.2.3-1.2 1.1 0 .7.6 1.1 1.2 1.1h10.9c2.3 0 4.5 1.6 4.5 6v102.1c0 2.1-1.6 5.3-4.4 5.3h-10.8c-.9 0-1.3.7-1.3 1.1s.3 1.1 1.2 1.1h50.3c.7 0 1.3-.4 1.3-1.1s-.4-1.1-1.4-1.1h-10.2c-1.3 0-5-.8-5-4.9v-48.2h5.2c24.9 0 26.7 27.1 39.1 42.7 10.6 13.3 24.4 15 32.3 15 3.3 0 5.7-.1 7.7-.6 1.6-.4 1.9-2.7-.5-2.4m-78.6-114.9h7.3c12.5 0 32.8 4.9 32.8 28.7 0 21.8-18 29.2-34.7 29.2h-10.6v-53c0-3 1.8-4.9 5.2-4.9"/></svg>