<svg width="44" height="12" viewBox="0 0 44 12" fill="none" xmlns="http://www.w3.org/2000/svg">
<path d="M0.138843 0.325378H5.75206C10.5917 0.325378 12.476 3.12031 12.476 6.08023C12.476 9.08866 10.0463 11.7671 5.44463 11.7671H0.138843C0.0495867 11.7671 0 11.7089 0 11.6507C0 11.5925 0.0595041 11.5439 0.14876 11.5439H1.1405C1.44793 11.5439 1.64628 11.3693 1.64628 11.0296V1.08234C1.64628 0.839724 1.51735 0.55829 1.12066 0.55829H0.119008C0.0495868 0.55829 0 0.500062 0 0.451539C0 0.393311 0.0198347 0.325378 0.138843 0.325378ZM3.63967 11.2237C3.63967 11.4663 3.74876 11.5439 3.91735 11.5439H5.40496C9.07438 11.5439 10.4033 8.77812 10.4033 6.00259C10.4033 3.22706 9.00496 0.548585 5.90082 0.548585H3.87768C3.66942 0.548585 3.64959 0.723269 3.64959 0.800906L3.63967 11.2237Z" fill="black"/>
<path d="M13.0316 0.325378C12.9424 0.325378 12.863 0.354492 12.863 0.432129C12.863 0.500062 12.9027 0.53888 12.992 0.53888H13.9738C14.2019 0.53888 14.4201 0.694154 14.4201 1.12116V11.0296C14.4201 11.2334 14.2614 11.5439 13.9837 11.5439H13.0019C12.8928 11.5439 12.873 11.6313 12.873 11.6701C12.873 11.7089 12.863 11.7671 12.992 11.7671H17.7622C17.8316 11.7671 17.9308 11.7574 17.9308 11.6895C17.9308 11.6216 17.911 11.5536 17.792 11.5536H16.8697C16.7407 11.5536 16.3738 11.476 16.3738 11.0781V1.01441C16.3738 0.732973 16.5523 0.53888 16.8895 0.53888H17.792C17.8713 0.53888 17.911 0.500062 17.911 0.432129C17.911 0.373901 17.8614 0.325378 17.7622 0.325378H13.0316Z" fill="black"/>
<path d="M20.4795 6.04136C20.4795 2.87764 21.9175 0.315615 24.615 0.315615C27.253 0.315615 28.7506 2.87764 28.7506 6.04136C28.7506 9.20508 27.3919 11.7671 24.615 11.7671C21.9175 11.7671 20.4795 9.20508 20.4795 6.04136ZM24.6051 12C28.4332 12 30.853 9.33124 30.853 6.04136C30.853 2.75148 28.453 0.0827026 24.6051 0.0827026C20.7473 0.0827026 18.3572 2.75148 18.3572 6.04136C18.3572 9.33124 20.8564 12 24.6051 12Z" fill="black"/>
<path d="M43.111 11.4761C41.6035 11.6313 40.7804 9.19548 40.0168 8.04063C39.4515 7.18662 38.2415 6.3132 37.0415 6.14822C38.9953 6.04147 41.2068 5.42037 41.2068 3.22713C41.2068 1.45118 40.0961 0.102234 36.0201 0.102234H31.3192C31.2597 0.102234 31.2002 0.131348 31.2002 0.208985C31.2002 0.276917 31.2597 0.315736 31.3192 0.315736H32.4002C32.6283 0.315736 32.8465 0.47101 32.8465 0.898014V10.8064C32.8465 11.0102 32.6878 11.3208 32.4101 11.3208H31.339C31.2498 11.3208 31.2101 11.3887 31.2101 11.4275C31.2101 11.4664 31.2399 11.5343 31.3291 11.5343H36.3176C36.387 11.5343 36.4465 11.4955 36.4465 11.4275C36.4465 11.3596 36.4068 11.3208 36.3077 11.3208H35.2961C35.1672 11.3208 34.8002 11.2432 34.8002 10.8453V6.16763H35.3159C37.7853 6.16763 37.9639 8.79759 39.1936 10.3115C40.2449 11.6022 41.6135 11.7672 42.3969 11.7672C42.7242 11.7672 42.9622 11.7575 43.1606 11.709C43.3193 11.6702 43.349 11.447 43.111 11.4761ZM35.3159 0.325441H36.0399C37.2796 0.325441 39.2928 0.800968 39.2928 3.11067C39.2928 5.22628 37.5077 5.94442 35.8515 5.94442H34.8002V0.800967C34.8002 0.509828 34.9787 0.325441 35.3159 0.325441Z" fill="black"/>
</svg>
