<svg width="160" height="160" viewBox="0 0 160 160" fill="none" xmlns="http://www.w3.org/2000/svg">
<path d="M120 149.282C135.251 140.477 147.171 126.885 153.91 110.615C160.65 94.3445 161.832 76.3051 157.274 59.2945C152.716 42.2838 142.672 27.2525 128.701 16.5317C114.729 5.81099 97.6107 -5.38627e-06 80 -3.49691e-06C62.3893 -1.60755e-06 45.2706 5.81099 31.2991 16.5317C17.3275 27.2525 7.28392 42.2838 2.72593 59.2945C-1.83207 76.3051 -0.649708 94.3445 6.08964 110.615C12.829 126.885 24.7487 140.477 40 149.282L80 80L120 149.282Z" fill="#F8F8F8"/>
<path d="M-3.49691e-06 80C-4.11075e-06 94.0429 3.6965 107.838 10.718 120C17.7394 132.162 27.8384 142.261 40 149.282L80 80L-3.49691e-06 80Z" fill="black"/>
<circle cx="80" cy="80" r="70" fill="white"/>
</svg>
