<svg width="246" height="111" viewBox="0 0 246 111" fill="none" xmlns="http://www.w3.org/2000/svg">
<path d="M244.428 46.6038C245.116 48.531 245.585 50.4914 245.821 52.4795L245.324 52.5385C245.441 53.5191 245.5 54.5064 245.5 55.5C245.5 56.4936 245.441 57.4809 245.324 58.4615L245.821 58.5205C245.585 60.5086 245.116 62.469 244.428 64.3962L243.957 64.228C243.307 66.0486 242.457 67.8419 241.414 69.6031L241.844 69.8578C240.849 71.5387 239.684 73.1883 238.357 74.8024L237.971 74.4849C236.747 75.9731 235.383 77.4326 233.885 78.86L234.23 79.222C232.819 80.5669 231.292 81.882 229.654 83.1649L229.345 82.7713C227.812 83.9723 226.18 85.1456 224.454 86.2888L224.73 86.7056C223.097 87.7878 221.381 88.8426 219.586 89.8681L219.338 89.434C217.632 90.4083 215.855 91.3565 214.01 92.2769L214.233 92.7243C212.47 93.6036 210.645 94.4574 208.761 95.2841L208.561 94.8263C206.757 95.6182 204.898 96.3854 202.989 97.1266L203.169 97.5927C201.32 98.3107 199.422 99.0043 197.479 99.6724L197.316 99.1996C195.441 99.8442 193.524 100.465 191.566 101.061L191.711 101.539C189.812 102.118 187.874 102.673 185.901 103.204L185.771 102.721C183.854 103.237 181.904 103.729 179.921 104.198L180.036 104.685C178.097 105.144 176.127 105.58 174.128 105.993L174.027 105.503C172.077 105.906 170.1 106.286 168.097 106.643L168.185 107.135C166.218 107.486 164.227 107.815 162.212 108.12L162.137 107.626C160.165 107.925 158.17 108.202 156.154 108.457L156.216 108.953C154.232 109.203 152.226 109.432 150.202 109.638L150.152 109.141C148.164 109.343 146.158 109.524 144.135 109.682L144.174 110.181C142.177 110.337 140.163 110.472 138.134 110.584L138.107 110.085C136.109 110.195 134.097 110.284 132.071 110.351L132.087 110.851C130.083 110.917 128.066 110.961 126.036 110.983L126.03 110.483C125.023 110.494 124.013 110.5 123 110.5C121.987 110.5 120.977 110.494 119.97 110.483L119.964 110.983C117.934 110.961 115.917 110.917 113.913 110.851L113.929 110.351C111.903 110.284 109.891 110.195 107.893 110.085L107.866 110.584C105.837 110.472 103.823 110.337 101.826 110.181L101.865 109.682C99.8423 109.524 97.8362 109.343 95.8484 109.141L95.7978 109.638C93.7737 109.432 91.7685 109.203 89.7836 108.953L89.8462 108.457C87.8302 108.202 85.8353 107.925 83.8629 107.626L83.7879 108.12C81.7733 107.815 79.7819 107.486 77.8154 107.135L77.9032 106.643C75.9 106.286 73.9227 105.906 71.9729 105.503L71.8718 105.993C69.8731 105.58 67.9031 105.144 65.9636 104.685L66.0788 104.198C64.0962 103.729 62.1457 103.237 60.2291 102.721L60.0992 103.204C58.126 102.673 56.1885 102.118 54.2887 101.539L54.4343 101.061C52.4764 100.465 50.5589 99.8442 48.684 99.1996L48.5215 99.6724C46.5783 99.0043 44.6805 98.3107 42.8305 97.5927L43.0115 97.1266C41.1017 96.3854 39.2435 95.6182 37.4395 94.8263L37.2385 95.2841C35.3552 94.4574 33.5303 93.6036 31.767 92.7243L31.9901 92.2769C30.1447 91.3565 28.3675 90.4083 26.6623 89.434L26.4142 89.8681C24.6195 88.8426 22.9033 87.7878 21.2697 86.7056L21.5458 86.2888C19.8201 85.1456 18.1881 83.9723 16.6546 82.7713L16.3463 83.1649C14.7084 81.882 13.1809 80.5669 11.7697 79.222L12.1146 78.86C10.6168 77.4326 9.25279 75.9731 8.02926 74.4849L7.64304 74.8024C6.31596 73.1883 5.15053 71.5388 4.1556 69.8578L4.58588 69.6031C3.54345 67.8419 2.69264 66.0486 2.04258 64.228L1.5717 64.3962C0.883581 62.469 0.415372 60.5086 0.179058 58.5205L0.675563 58.4615C0.559013 57.4809 0.5 56.4936 0.5 55.5C0.5 54.5064 0.559013 53.5191 0.675564 52.5385L0.179059 52.4795C0.415373 50.4914 0.883582 48.531 1.5717 46.6038L2.04258 46.772C2.69264 44.9514 3.54345 43.1581 4.58588 41.3969L4.1556 41.1422C5.15052 39.4612 6.31596 37.8117 7.64303 36.1976L8.02925 36.5151C9.25279 35.0269 10.6168 33.5674 12.1146 32.14L11.7697 31.778C13.1809 30.4331 14.7084 29.118 16.3463 27.8351L16.6546 28.2287C18.1881 27.0277 19.8201 25.8544 21.5458 24.7112L21.2697 24.2944C22.9033 23.2122 24.6195 22.1574 26.4142 21.1319L26.6623 21.566C28.3675 20.5917 30.1446 19.6435 31.9901 18.7231L31.767 18.2757C33.5303 17.3964 35.3551 16.5426 37.2385 15.7159L37.4395 16.1737C39.2435 15.3818 41.1017 14.6146 43.0114 13.8734L42.8305 13.4073C44.6805 12.6893 46.5782 11.9957 48.5214 11.3276L48.684 11.8004C50.5589 11.1558 52.4764 10.5349 54.4343 9.93884L54.2887 9.46051C56.1884 8.88211 58.126 8.32702 60.0992 7.79614L60.2291 8.27897C62.1456 7.76335 64.0961 7.27059 66.0787 6.80153L65.9636 6.31496C67.9031 5.85611 69.8731 5.41994 71.8718 5.00721L71.9729 5.49688C73.9227 5.09426 75.9 4.71398 77.9032 4.35679L77.8154 3.86455C79.7819 3.51391 81.7732 3.18547 83.7879 2.87993L83.8628 3.37428C85.8353 3.07513 87.8302 2.79797 89.8462 2.54344L89.7836 2.04738C91.7685 1.79677 93.7737 1.56807 95.7978 1.36188L95.8484 1.85931C97.8362 1.65682 99.8423 1.47609 101.865 1.3177L101.826 0.81923C103.823 0.662885 105.837 0.528271 107.866 0.415948L107.893 0.915183C109.891 0.804598 111.903 0.715657 113.929 0.648899L113.913 0.14917C115.917 0.0831308 117.934 0.0387601 119.964 0.0165748L119.97 0.516545C120.977 0.505536 121.987 0.5 123 0.5C124.013 0.5 125.023 0.505536 126.03 0.516545L126.036 0.0165748C128.066 0.03876 130.083 0.0831307 132.087 0.14917L132.071 0.648899C134.097 0.715657 136.109 0.804597 138.107 0.915182L138.134 0.415946C140.163 0.52827 142.177 0.662884 144.174 0.819229L144.135 1.3177C146.158 1.47609 148.164 1.65682 150.152 1.8593L150.202 1.36188C152.226 1.56807 154.232 1.79677 156.216 2.04738L156.154 2.54344C158.17 2.79797 160.165 3.07513 162.137 3.37428L162.212 2.87993C164.227 3.18547 166.218 3.5139 168.185 3.86455L168.097 4.35679C170.1 4.71398 172.077 5.09426 174.027 5.49688L174.128 5.00721C176.127 5.41993 178.097 5.85611 180.036 6.31496L179.921 6.80153C181.904 7.27058 183.854 7.76335 185.771 8.27897L185.901 7.79614C187.874 8.32701 189.812 8.88211 191.711 9.46051L191.566 9.93883C193.524 10.5349 195.441 11.1558 197.316 11.8004L197.479 11.3276C199.422 11.9957 201.32 12.6893 203.169 13.4073L202.989 13.8734C204.898 14.6146 206.757 15.3818 208.561 16.1737L208.761 15.7159C210.645 16.5426 212.47 17.3963 214.233 18.2757L214.01 18.7231C215.855 19.6435 217.632 20.5917 219.338 21.566L219.586 21.1319C221.381 22.1574 223.097 23.2122 224.73 24.2944L224.454 24.7112C226.18 25.8544 227.812 27.0277 229.345 28.2287L229.654 27.8351C231.292 29.1179 232.819 30.4331 234.23 31.778L233.885 32.14C235.383 33.5674 236.747 35.0269 237.971 36.5151L238.357 36.1976C239.684 37.8117 240.849 39.4612 241.844 41.1422L241.414 41.3969C242.457 43.1581 243.307 44.9514 243.957 46.772L244.428 46.6038Z" stroke="#BCBEC0" stroke-dasharray="6 6"/>
</svg>
