<svg width="383" height="138" viewBox="0 0 383 138" fill="none" xmlns="http://www.w3.org/2000/svg">
<path d="M381.451 60.182C382.129 62.0989 382.59 64.0405 382.823 66.0033L382.326 66.0622C382.442 67.0364 382.5 68.0157 382.5 69C382.5 69.9843 382.442 70.9637 382.326 71.9379L382.823 71.9968C382.59 73.9596 382.129 75.9011 381.451 77.8181L380.979 77.6512C380.341 79.4552 379.504 81.2401 378.477 83.0029L378.909 83.2548C377.939 84.9178 376.803 86.5588 375.508 88.1754L375.118 87.8628C373.921 89.3568 372.584 90.8317 371.113 92.2852L371.465 92.6408C370.095 93.9938 368.612 95.3271 367.018 96.639L366.7 96.253C365.217 97.4744 363.636 98.6781 361.962 99.8626L362.251 100.271C360.664 101.393 358.995 102.498 357.246 103.584L356.982 103.159C355.333 104.183 353.612 105.19 351.822 106.18L352.064 106.618C350.354 107.564 348.581 108.493 346.748 109.406L346.525 108.959C344.778 109.828 342.975 110.683 341.119 111.522L341.325 111.978C339.537 112.786 337.7 113.579 335.816 114.357L335.625 113.895C333.813 114.643 331.956 115.376 330.057 116.096L330.234 116.563C328.392 117.26 326.51 117.944 324.589 118.613L324.424 118.141C322.564 118.789 320.667 119.423 318.735 120.044L318.888 120.52C317.004 121.125 315.087 121.717 313.137 122.296L312.995 121.816C311.109 122.376 309.192 122.923 307.246 123.456L307.379 123.938C305.475 124.461 303.543 124.97 301.585 125.467L301.462 124.982C299.546 125.468 297.604 125.941 295.637 126.402L295.751 126.889C293.819 127.342 291.862 127.782 289.881 128.21L289.776 127.722C287.842 128.14 285.887 128.546 283.909 128.939L284.007 129.43C282.066 129.816 280.104 130.191 278.122 130.554L278.032 130.062C276.081 130.419 274.111 130.765 272.122 131.098L272.205 131.591C270.242 131.921 268.26 132.238 266.262 132.544L266.186 132.05C264.231 132.349 262.259 132.636 260.271 132.912L260.34 133.408C258.372 133.681 256.388 133.943 254.388 134.193L254.326 133.697C252.35 133.944 250.359 134.181 248.353 134.405L248.409 134.902C246.439 135.123 244.455 135.332 242.458 135.53L242.408 135.033C240.43 135.229 238.44 135.414 236.436 135.588L236.48 136.086C234.493 136.258 232.494 136.42 230.483 136.569L230.446 136.071C228.468 136.218 226.478 136.355 224.478 136.48L224.509 136.979C222.52 137.103 220.521 137.217 218.511 137.319L218.486 136.82C216.497 136.921 214.499 137.011 212.492 137.09L212.512 137.589C210.523 137.668 208.526 137.735 206.52 137.791L206.506 137.291C204.512 137.347 202.51 137.392 200.5 137.425L200.508 137.925C198.518 137.958 196.52 137.98 194.514 137.992L194.511 137.492C193.509 137.497 192.506 137.5 191.5 137.5C190.494 137.5 189.491 137.497 188.489 137.492L188.486 137.992C186.48 137.98 184.482 137.958 182.492 137.925L182.5 137.425C180.49 137.392 178.488 137.347 176.494 137.291L176.48 137.791C174.474 137.735 172.477 137.668 170.488 137.589L170.508 137.09C168.501 137.011 166.502 136.921 164.514 136.82L164.489 137.319C162.479 137.217 160.48 137.103 158.491 136.979L158.522 136.48C156.522 136.355 154.532 136.218 152.554 136.071L152.517 136.569C150.506 136.419 148.507 136.258 146.52 136.086L146.563 135.588C144.56 135.414 142.57 135.229 140.592 135.033L140.542 135.53C138.545 135.332 136.561 135.123 134.591 134.902L134.647 134.405C132.641 134.181 130.65 133.944 128.674 133.697L128.612 134.193C126.612 133.943 124.628 133.681 122.66 133.407L122.729 132.912C120.741 132.636 118.769 132.349 116.814 132.05L116.738 132.544C114.74 132.238 112.758 131.921 110.795 131.591L110.878 131.098C108.889 130.765 106.919 130.419 104.968 130.062L104.878 130.554C102.896 130.191 100.934 129.816 98.9931 129.43L99.0907 128.939C97.1135 128.546 95.1577 128.14 93.2242 127.722L93.1186 128.21C91.1384 127.782 89.1814 127.342 87.2486 126.889L87.3626 126.402C85.3958 125.941 83.4541 125.468 81.5383 124.982L81.4154 125.467C79.4567 124.97 77.5251 124.461 75.6214 123.938L75.7537 123.456C73.8078 122.923 71.8914 122.376 70.0053 121.816L69.8631 122.296C67.9134 121.717 65.996 121.125 64.1119 120.52L64.2649 120.044C62.3327 119.423 60.4358 118.789 58.5756 118.141L58.4111 118.613C56.4902 117.944 54.6081 117.26 52.7661 116.563L52.9431 116.096C51.0436 115.376 49.187 114.643 47.3749 113.895L47.1841 114.357C45.2996 113.579 43.4626 112.786 41.675 111.978L41.8809 111.522C40.0248 110.683 38.2223 109.828 36.4753 108.959L36.2524 109.406C34.419 108.493 32.6462 107.564 30.936 106.618L31.178 106.18C29.3877 105.19 27.667 104.183 26.0181 103.159L25.7544 103.584C24.0052 102.498 22.3359 101.393 20.7493 100.271L21.0381 99.8626C19.3638 98.6781 17.7832 97.4744 16.2996 96.253L15.9818 96.639C14.3882 95.327 12.9047 93.9938 11.5353 92.6408L11.8867 92.2851C10.4156 90.8316 9.07914 89.3568 7.88201 87.8628L7.49182 88.1754C6.19648 86.5588 5.0608 84.9178 4.09132 83.2547L4.52328 83.0029C3.49563 81.2401 2.65916 79.4552 2.02049 77.6512L1.54916 77.818C0.870494 75.9011 0.410141 73.9595 0.17736 71.9967L0.67388 71.9378C0.558344 70.9636 0.5 69.9843 0.5 69C0.5 68.0157 0.558345 67.0363 0.673885 66.0621L0.177365 66.0032C0.410149 64.0405 0.870505 62.0989 1.54917 60.1819L2.0205 60.3488C2.65918 58.5448 3.49565 56.7599 4.5233 54.9971L4.09134 54.7452C5.06082 53.0822 6.1965 51.4412 7.49184 49.8246L7.88204 50.1372C9.07917 48.6432 10.4156 47.1683 11.8867 45.7148L11.5353 45.3592C12.9047 44.0062 14.3882 42.6729 15.9818 41.361L16.2996 41.747C17.7832 40.5256 19.3638 39.3219 21.0381 38.1374L20.7494 37.7292C22.3359 36.6067 24.0052 35.502 25.7544 34.416L26.0181 34.8408C27.667 33.8171 29.3877 32.8098 31.178 31.8198L30.936 31.3822C32.6462 30.4364 34.419 29.5067 36.2524 28.5938L36.4752 29.0414C38.2223 28.1715 40.0247 27.3167 41.8809 26.4778L41.675 26.0221C43.4626 25.2142 45.2995 24.4209 47.1841 23.6431L47.3749 24.1053C49.187 23.3574 51.0436 22.6236 52.9431 21.9045L52.7661 21.4369C54.6081 20.7395 56.4902 20.0561 58.4111 19.387L58.5756 19.8592C60.4358 19.2112 62.3326 18.5766 64.2649 17.9559L64.1119 17.4799C65.996 16.8747 67.9134 16.2827 69.8631 15.7043L70.0053 16.1837C71.8914 15.6242 73.8078 15.0774 75.7536 14.5438L75.6214 14.0616C77.5251 13.5395 79.4567 13.0299 81.4154 12.5333L81.5383 13.0179C83.454 12.5322 85.3958 12.0587 87.3626 11.5979L87.2485 11.1111C89.1814 10.6583 91.1384 10.2177 93.1186 9.78959L93.2242 10.2783C95.1577 9.86032 97.1135 9.4543 99.0907 9.0605L98.993 8.57013C100.934 8.18353 102.896 7.80871 104.878 7.44595L104.968 7.93778C106.919 7.58064 108.889 7.23519 110.878 6.90169L110.795 6.40857C112.758 6.07937 114.74 5.7618 116.738 5.45612L116.814 5.95037C118.769 5.65137 120.741 5.36376 122.729 5.08776L122.66 4.59251C124.628 4.31919 126.612 4.05724 128.612 3.8069L128.674 4.30303C130.65 4.05553 132.641 3.81938 134.647 3.5948L134.591 3.0979C136.561 2.87727 138.545 2.66778 140.542 2.46966L140.592 2.96721C142.57 2.77097 144.56 2.58587 146.564 2.41214L146.52 1.91401C148.507 1.74167 150.506 1.58049 152.517 1.43067L152.554 1.92929C154.532 1.78189 156.522 1.64549 158.522 1.52028L158.491 1.02126C160.48 0.896735 162.479 0.783272 164.489 0.681049L164.514 1.1804C166.503 1.07926 168.501 0.989134 170.508 0.910196L170.489 0.410582C172.477 0.332405 174.474 0.265192 176.48 0.209116L176.494 0.708921C178.488 0.653186 180.49 0.608462 182.5 0.574918L182.492 0.0749878C184.482 0.0417823 186.48 0.0195229 188.486 0.00837277L188.489 0.508365C189.491 0.502795 190.494 0.5 191.5 0.5C192.506 0.5 193.509 0.502795 194.511 0.508366L194.514 0.00837324C196.52 0.0195236 198.518 0.0417833 200.508 0.0749889L200.5 0.574919C202.51 0.608463 204.512 0.653187 206.506 0.708923L206.52 0.209118C208.526 0.265194 210.523 0.332407 212.512 0.410585L212.492 0.910198C214.499 0.989137 216.498 1.07927 218.486 1.18041L218.511 0.681052C220.521 0.783275 222.52 0.896738 224.509 1.02126L224.478 1.52028C226.478 1.64549 228.468 1.78189 230.446 1.92929L230.483 1.43067C232.494 1.58049 234.493 1.74167 236.48 1.91401L236.437 2.41214C238.44 2.58588 240.43 2.77097 242.408 2.96722L242.458 2.46966C244.455 2.66779 246.439 2.87727 248.409 3.09791L248.353 3.5948C250.359 3.81938 252.35 4.05553 254.326 4.30303L254.388 3.80691C256.388 4.05725 258.372 4.31919 260.34 4.59251L260.271 5.08776C262.259 5.36376 264.231 5.65138 266.186 5.95037L266.262 5.45612C268.26 5.7618 270.242 6.07937 272.205 6.40857L272.122 6.90169C274.111 7.23519 276.081 7.58064 278.032 7.93778L278.122 7.44595C280.104 7.80871 282.066 8.18352 284.007 8.57013L283.909 9.0605C285.887 9.45429 287.842 9.86032 289.776 10.2783L289.881 9.78958C291.862 10.2177 293.819 10.6583 295.751 11.1111L295.637 11.5979C297.604 12.0587 299.546 12.5321 301.462 13.0179L301.585 12.5333C303.543 13.0299 305.475 13.5395 307.379 14.0616L307.246 14.5437C309.192 15.0774 311.109 15.6242 312.995 16.1836L313.137 15.7043C315.087 16.2827 317.004 16.8747 318.888 17.4799L318.735 17.9559C320.667 18.5766 322.564 19.2112 324.424 19.8592L324.589 19.387C326.51 20.0561 328.392 20.7395 330.234 21.4369L330.057 21.9045C331.956 22.6236 333.813 23.3574 335.625 24.1053L335.816 23.6431C337.7 24.4209 339.537 25.2141 341.325 26.0221L341.119 26.4778C342.975 27.3167 344.778 28.1715 346.525 29.0414L346.748 28.5938C348.581 29.5067 350.354 30.4364 352.064 31.3822L351.822 31.8197C353.612 32.8098 355.333 33.8171 356.982 34.8408L357.246 34.416C358.995 35.502 360.664 36.6067 362.251 37.7292L361.962 38.1374C363.636 39.3219 365.217 40.5256 366.7 41.747L367.018 41.361C368.612 42.673 370.095 44.0062 371.465 45.3592L371.113 45.7149C372.584 47.1684 373.921 48.6432 375.118 50.1372L375.508 49.8246C376.804 51.4412 377.939 53.0822 378.909 54.7453L378.477 54.9971C379.504 56.7599 380.341 58.5448 380.98 60.3488L381.451 60.182Z" stroke="#BCBEC0" stroke-dasharray="6 6"/>
</svg>
