<svg width="21" height="17" viewBox="0 0 21 17" fill="none" xmlns="http://www.w3.org/2000/svg">
<g clip-path="url(#clip0)">
<path d="M18.5001 0H2.50005C1.83701 0 1.20107 0.263459 0.732231 0.7323C0.26339 1.20114 5.32046e-05 1.83696 5.32046e-05 2.5V14.5C-0.0052412 14.5933 -0.0052412 14.6868 5.32046e-05 14.78C-0.0250459 14.8604 -0.0291806 14.9458 -0.0116655 15.0281C0.00584954 15.1104 0.0442775 15.1868 0.0999067 15.25C0.257366 15.7559 0.572112 16.1985 0.998344 16.5132C1.42458 16.8279 1.94019 16.9984 2.47002 17H18.47C19.1331 17 19.769 16.7367 20.2378 16.2678C20.7067 15.799 20.97 15.163 20.97 14.5V2.5C20.9701 1.84212 20.7107 1.21079 20.2483 0.742798C19.786 0.27481 19.1579 0.00789451 18.5001 0ZM15.2 8.91992L20.0001 4.12V13.72L15.2 8.91992ZM2.50005 1H18.5001C18.8979 1 19.2793 1.15803 19.5606 1.43933C19.8419 1.72064 20.0001 2.10218 20.0001 2.5V2.70996L10.5001 12.21L6.85992 8.57007L1.00005 2.70996V2.5C1.00005 2.10218 1.15796 1.72064 1.43926 1.43933C1.72057 1.15803 2.10223 1 2.50005 1ZM5.79986 8.91992L1.00005 13.72V4.12L5.79986 8.91992ZM18.5001 16H2.50005C2.19229 15.9971 1.89283 15.8996 1.64239 15.7207C1.39194 15.5418 1.20248 15.2902 1.09991 15L6.50005 9.6001L10.16 13.26C10.2064 13.3069 10.2616 13.344 10.3226 13.3694C10.3835 13.3948 10.4489 13.408 10.5149 13.408C10.581 13.408 10.6464 13.3948 10.7073 13.3694C10.7683 13.344 10.8234 13.3069 10.8699 13.26L14.5101 9.62012L19.91 15.02C19.8035 15.3081 19.6113 15.5564 19.3592 15.7317C19.107 15.9069 18.8071 16.0006 18.5001 16Z" fill="black"/>
</g>
<defs>
<clipPath id="clip0">
<rect width="21" height="17" fill="white"/>
</clipPath>
</defs>
</svg>
