<svg width="23" height="19" viewBox="0 0 23 19" fill="none" xmlns="http://www.w3.org/2000/svg">
<g clip-path="url(#clip0)">
<path d="M21.0001 13.0699V11.5199C20.9975 9.26637 20.1009 7.10594 18.5074 5.51245C16.914 3.91897 14.7536 3.02267 12.5001 3.02002H12.0001V1.02002H13.4V0.0200195H9.60999V1.02002H11.0101V3.02002H10.5101C8.2566 3.02267 6.09605 3.91897 4.50256 5.51245C2.90908 7.10594 2.01278 9.26637 2.01013 11.5199V13.0699C1.44545 13.1852 0.93782 13.4921 0.573364 13.9386C0.208909 14.3851 0.0100143 14.9436 0.0101319 15.5199V17.5199C0.0101319 17.6525 0.0626039 17.7796 0.156372 17.8734C0.25014 17.9672 0.377524 18.0199 0.510132 18.0199H22.5101C22.6427 18.0199 22.7699 17.9672 22.8636 17.8734C22.9574 17.7796 23.0101 17.6525 23.0101 17.5199V15.5199C23.0098 14.9422 22.8092 14.3826 22.4427 13.9359C22.0763 13.4893 21.5666 13.1832 21.0001 13.0699ZM3.00012 11.5199C3.00277 9.53159 3.79364 7.62555 5.19958 6.2196C6.60553 4.81365 8.51181 4.02267 10.5001 4.02002H12.5001C14.4884 4.02267 16.3945 4.81365 17.8004 6.2196C19.2064 7.62555 19.9975 9.53159 20.0001 11.5199V13.0199H3.00012V11.5199ZM22.0001 17.0199H1.00012V15.5199C1.00012 15.1221 1.15803 14.7407 1.43933 14.4594C1.72064 14.178 2.1023 14.0199 2.50012 14.0199H20.5001C20.8979 14.0199 21.2794 14.178 21.5607 14.4594C21.842 14.7407 22.0001 15.1221 22.0001 15.5199V17.0199Z" fill="black"/>
<path d="M12.9 5.97021V6.97021C13.9972 6.97286 15.0488 7.40984 15.8246 8.18567C16.6004 8.9615 17.0373 10.013 17.0399 11.1102H18.0399C18.0373 9.74783 17.495 8.442 16.5316 7.47864C15.5683 6.51527 14.2624 5.97286 12.9 5.97021Z" fill="black"/>
</g>
<defs>
<clipPath id="clip0">
<rect width="23" height="18.02" fill="white"/>
</clipPath>
</defs>
</svg>
