<svg width="37" height="11" viewBox="0 0 37 11" fill="none" xmlns="http://www.w3.org/2000/svg">
<path d="M0.000676153 0.00278715C2.17919 0.00278715 4.35723 0.00470091 6.53574 0.00183105C6.53808 0.599718 6.54042 1.1976 6.5348 1.79597C4.99639 1.79549 3.45752 1.79454 1.91865 1.79645C1.91958 2.54692 1.91771 3.29786 1.91958 4.04833C3.2668 4.04546 4.61402 4.04785 5.96077 4.04737C5.96826 4.64335 5.95936 5.23932 5.96545 5.8353C4.61683 5.83386 3.26867 5.83673 1.92052 5.83386C1.91724 7.24774 1.91865 8.66163 1.91958 10.0755C1.28088 10.0683 0.642186 10.0683 0.00348776 10.075C-0.0035412 6.71778 0.00255054 3.36004 0.000676153 0.00278715Z" fill="#231F20"/>
<path d="M7.80644 10.0785C7.8041 6.71976 7.80363 3.36107 7.80691 0.00238037C10.058 0.00955502 12.3097 0.00572895 14.5613 0.00429402C14.5617 0.602659 14.5589 1.20102 14.5627 1.79891C12.9371 1.79891 11.3111 1.79604 9.68551 1.80083C9.69067 2.50298 9.68598 3.20562 9.68785 3.90826C11.1808 3.90443 12.6733 3.90682 14.1662 3.90682C14.1606 4.50232 14.1672 5.09829 14.162 5.69379C12.6709 5.69522 11.1794 5.69618 9.68832 5.69283C9.68457 6.55474 9.69207 7.41666 9.68457 8.2781C11.3837 8.28384 13.0828 8.27905 14.7824 8.28049C14.7867 8.87837 14.7867 9.47626 14.7824 10.0746C12.4573 10.0765 10.1316 10.0684 7.80644 10.0785Z" fill="#231F20"/>
<path d="M16.2243 0.00189209C16.901 0.00715349 17.5776 0.00858841 18.2543 0.00189209C19.475 2.34226 20.6952 4.68262 21.9182 7.02155C21.9224 4.6831 21.922 2.34465 21.9182 0.00667547C22.5147 0.00332731 23.1113 0.00763267 23.7078 0.00428451C23.7106 3.36153 23.7101 6.71878 23.7083 10.076C23.07 10.0713 22.4318 10.0741 21.794 10.0741C20.542 7.67732 19.2871 5.28194 18.0284 2.88849C18.0289 5.28481 18.0294 7.68066 18.0279 10.077C17.4267 10.0717 16.8251 10.0693 16.2234 10.0784C16.2276 6.71974 16.2257 3.36058 16.2243 0.00189209Z" fill="#231F20"/>
<path d="M25.54 0.00231934C26.9336 0.0066241 28.3272 0.00231875 29.7208 0.00471029C30.4851 0.0171463 31.2677 0.237168 31.8567 0.752305C32.4738 1.24592 32.8342 1.99017 33.0596 2.74063C33.2498 3.42413 33.3192 4.13681 33.3309 4.84566C33.3032 5.94051 33.1519 7.06166 32.6566 8.04698C32.3464 8.72952 31.8295 9.31832 31.1819 9.68135C30.7072 9.9449 30.1651 10.0559 29.629 10.0702C28.2672 10.0769 26.905 10.065 25.5433 10.0764C25.5339 6.71824 25.5405 3.36004 25.54 0.00231934ZM27.4392 1.75771C27.4341 3.94405 27.4364 6.1304 27.4378 8.31674C28.0437 8.31387 28.6491 8.31674 29.255 8.31531C29.5029 8.30861 29.756 8.27704 29.9846 8.17468C30.4275 7.98814 30.7419 7.58397 30.9504 7.15684C31.3023 6.37816 31.3792 5.50094 31.3562 4.65386C31.3351 3.84217 31.2142 2.97309 30.6899 2.32833C30.3745 1.92942 29.8525 1.79693 29.3736 1.76488C28.7288 1.75293 28.084 1.76728 27.4392 1.75771Z" fill="#231F20"/>
<path d="M34.6126 10.0789C34.6056 6.71926 34.6066 3.35963 34.6122 0C35.2499 0.00956615 35.8882 0.00239142 36.5259 0.00286973C36.5288 3.35915 36.5302 6.71592 36.5255 10.0727C35.8877 10.0755 35.2499 10.0631 34.6126 10.0789Z" fill="#231F20"/>
</svg>
