<svg width="20" height="24" viewBox="0 0 20 24" fill="none" xmlns="http://www.w3.org/2000/svg">
<path d="M12.5454 16.7273L8.18176 13.8182" stroke="#808285" stroke-miterlimit="10"/>
<path d="M12.5454 7.27274L8.18176 10.1818" stroke="#808285" stroke-miterlimit="10"/>
<path d="M15.2727 8.72728C17.0802 8.72728 18.5455 7.26203 18.5455 5.45455C18.5455 3.64707 17.0802 2.18182 15.2727 2.18182C13.4652 2.18182 12 3.64707 12 5.45455C12 7.26203 13.4652 8.72728 15.2727 8.72728Z" stroke="#808285" stroke-miterlimit="10"/>
<path d="M15.2727 21.8182C17.0802 21.8182 18.5455 20.3529 18.5455 18.5455C18.5455 16.738 17.0802 15.2727 15.2727 15.2727C13.4652 15.2727 12 16.738 12 18.5455C12 20.3529 13.4652 21.8182 15.2727 21.8182Z" stroke="#808285" stroke-miterlimit="10"/>
<path d="M5.45449 15.2727C7.26197 15.2727 8.72722 13.8075 8.72722 12C8.72722 10.1925 7.26197 8.72728 5.45449 8.72728C3.64701 8.72728 2.18176 10.1925 2.18176 12C2.18176 13.8075 3.64701 15.2727 5.45449 15.2727Z" stroke="#808285" stroke-miterlimit="10"/>
</svg>
