<svg width="84" height="14" viewBox="0 0 84 14" fill="none" xmlns="http://www.w3.org/2000/svg">
<g clip-path="url(#clip0)">
<path d="M6.25197 13.7542H4.17591V2.39574H0V0.237183H10.3435V2.39574H6.25197" fill="black"/>
<path d="M48.8932 2.39574H41.9676V6.38744H48.3856V8.54929H41.9676V13.7542H39.8832V0.237183H48.8932" fill="black"/>
<path d="M67.489 2.39574H64.6535V6.38744H67.489C69.1543 6.38744 70.0728 5.58967 70.0728 4.31432C70.0727 2.84892 69.0727 2.39574 67.489 2.39574ZM70.3259 13.7542L67.3202 8.53681H64.6535V13.7542H62.5676V0.237183H67.9025C70.7395 0.237183 72.2432 1.71019 72.2432 4.24046C72.2432 6.54368 71.0757 7.72395 69.5679 8.1221L72.8268 13.7509H70.326L70.3259 13.7542Z" fill="black"/>
<path d="M77.5808 2.39574H75.1572V11.5914H77.5808C80.1658 11.5914 81.7453 9.72717 81.7453 7.01173C81.744 4.34178 80.1658 2.39574 77.5808 2.39574ZM77.5808 13.7542H73.0784V0.237183H77.5808C81.5007 0.237183 84.0001 3.04839 84.0001 6.97236C84 10.7952 81.5836 13.7542 77.5808 13.7542Z" fill="black"/>
<path d="M28.6871 13.7542L25.441 4.05505V13.7542H23.3538V0.237183H26.3566L29.278 8.91987L32.2752 0.237183H35.2768V13.7542H33.1923V4.04098L29.8574 13.7542" fill="black"/>
<path d="M16.1848 2.18386C13.757 2.18386 12.0946 4.29068 12.0946 6.99308C12.0946 9.67619 13.757 11.809 16.1848 11.809C18.5998 11.809 20.2637 9.7092 20.2637 7.00715C20.2636 4.32143 18.5997 2.18386 16.1848 2.18386ZM16.1848 14C12.5153 14 9.83862 10.9012 9.83862 7.00703C9.83862 3.10894 12.5153 0 16.1848 0C19.9375 0 22.5225 3.10009 22.5225 6.99296C22.5225 10.8887 19.9374 14 16.1848 14Z" fill="black"/>
<path d="M55.3972 2.18386C52.9725 2.18386 51.3098 4.29068 51.3098 6.99308C51.3098 9.67619 53.0566 11.809 55.3972 11.809C57.8123 11.809 59.4763 9.7092 59.4763 7.00715C59.4762 4.32143 57.8122 2.18386 55.3972 2.18386ZM55.3972 14C51.7289 14 49.0552 10.9012 49.0552 7.00703C49.0552 3.10894 51.7305 0 55.3972 0C59.1512 0 61.7308 3.10009 61.7308 6.99296C61.7321 10.8887 59.1526 14 55.3972 14Z" fill="black"/>
</g>
<defs>
<clipPath id="clip0">
<rect width="84" height="14" fill="white" transform="matrix(1 0 0 -1 0 14)"/>
</clipPath>
</defs>
</svg>
