<svg width="18" height="18" viewBox="0 0 18 18" fill="none" xmlns="http://www.w3.org/2000/svg">
<g clip-path="url(#clip0)">
<path d="M17.3982 12.2014L13.7325 8.53573C13.2948 8.09804 12.7477 7.8792 12.2006 7.8792C11.6535 7.8792 11.0517 8.09804 10.6687 8.53573L10.0122 9.19227L8.80851 7.98862L9.46504 7.33208C9.90273 6.89439 10.1216 6.34728 10.1216 5.80017C10.1216 5.25306 9.84802 4.70595 9.46504 4.26826L5.79939 0.602602C4.92401 -0.218066 3.55623 -0.218066 2.68085 0.657314L0.656535 2.68163C0.218845 3.11932 0 3.66643 0 4.26826C0 4.87008 0.218845 5.41719 0.656535 5.80017L4.32219 9.46582C4.75988 9.90351 5.30699 10.1224 5.8541 10.1224C6.40122 10.1224 6.94833 9.90351 7.38602 9.46582L8.04255 8.80929L9.2462 10.0129L8.58967 10.6695C7.71429 11.5449 7.71429 12.9126 8.58967 13.788L12.2553 17.4537C12.693 17.8914 13.2401 18.1102 13.7872 18.1102C14.3343 18.1102 14.9362 17.8914 15.3191 17.4537L17.3982 15.3746C17.8359 14.9369 18.0547 14.3898 18.0547 13.8427C18.0547 13.2956 17.7812 12.6391 17.3982 12.2014ZM6.62006 8.64515C6.18237 9.08284 5.47112 9.08284 5.08815 8.64515L1.42249 5.03421C1.20365 4.81537 1.09422 4.54181 1.09422 4.26826C1.09422 3.9947 1.20365 3.72114 1.42249 3.5023L3.50152 1.42327C3.93921 0.985581 4.59574 0.985581 5.03343 1.42327L8.69909 5.08892C8.91793 5.30777 9.02736 5.58133 9.02736 5.85488C9.02736 6.12844 8.91793 6.40199 8.69909 6.62084L8.04255 7.27737L5.52584 4.76066L4.75988 5.52661L7.2766 8.04333L6.62006 8.64515ZM16.5775 14.554L14.4985 16.633C14.0608 17.0707 13.3495 17.0707 12.9666 16.633L9.30091 12.9673C8.86322 12.5297 8.86322 11.8731 9.30091 11.4354L9.95745 10.7789L12.5289 13.3503L13.2948 12.5844L10.7234 10.0129L11.3799 9.3564C11.5988 9.13756 11.8723 9.02813 12.1459 9.02813C12.4195 9.02813 12.693 9.13756 12.9119 9.3564L16.5775 13.0221C16.7964 13.2409 16.9058 13.5145 16.9058 13.788C16.9058 14.0616 16.7964 14.3351 16.5775 14.554Z" fill="#777777"/>
</g>
<defs>
<clipPath id="clip0">
<rect width="18" height="18" fill="white"/>
</clipPath>
</defs>
</svg>
