<svg width="42" height="19" viewBox="0 0 42 19" fill="none" xmlns="http://www.w3.org/2000/svg">
<path d="M1 1.5L41 1.5" stroke="black" stroke-dasharray="1 1"/>
<path d="M1.00049 0V3.33333M41.0002 0V3.33333" stroke="black"/>
<g clip-path="url(#clip0)">
<path d="M39.8333 6.83333C37.5 6.83333 36.8333 4.5 31.5833 4.5C29 4.5 26.75 5.16667 25.3333 6.16667C25.3333 6.16667 24.6667 6.66667 24.1667 6.66667C23.6667 6.66667 23.25 6 22.5833 6C21.9167 6 21 6 21 6C21 6 20.0833 6 19.4167 6C18.75 6 18.3333 6.66667 17.8333 6.66667C17.25 6.66667 16.6667 6.16667 16.6667 6.16667C15.25 5.16667 13 4.5 10.4167 4.5C5.16667 4.5 4.58333 6.83333 2.16667 6.83333C1.33333 6.83333 1 7 1 7.41667C1 7.83333 1 8.16667 1 8.58333C1 9 1.16667 9.08333 1.83333 9.08333C2.66667 9.08333 3.08333 9.75 3.25 10.9167C3.75 13.9167 5.41667 18.4167 10.5 18.4167C15.1667 18.4167 18.5833 14 18.6667 9.83333C18.6667 9.41667 18.25 9.58333 18.25 9C18.25 8.58333 18.5 8.25 18.8333 8.08333C19.3333 7.83333 20.1667 7.75 21 7.75C21.8333 7.75 22.6667 7.83333 23.1667 8.08333C23.5 8.25 23.75 8.58333 23.75 9C23.75 9.58333 23.3333 9.41667 23.3333 9.83333C23.4167 14 26.75 18.4167 31.5 18.4167C36.6667 18.4167 38.25 13.9167 38.75 10.9167C38.9167 9.75 39.3333 9.08333 40.1667 9.08333C40.75 9.08333 41 9 41 8.58333C41 8.16667 41 7.83333 41 7.41667C41 7 40.6667 6.83333 39.8333 6.83333ZM10.4167 17.5833C6.91667 17.5833 4.08333 14.4167 4.08333 10.4167C4.08333 6.41667 7.5 5.41667 10.3333 5.41667C13.1667 5.41667 17.25 6.33333 17.25 10.6667C17.25 15 14 17.5833 10.4167 17.5833ZM31.5833 17.5833C28.0833 17.5833 24.75 14.9167 24.75 10.5833C24.75 6.25 28.8333 5.33333 31.6667 5.33333C34.5 5.33333 37.9167 6.33333 37.9167 10.3333C37.9167 14.4167 35.0833 17.5833 31.5833 17.5833Z" fill="black"/>
</g>
<defs>
<clipPath id="clip0">
<rect width="40" height="13.9167" fill="white" transform="translate(1 4.5)"/>
</clipPath>
</defs>
</svg>
