<svg width="80" height="28" viewBox="0 0 80 28" fill="none" xmlns="http://www.w3.org/2000/svg">
<g clip-path="url(#clip0)">
<path d="M77.6667 4.66667C73 4.66667 71.6667 0 61.1667 0C56 0 51.5 1.33333 48.6667 3.33333C48.6667 3.33333 47.3333 4.33333 46.3333 4.33333C45.3333 4.33333 44.5 3 43.1667 3C41.8333 3 40 3 40 3C40 3 38.1667 3 36.8333 3C35.5 3 34.6667 4.33333 33.6667 4.33333C32.5 4.33333 31.3333 3.33333 31.3333 3.33333C28.5 1.33333 24 0 18.8333 0C8.33333 0 7.16667 4.66667 2.33333 4.66667C0.666667 4.66667 0 5 0 5.83333C0 6.66667 0 7.33333 0 8.16667C0 9 0.333333 9.16667 1.66667 9.16667C3.33333 9.16667 4.16667 10.5 4.5 12.8333C5.5 18.8333 8.83333 27.8333 19 27.8333C28.3333 27.8333 35.1667 19 35.3333 10.6667C35.3333 9.83333 34.5 10.1667 34.5 9C34.5 8.16667 35 7.5 35.6667 7.16667C36.6667 6.66667 38.3333 6.5 40 6.5C41.6667 6.5 43.3333 6.66667 44.3333 7.16667C45 7.5 45.5 8.16667 45.5 9C45.5 10.1667 44.6667 9.83333 44.6667 10.6667C44.8333 19 51.5 27.8333 61 27.8333C71.3333 27.8333 74.5 18.8333 75.5 12.8333C75.8333 10.5 76.6667 9.16667 78.3333 9.16667C79.5 9.16667 80 9 80 8.16667C80 7.33333 80 6.66667 80 5.83333C80 5 79.3333 4.66667 77.6667 4.66667ZM18.8333 26.1667C11.8333 26.1667 6.16667 19.8333 6.16667 11.8333C6.16667 3.83333 13 1.83333 18.6667 1.83333C24.3333 1.83333 32.5 3.66667 32.5 12.3333C32.5 21 26 26.1667 18.8333 26.1667ZM61.1667 26.1667C54.1667 26.1667 47.5 20.8333 47.5 12.1667C47.5 3.5 55.6667 1.66667 61.3333 1.66667C67 1.66667 73.8333 3.66667 73.8333 11.6667C73.8333 19.8333 68.1667 26.1667 61.1667 26.1667Z" fill="black"/>
</g>
<defs>
<clipPath id="clip0">
<rect width="80" height="27.8333" fill="white"/>
</clipPath>
</defs>
</svg>
