<svg width="40" height="13" viewBox="0 0 40 13" fill="none" xmlns="http://www.w3.org/2000/svg">
<g clip-path="url(#clip0)">
<path d="M39.1667 1.08333C38 0.666667 35.3333 0 30.75 0C24.75 0 22.75 1.41667 20 1.41667C17.25 1.41667 15.25 0 9.25 0C4.66667 0 2 0.666667 0.833333 1.08333C0.333333 1.25 0 1.75 0 2.25V4C0 4.33333 0.166667 4.66667 0.416667 4.91667C0.75 5.16667 1.16667 5.66667 1.41667 6.25C3 10 2.66667 12.75 9.75 12.75C16.8333 12.75 17.4167 9.16667 18 5.41667C18.25 3.41667 19.25 3.66667 20 3.66667C20.75 3.66667 21.75 3.41667 22 5.41667C22.5 9.16667 23.0833 12.75 30.25 12.75C37.4167 12.75 37.0833 10 38.5833 6.25C38.8333 5.66667 39.25 5.16667 39.5833 4.91667C39.8333 4.66667 40 4.33333 40 4V2.25C40 1.75 39.6667 1.25 39.1667 1.08333ZM9.66667 11.8333C4.16667 11.8333 2.91667 9.66667 2.91667 5.41667C2.91667 3.75 3 1.16667 9.41667 1.16667C15.8333 1.16667 16.8333 2.91667 16.8333 5.5C16.8333 8.16667 16.1667 11.8333 9.66667 11.8333ZM30.3333 11.8333C23.8333 11.8333 23.0833 8.16667 23.0833 5.58333C23.0833 3 24.0833 1.25 30.5 1.25C36.9167 1.25 37 3.83333 37 5.5C37.0833 9.66667 35.8333 11.8333 30.3333 11.8333Z" fill="black"/>
</g>
<defs>
<clipPath id="clip0">
<rect width="40" height="12.75" fill="white"/>
</clipPath>
</defs>
</svg>
