<svg width="24" height="22" viewBox="0 0 24 22" fill="none" xmlns="http://www.w3.org/2000/svg">
<path d="M17.1878 0V1.042H22.2183L19.3886 3.85541C18.1659 2.84814 16.6288 2.22294 14.952 2.22294C13.4148 2.22294 12.0175 2.74394 10.8996 3.57754C9.74673 2.74394 8.34935 2.22294 6.84716 2.22294C3.0393 2.22294 0 5.24475 0 8.99596C0 12.5388 2.75983 15.4911 6.28821 15.7342V17.853H3.66812V18.895H6.28821V21.5H7.33624V18.895H9.95633V17.853H7.33624V15.7342C8.66376 15.63 9.88646 15.1438 10.8646 14.4144C12.0175 15.248 13.4148 15.769 14.917 15.769C18.69 15.769 21.7293 12.7472 21.7293 8.99596C21.7293 7.32876 21.1004 5.76575 20.0873 4.58481L22.917 1.77141V6.77302H23.9651V0H17.1878ZM12.5764 8.99596C12.5764 10.5937 11.9127 12.0178 10.8646 13.0598C9.81659 12.0178 9.15284 10.5937 9.15284 8.99596C9.15284 7.39822 9.81659 5.97415 10.8646 4.93215C11.9127 5.97415 12.5764 7.39822 12.5764 8.99596ZM1.04803 8.99596C1.04803 5.83522 3.63319 3.26494 6.81223 3.26494C8.03493 3.26494 9.15284 3.64701 10.0611 4.27221C8.87336 5.48788 8.13974 7.15509 8.13974 8.99596C8.13974 10.8368 8.87336 12.504 10.0611 13.7197C9.1179 14.3449 8 14.727 6.81223 14.727C3.63319 14.727 1.04803 12.1567 1.04803 8.99596ZM14.952 14.727C13.7293 14.727 12.6114 14.3449 11.7031 13.7197C12.8908 12.504 13.6245 10.8368 13.6245 8.99596C13.6245 7.15509 12.8908 5.48788 11.7031 4.27221C12.6463 3.64701 13.7642 3.26494 14.952 3.26494C18.131 3.26494 20.7162 5.83522 20.7162 8.99596C20.7162 12.1567 18.131 14.727 14.952 14.727Z" fill="black"/>
</svg>
