<svg width="42" height="11" viewBox="0 0 42 11" fill="none" xmlns="http://www.w3.org/2000/svg">
<g clip-path="url(#clip0)">
<path d="M41.8121 1.12752H40.4027C40.1208 0.469799 39.4631 0 38.6174 0H25.651H24.1476H17.8523H17.2886H3.38255C2.63087 0 1.97315 0.469799 1.59732 1.12752H0.187919C0.0939597 1.12752 0 1.22148 0 1.31544V2.81879C0 2.91275 0.0939597 3.00671 0.187919 3.00671H1.12752C1.22148 3.00671 1.31544 3.10067 1.31544 3.19463V4.69799C1.31544 5.54362 1.78523 6.2953 2.53691 6.57718L13.1544 10.8054C13.3423 10.8993 13.6242 10.8993 13.8121 10.8993C14.3758 10.8993 15.0336 10.6174 15.3154 10.0537L19.0738 4.69799C19.2617 4.41611 19.3557 4.04027 19.3557 3.57047V1.50336C19.3557 1.31544 19.3557 1.12752 19.2617 0.939597H22.7383C22.6443 1.12752 22.6443 1.31544 22.6443 1.50336V3.57047C22.6443 3.94631 22.7383 4.32215 22.9262 4.60403L26.5906 10.0537C26.9664 10.6174 27.5302 10.8993 28.094 10.8993C28.2819 10.8993 28.5638 10.8993 28.7517 10.8054L39.4631 6.57718C40.2148 6.2953 40.6846 5.54362 40.6846 4.69799L40.5906 3.19463C40.5906 3.10067 40.6846 3.00671 40.7785 3.00671H41.7181C41.8121 3.00671 41.906 2.91275 41.906 2.81879V1.31544C42 1.22148 41.906 1.12752 41.8121 1.12752ZM18.4161 1.50336V3.57047C18.4161 3.75839 18.3221 3.94631 18.2282 4.13423L14.5638 9.58389C14.3758 9.95973 13.906 10.0537 13.5302 9.95973L2.91275 5.73154C2.53691 5.54362 2.25503 5.16779 2.25503 4.69799L2.34899 1.87919C2.34899 1.31544 2.81879 0.939597 3.38255 0.939597H17.1946H17.8523C18.1342 0.939597 18.4161 1.22148 18.4161 1.50336ZM39.0872 5.73154L28.4698 9.95973C28.094 10.1477 27.6242 9.95973 27.4362 9.58389L23.7718 4.13423C23.6779 3.94631 23.5839 3.75839 23.5839 3.57047V1.50336C23.5839 1.22148 23.8658 0.939597 24.1476 0.939597H25.651H38.6174C39.1812 0.939597 39.557 1.31544 39.651 1.87919L39.745 4.69799C39.745 5.16779 39.557 5.54362 39.0872 5.73154Z" fill="black"/>
</g>
<defs>
<clipPath id="clip0">
<rect width="42" height="10.9933" fill="white"/>
</clipPath>
</defs>
</svg>
