<svg width="56" height="53" viewBox="0 0 56 53" fill="none" xmlns="http://www.w3.org/2000/svg">
<g clip-path="url(#clip0)">
<path d="M55 14.9999H40.9C41.3 14.6999 41.7 14.2999 42 13.8999C43.6 11.9999 44.2 9.59995 43.8 7.29995C43.5 5.49995 42.7 3.89995 41.3 2.59995C40 1.29995 38.4 0.399948 36.6 0.0999479C34.4 -0.300052 32 0.399948 30.1 1.99995C29.2 2.69995 28.5 3.69995 28 4.59995C27.5 3.59995 26.8 2.69995 25.9 1.99995C24 0.399948 21.6 -0.200052 19.3 0.199948C17.5 0.499948 15.9 1.29995 14.6 2.69995C13.3 3.99995 12.4 5.59995 12.1 7.39995C11.7 9.69995 12.4 12.0999 13.9 13.9999C14.2 14.3999 14.6 14.7999 15 15.0999H1C0.4 15.0999 0 15.4999 0 16.0999V25.0999C0 25.6999 0.4 26.0999 1 26.0999H4.5V52.0999C4.5 52.6999 4.9 53.0999 5.5 53.0999H50.5C51.1 53.0999 51.5 52.6999 51.5 52.0999V25.9999H55C55.6 25.9999 56 25.5999 56 24.9999V15.9999C56 15.4999 55.6 14.9999 55 14.9999ZM31.4 3.49995C32.8 2.29995 34.6 1.79995 36.4 2.09995C37.8 2.29995 39 2.99995 40 3.99995C41 4.99995 41.7 6.29995 41.9 7.59995C42.2 9.39995 41.7 11.0999 40.5 12.5999C39.2 14.0999 37.3 14.9999 35.3 14.9999H29V8.59995C29 6.59995 29.9 4.79995 31.4 3.49995ZM15.5 12.5999C14.3 11.1999 13.8 9.39995 14.1 7.59995C14.3 6.29995 14.9 4.99995 16 3.99995C17 2.99995 18.3 2.29995 19.6 2.09995C20 1.99995 20.3 1.99995 20.6 1.99995C22 1.99995 23.4 2.49995 24.6 3.49995C26.1 4.79995 27 6.59995 27 8.59995V14.9999H20.6C18.6 14.9999 16.7 14.1999 15.5 12.5999ZM2 16.9999H20.6H27V23.9999H5.5H2V16.9999ZM6.5 25.9999H27V50.9999H6.5V25.9999ZM49.5 50.9999H29V25.9999H49.5V50.9999ZM54 23.9999H50.5H29V16.9999H35.4H54V23.9999Z" fill="black"/>
</g>
<defs>
<clipPath id="clip0">
<rect width="56" height="53" fill="white"/>
</clipPath>
</defs>
</svg>
