<svg width="10" height="10" viewBox="0 0 10 10" fill="none" xmlns="http://www.w3.org/2000/svg">
<path d="M0 9.5455H1.81818V4.09095H0V9.5455ZM10 4.5455C10 4.0455 9.59091 3.63641 9.09091 3.63641H6.22727L6.68182 1.5455C6.68182 1.50004 6.68182 1.45459 6.68182 1.40914C6.68182 1.22732 6.59091 1.0455 6.50002 0.909135L6 0.45459L3 3.45459C2.81818 3.59095 2.72727 3.81823 2.72727 4.09095V8.63641C2.72727 9.13641 3.13636 9.5455 3.63636 9.5455H7.72727C8.09091 9.5455 8.40909 9.31823 8.54545 9.00004L9.90909 5.77275C9.95455 5.68184 9.95455 5.54548 9.95455 5.45457V4.54548H10C10 4.59095 10 4.5455 10 4.5455Z" fill="black"/>
</svg>
