<svg width="40" height="11" viewBox="0 0 40 11" fill="none" xmlns="http://www.w3.org/2000/svg">
<g clip-path="url(#clip0)">
<path d="M38.4662 1.65176C38.3482 1.53377 38.1122 1.41577 37.1683 1.41577H24.7789C24.3069 1.41577 23.8349 1.41577 23.599 2.24173C23.481 2.94969 23.481 3.89365 23.481 5.07359C23.481 9.43937 25.1329 10.3833 32.2125 10.3833C36.4603 10.3833 38.7022 8.8494 38.7022 5.89955V2.71371C38.7022 2.12374 38.5842 1.76975 38.4662 1.65176Z" fill="#6A6A6A"/>
<path d="M15.2213 1.29785H2.94994C2.00599 1.29785 1.652 1.41585 1.652 1.53384C1.41602 1.76983 1.41602 2.12381 1.41602 2.71378V5.89962C1.41602 8.84947 3.6579 10.3834 7.90569 10.3834C14.9853 10.3834 16.6373 9.43945 16.6373 5.07366C16.6373 3.89372 16.6373 2.94977 16.5193 2.2418C16.1653 1.29785 15.6933 1.29785 15.2213 1.29785Z" fill="#6A6A6A"/>
<path d="M39.41 0.707965C38.8201 0.117994 37.9941 0 37.0501 0H24.7788C22.7729 0 22.1829 1.41593 22.0649 2.71386C21.4749 2.59587 20.767 2.47788 20.059 2.47788C19.351 2.47788 18.5251 2.59587 18.0531 2.71386C17.8171 1.41593 17.3451 0 15.2212 0H2.94985C2.12389 0 1.17994 0.117994 0.707965 0.707965C0.235988 1.17994 0 1.65192 0 2.59587C0 3.42183 0.117994 4.12979 0.58997 4.83776C0.825959 5.30973 1.06195 5.8997 1.06195 6.48968C1.29794 9.20354 3.65782 10.5015 7.78761 10.5015C15.1032 10.5015 16.8732 9.43953 16.8732 4.83776C16.8732 4.60177 17.4631 4.12979 17.8171 4.0118C18.4071 3.77581 19.115 3.65782 20.059 3.65782C21.0029 3.65782 21.7109 3.77581 22.3009 4.0118C22.6549 4.24779 23.2448 4.60177 23.2448 4.83776C23.2448 9.32153 25.0147 10.5015 32.3304 10.5015C36.4602 10.5015 38.8201 9.08555 39.056 6.48968C39.174 5.8997 39.41 5.30973 39.646 4.83776C40 4.12979 40.236 3.30383 40.236 2.59587C40 1.65192 39.882 1.17994 39.41 0.707965Z" fill="black"/>
<path d="M7.90554 9.91161C3.77575 9.91161 1.65186 8.49568 1.65186 5.78182V2.71397C1.65186 2.242 1.76985 1.88801 1.76985 1.88801C1.76985 1.88801 2.00584 1.77002 2.8318 1.77002H15.1032C15.5752 1.77002 15.8111 1.77002 16.0471 2.35999C16.1651 2.94996 16.1651 3.77592 16.1651 5.07385C16.2831 8.84967 15.2212 9.91161 7.90554 9.91161Z" fill="url(#paint0_linear)"/>
<path d="M38.3481 5.78172C38.3481 8.49559 36.3422 9.91152 32.0945 9.91152C24.7788 9.91152 23.5989 8.73158 23.5989 4.83777C23.5989 3.53984 23.5989 2.59588 23.7169 2.12391C23.9529 1.53394 24.1888 1.53394 24.6608 1.53394H36.9322C37.7582 1.53394 37.9942 1.65193 37.9942 1.65193C38.1122 1.76992 38.1121 2.12391 38.1121 2.47789V5.78172H38.3481Z" fill="url(#paint1_linear)"/>
</g>
<defs>
<linearGradient id="paint0_linear" x1="8.91264" y1="1.77002" x2="8.91264" y2="9.91161" gradientUnits="userSpaceOnUse">
<stop/>
<stop offset="1" stop-color="#6A6A6A"/>
</linearGradient>
<linearGradient id="paint1_linear" x1="30.9735" y1="1.53394" x2="30.9735" y2="9.91152" gradientUnits="userSpaceOnUse">
<stop/>
<stop offset="1" stop-color="#6A6A6A"/>
</linearGradient>
<clipPath id="clip0">
<rect width="40" height="10.5015" fill="white"/>
</clipPath>
</defs>
</svg>
