<svg width="55" height="11" viewBox="0 0 55 11" fill="none" xmlns="http://www.w3.org/2000/svg">
<path d="M49.095 3.04223L48.9938 3.07194C48.5999 2.31646 48.0373 1.71506 47.3058 1.26774C46.5857 0.820417 45.6798 0.596758 44.5883 0.596758C43.9806 0.596758 43.4011 0.711069 42.8497 0.939692C42.2984 1.15839 41.8145 1.47151 41.3981 1.87907C40.993 2.27669 40.6667 2.75881 40.4191 3.32541C40.1716 3.89202 40.0478 4.51827 40.0478 5.20416C40.0478 5.89005 40.1716 6.5163 40.4191 7.08291C40.6667 7.64952 40.993 8.1366 41.3981 8.54415C41.8145 8.94178 42.2984 9.24994 42.8497 9.46863C43.4011 9.68731 43.9806 9.79665 44.5883 9.79665C45.6686 9.79665 46.5463 9.64754 47.2214 9.34933C47.9079 9.04119 48.4874 8.57399 48.96 7.94774L49.0613 7.97746L49.0276 8.93175C48.7688 9.17032 48.4706 9.38404 48.1331 9.57289C47.7955 9.75182 47.4298 9.9059 47.0359 10.0351C46.6533 10.1544 46.2538 10.2439 45.8375 10.3035C45.4211 10.3732 45.0048 10.408 44.5884 10.408C43.722 10.408 42.8949 10.2837 42.1072 10.0352C41.3195 9.7867 40.6275 9.43878 40.0311 8.99146C39.4347 8.53421 38.9621 7.98748 38.6132 7.35129C38.2644 6.70516 38.09 5.98945 38.09 5.20415C38.09 4.41884 38.2644 3.7081 38.6132 3.07193C38.9621 2.42578 39.4347 1.87409 40.0311 1.41684C40.6275 0.959571 41.3195 0.611652 42.1072 0.37308C42.8949 0.124563 43.722 0.000305176 44.5884 0.000305176C45.0048 0.000305176 45.4211 0.0301249 45.8375 0.0897664C46.2538 0.149408 46.6533 0.243847 47.0359 0.37308C47.4298 0.492366 47.7955 0.646445 48.1331 0.83532C48.4706 1.01425 48.7688 1.223 49.0276 1.46157L49.095 3.04223Z" fill="black"/>
<path d="M11.8999 5.88965C11.7762 5.93929 11.658 6.00393 11.5454 6.08358C11.4328 6.16304 11.3765 6.27239 11.3765 6.41163V8.24564C10.8364 8.93154 10.1444 9.46335 9.3004 9.84108C8.45644 10.2188 7.52246 10.4077 6.49845 10.4077C5.63199 10.4077 4.80492 10.2835 4.01722 10.0349C3.22954 9.78641 2.53749 9.43849 1.94108 8.99117C1.34469 8.53392 0.872075 7.9872 0.523232 7.351C0.174411 6.70488 0 5.98916 0 5.20385C0 4.41855 0.174411 3.70781 0.523232 3.07163C0.872075 2.42549 1.34469 1.87379 1.94108 1.41654C2.53749 0.95927 3.22954 0.611349 4.01722 0.372779C4.80492 0.12426 5.63199 0 6.49845 0C6.91481 0 7.33117 0.0298232 7.74753 0.0894675C8.16387 0.14911 8.56334 0.243546 8.94594 0.372779C9.33978 0.492066 9.70549 0.646147 10.0431 0.835022C10.3807 1.01395 10.6789 1.2227 10.9377 1.46127L11.0053 3.04179L10.904 3.07151C10.5102 2.31602 9.94756 1.71462 9.21614 1.2673C8.49595 0.819976 7.5901 0.596313 6.49857 0.596313C5.89092 0.596313 5.31141 0.710628 4.76004 0.939253C4.20865 1.15795 3.72477 1.47107 3.30842 1.87863C2.90332 2.27625 2.57699 2.75837 2.32944 3.32498C2.08188 3.89159 1.95809 4.51784 1.95809 5.20373C1.95809 5.87968 2.07625 6.50095 2.31256 7.06756C2.56012 7.63417 2.88646 8.12126 3.29156 8.52883C3.7079 8.92644 4.19176 9.23957 4.74315 9.46821C5.29455 9.68689 5.87969 9.79623 6.49857 9.79623C7.66887 9.79623 8.67037 9.59742 9.50307 9.19981V6.4115C9.50307 6.27239 9.44121 6.16304 9.3175 6.08345C9.20491 6.00399 9.09237 5.93935 8.9799 5.88953L8.99534 5.81506C9.05153 5.82416 9.15281 5.83406 9.29916 5.84478C9.44552 5.85387 9.59743 5.86378 9.7549 5.87449C9.92369 5.87449 10.0812 5.87449 10.2275 5.87449C10.3739 5.87449 10.4808 5.87449 10.5482 5.87449C10.6157 5.87449 10.7058 5.87449 10.8184 5.87449C10.9421 5.87449 11.0715 5.87449 11.2066 5.87449C11.3416 5.8654 11.471 5.85549 11.5948 5.84478C11.7185 5.83568 11.8142 5.82578 11.8817 5.81506L11.8999 5.88965Z" fill="black"/>
<path d="M24.1256 0.0744829C24.013 0.124126 23.9005 0.188768 23.7881 0.268413C23.6755 0.347875 23.6136 0.496983 23.6025 0.715736C23.5922 0.954305 23.581 1.25749 23.5688 1.6253C23.5688 1.98315 23.5637 2.39071 23.5534 2.84796C23.5534 3.30523 23.5482 3.80225 23.538 4.33904C23.538 4.87582 23.538 5.43249 23.538 6.00905C23.5277 6.65517 23.4376 7.20687 23.2678 7.66414C23.099 8.12139 22.8739 8.50409 22.5926 8.81225C22.3226 9.12041 22.0188 9.36396 21.6812 9.54289C21.3548 9.72181 21.0285 9.85601 20.7022 9.94547C20.3871 10.0449 20.0889 10.1046 19.8076 10.1244C19.5263 10.1542 19.3068 10.1691 19.1493 10.1691C18.5079 10.1691 17.889 10.0946 17.2926 9.94547C16.6962 9.80637 16.1729 9.57774 15.7228 9.25957C15.2727 8.94148 14.9127 8.52896 14.6426 8.02199C14.3725 7.51503 14.2375 6.89872 14.2375 6.17306C14.2375 5.5965 14.2375 5.03487 14.2375 4.48815C14.2375 3.93148 14.2375 3.41457 14.2375 2.93742C14.2375 2.46028 14.2323 2.03284 14.222 1.65511C14.222 1.26743 14.2169 0.954305 14.2066 0.715736C14.1963 0.497038 14.1345 0.34793 14.021 0.268413C13.9084 0.188951 13.7959 0.124308 13.6835 0.0744829L13.6989 2.28623e-05C13.7551 0.00911741 13.8452 0.0190213 13.9691 0.0297369C14.1041 0.0388314 14.2391 0.0487374 14.3742 0.0594529C14.5205 0.0594529 14.6612 0.0639989 14.7962 0.0730934C14.9312 0.0730934 15.0325 0.0730934 15.1 0.0730934C15.1675 0.0730934 15.2688 0.0730934 15.4038 0.0730934C15.5388 0.0639989 15.6795 0.0594529 15.8258 0.0594529C15.9721 0.0503578 16.1072 0.0404519 16.2309 0.0297369C16.3659 0.0206418 16.4615 0.0107378 16.5177 2.28623e-05L16.5331 0.0744829C16.4094 0.124126 16.2913 0.188768 16.1787 0.268413C16.0774 0.347875 16.0211 0.496983 16.0098 0.715736C15.9995 0.954305 15.9883 1.26743 15.9761 1.65511C15.9761 2.03284 15.9761 2.46028 15.9761 2.93742C15.9761 3.41457 15.9761 3.93148 15.9761 4.48815C15.9761 5.03487 15.9761 5.5965 15.9761 6.17306C15.9761 7.25657 16.2631 8.05678 16.837 8.57367C17.4109 9.09058 18.2604 9.34904 19.3857 9.34904C19.712 9.34904 20.0834 9.31421 20.4997 9.24457C20.9161 9.16511 21.3043 9.00606 21.6644 8.76744C22.0357 8.52887 22.3452 8.19089 22.5928 7.75352C22.8516 7.31613 22.981 6.73461 22.981 6.00897C22.981 5.22366 22.9758 4.55268 22.9655 3.99602C22.9655 3.42941 22.9604 2.9473 22.9501 2.54967C22.9501 2.14212 22.9449 1.7942 22.9347 1.50591C22.9244 1.21764 22.9131 0.954226 22.901 0.715654C22.8907 0.496956 22.8289 0.347848 22.7154 0.268331C22.6028 0.188869 22.4903 0.124225 22.3779 0.074399L22.3933 -6.10352e-05C22.517 0.0197491 22.6577 0.0396606 22.8153 0.0596719C22.9727 0.068767 23.119 0.0733144 23.2541 0.0733144C23.3778 0.0733144 23.5185 0.068767 23.6761 0.0596719C23.8449 0.0398624 23.9912 0.0199508 24.115 -6.10352e-05L24.1256 0.0744829Z" fill="black"/>
<path d="M36.3733 3.04223L36.272 3.07194C35.8782 2.31646 35.3155 1.71506 34.5841 1.26774C33.8639 0.820417 32.9581 0.596758 31.8666 0.596758C31.2589 0.596758 30.6794 0.711069 30.128 0.939692C29.5766 1.15839 29.0927 1.47151 28.6764 1.87907C28.2713 2.27669 27.945 2.75881 27.6974 3.32541C27.4498 3.89202 27.326 4.51827 27.326 5.20416C27.326 5.89005 27.4498 6.5163 27.6974 7.08291C27.945 7.64952 28.2713 8.1366 28.6764 8.54415C29.0927 8.94178 29.5766 9.24994 30.128 9.46863C30.6794 9.68731 31.2589 9.79665 31.8666 9.79665C32.9468 9.79665 33.8246 9.64754 34.4997 9.34933C35.1861 9.04119 35.7656 8.57399 36.2383 7.94774L36.3395 7.97746L36.3059 8.93175C36.0471 9.17032 35.7489 9.38404 35.4113 9.57289C35.0737 9.75182 34.708 9.9059 34.3141 10.0351C33.9315 10.1544 33.5321 10.2439 33.1157 10.3035C32.6994 10.3732 32.283 10.408 31.8667 10.408C31.0002 10.408 30.1731 10.2837 29.3854 10.0352C28.5977 9.7867 27.9057 9.43878 27.3093 8.99146C26.7129 8.53421 26.2403 7.98748 25.8914 7.35129C25.5426 6.70516 25.3682 5.98945 25.3682 5.20415C25.3682 4.41884 25.5426 3.7081 25.8914 3.07193C26.2403 2.42578 26.7129 1.87409 27.3093 1.41684C27.9057 0.959571 28.5977 0.611652 29.3854 0.37308C30.1731 0.124563 31.0002 0.000305176 31.8667 0.000305176C32.283 0.000305176 32.6994 0.0301249 33.1157 0.0897664C33.5321 0.149408 33.9315 0.243847 34.3141 0.37308C34.708 0.492366 35.0737 0.646445 35.4113 0.83532C35.7489 1.01425 36.0471 1.223 36.3059 1.46157L36.3733 3.04223Z" fill="black"/>
<path d="M54.1827 10.1655C54.1265 10.1564 54.0308 10.1465 53.8958 10.1357C53.7721 10.1357 53.6371 10.1312 53.4907 10.1221C53.3443 10.1221 53.2037 10.1176 53.0687 10.1085C52.945 10.1085 52.8494 10.1085 52.7819 10.1085C52.7143 10.1085 52.6131 10.1085 52.478 10.1085C52.343 10.1085 52.2023 10.1085 52.056 10.1085C51.921 10.1176 51.786 10.1275 51.6509 10.1382C51.5272 10.1473 51.4316 10.1572 51.3641 10.1679L51.3486 10.1081C51.4612 10.0585 51.5738 9.99387 51.6862 9.91422C51.7988 9.83476 51.8607 9.68565 51.8718 9.4669C51.8821 9.22833 51.8872 8.97982 51.8872 8.72138C51.8975 8.46291 51.9027 8.16966 51.9027 7.84163C51.9027 7.51359 51.9027 7.14082 51.9027 6.72333C51.9027 6.2959 51.9027 5.79391 51.9027 5.21735C51.9027 4.6408 51.9027 4.13881 51.9027 3.71138C51.9027 3.28394 51.9027 2.9062 51.9027 2.57816C51.9027 2.25013 51.8975 1.96185 51.8872 1.71333C51.8872 1.45489 51.8821 1.20638 51.8718 0.967805C51.8615 0.749111 51.7996 0.600003 51.6862 0.520483C51.5736 0.431019 51.4611 0.361468 51.3486 0.311828L51.3641 0.252091C51.4316 0.271901 51.5272 0.286813 51.6509 0.296825C51.786 0.296825 51.921 0.301373 52.056 0.310468C52.2024 0.319562 52.3431 0.32411 52.478 0.32411C52.6131 0.32411 52.7143 0.32411 52.7819 0.32411C52.8494 0.32411 52.945 0.32411 53.0687 0.32411C53.2037 0.315016 53.3444 0.310468 53.4907 0.310468C53.6371 0.301373 53.7721 0.291467 53.8958 0.280752C54.0308 0.271656 54.1265 0.261753 54.1827 0.251038L54.1981 0.310768C54.0744 0.360411 53.9562 0.429966 53.8436 0.519429C53.7424 0.598894 53.6861 0.748 53.6747 0.966749C53.6644 1.20532 53.6532 1.45383 53.6411 1.71228C53.6411 1.96079 53.6411 2.24907 53.6411 2.57711C53.6411 2.90514 53.6411 3.28288 53.6411 3.71033C53.6411 4.13775 53.6411 4.63974 53.6411 5.2163C53.6411 5.79285 53.6411 6.29484 53.6411 6.72227C53.6411 7.13977 53.6411 7.51254 53.6411 7.84057C53.6411 8.16861 53.6411 8.46186 53.6411 8.72032C53.6514 8.97877 53.6626 9.22728 53.6747 9.46585C53.685 9.68454 53.7413 9.83365 53.8436 9.91317C53.9562 9.99263 54.0744 10.0573 54.1981 10.1071L54.1827 10.1655Z" fill="black"/>
</svg>
