<svg width="18" height="16" viewBox="0 0 18 16" fill="#000000" xmlns="http://www.w3.org/2000/svg">
<path d="M8.69616 1.95451L9.04875 2.3052L9.40135 1.95451C10.3242 1.03665 11.5082 0.5 12.7688 0.5C15.4275 0.5 17.5871 2.59067 17.4973 5.18268L17.497 5.19134V5.2C17.497 6.47487 17.0418 7.6441 16.1375 8.54422C16.1371 8.54464 16.1367 8.54507 16.1362 8.54549L9.04416 15.5C9.02061 15.5 9.00081 15.4999 8.98022 15.4989C8.9686 15.4984 8.9584 15.4977 8.94956 15.4968L1.86072 8.54549C1.86033 8.5451 1.85993 8.54471 1.85954 8.54431C0.955155 7.64418 0.5 6.47492 0.5 5.2C0.5 2.59097 2.67408 0.5 5.32871 0.5C6.58928 0.5 7.77333 1.03665 8.69616 1.95451Z" stroke="black"/>
</svg>
