<svg width="37" height="37" viewBox="0 0 37 37" fill="none" xmlns="http://www.w3.org/2000/svg">
<g clip-path="url(#clip0)">
<path d="M18.2 11.5H11.5V25.5H13.5V13.5H18.2C18.9 13.5 19.5 14.1 19.5 14.8V21.5H21.5V14.8C21.5 13 20 11.5 18.2 11.5Z" fill="#1D1D1B"/>
<path d="M15.5 15.5V22.2C15.5 24 17 25.5 18.8 25.5H25.5V11.5H23.5V23.5H18.8C18.1 23.5 17.5 22.9 17.5 22.2V15.5H15.5Z" fill="#1D1D1B"/>
<path d="M31.6 5.39997C24.7 -1.50003 13.7 -1.80003 6.5 4.49997V0.999973H4.5V7.99997H11.5V5.99997H7.8C14.3 0.399973 24 0.699974 30.2 6.79997C36.6 13.2 36.6 23.7 30.2 30.1C23.8 36.5 13.3 36.5 6.9 30.1C3.7 27 2 22.9 2 18.5V17.5H0V18.5C0 23.4 1.9 28.1 5.4 31.6C9 35.2 13.8 37 18.5 37C23.2 37 28 35.2 31.6 31.6C38.8 24.4 38.8 12.6 31.6 5.39997Z" fill="#1D1D1B"/>
</g>
<defs>
<clipPath id="clip0">
<rect width="37" height="37" fill="white"/>
</clipPath>
</defs>
</svg>
