<svg width="37" height="37" viewBox="0 0 37 37" fill="none" xmlns="http://www.w3.org/2000/svg">
<path d="M37 18.5C37 18.2 36.9 18 36.7 17.8L34.3 15.4L35.6 12.2C35.8 11.7 35.6 11.1 35.1 10.9L31.9 9.6V6.1C31.9 5.5 31.5 5.1 30.9 5.1H27.5L26.1 2C25.9 1.5 25.3 1.2 24.8 1.5L21.6 2.8L19.2 0.4C19 0.1 18.8 0 18.5 0C18.2 0 18 0.1 17.8 0.3L15.4 2.7L12.2 1.4C11.7 1.2 11.1 1.4 10.9 1.9L9.6 5.1H6.1C5.5 5.1 5.1 5.5 5.1 6.1V9.5L1.9 10.8C1.4 11 1.1 11.6 1.4 12.1L2.7 15.3L0.3 17.7C-0.1 18.1 -0.1 18.7 0.3 19.1L2.7 21.5L1.4 24.7C1.2 25.2 1.4 25.8 1.9 26L5.1 27.3V30.7C5.1 31.3 5.5 31.7 6.1 31.7H9.5L10.8 34.9C11 35.4 11.6 35.7 12.1 35.4L15.3 34.1L17.7 36.5C17.9 36.7 18.2 36.8 18.4 36.8C18.6 36.8 18.9 36.7 19.1 36.5L21.5 34.1L24.7 35.4C25.2 35.6 25.8 35.4 26 34.9L27.3 31.7H30.7C31.3 31.7 31.7 31.3 31.7 30.7V27.3L34.9 26C35.4 25.8 35.7 25.2 35.4 24.7L34.1 21.5L36.5 19.1C36.9 19 37 18.8 37 18.5ZM32.4 20.7C32.1 21 32 21.4 32.2 21.8L33.4 24.7L30.5 25.9C30.1 26.1 29.9 26.4 29.9 26.8V29.9H26.8C26.4 29.9 26 30.1 25.9 30.5L24.7 33.4L21.8 32.2C21.4 32 21 32.1 20.7 32.4L18.5 34.6L16.3 32.4C16.1 32.2 15.9 32.1 15.6 32.1C15.5 32.1 15.3 32.1 15.2 32.2L12.3 33.4L11.1 30.5C10.9 30.1 10.6 29.9 10.2 29.9H7.1V26.8C7.1 26.4 6.9 26 6.5 25.9L3.6 24.7L4.8 21.8C5 21.4 4.9 21 4.6 20.7L2.4 18.5L4.6 16.3C4.9 16 5 15.6 4.8 15.2L3.6 12.3L6.5 11.1C6.9 10.9 7.1 10.6 7.1 10.2V7.1H10.2C10.6 7.1 11 6.9 11.1 6.5L12.3 3.6L15.2 4.8C15.6 5 16 4.9 16.3 4.6L18.5 2.4L20.7 4.6C21 4.9 21.4 5 21.8 4.8L24.7 3.6L25.9 6.5C26.1 6.9 26.4 7.1 26.8 7.1H29.9V10.2C29.9 10.6 30.1 11 30.5 11.1L33.4 12.3L32.2 15.2C32 15.6 32.1 16 32.4 16.3L34.6 18.5L32.4 20.7Z" fill="#1D1D1B"/>
<path d="M18.5 7.5C12.4 7.5 7.5 12.4 7.5 18.5C7.5 24.6 12.4 29.5 18.5 29.5C24.6 29.5 29.5 24.6 29.5 18.5C29.5 12.4 24.6 7.5 18.5 7.5ZM18.5 27.5C13.5 27.5 9.5 23.4 9.5 18.5C9.5 13.6 13.6 9.5 18.5 9.5C23.4 9.5 27.5 13.5 27.5 18.5C27.5 23.5 23.5 27.5 18.5 27.5Z" fill="#1D1D1B"/>
<path d="M17.1 20.2002L14.3 17.4002L12.9 18.8002L17.1 23.0002L24 16.1002L22.6 14.7002L17.1 20.2002Z" fill="#1D1D1B"/>
</svg>
