<svg width="34" height="37" viewBox="0 0 34 37" fill="none" xmlns="http://www.w3.org/2000/svg">
<g clip-path="url(#clip0)">
<path d="M32.8 6.2999L17.1 0.0999023C16.9 -9.76548e-05 16.6 -9.76548e-05 16.4 0.0999023L0.6 6.2999C0.3 6.3999 0 6.7999 0 7.1999C0 24.5999 6.2 31.4999 16.3 36.8999C16.4 36.9999 16.6 36.9999 16.8 36.9999C17 36.9999 17.1 36.9999 17.3 36.8999C27.3 31.4999 33.6 24.5999 33.6 7.1999C33.5 6.7999 33.2 6.3999 32.8 6.2999ZM16.7 34.8999C7.5 29.7999 2.2 23.5999 2 7.8999L16.7 2.0999L31.4 7.8999C31.3 23.5999 26 29.7999 16.7 34.8999Z" fill="#1D1D1B"/>
<path d="M6.69998 11.0999C6.39998 17.4999 10.4 25.6999 15.4 29.4999L17 30.6999V6.3999L6.69998 10.4999V11.0999ZM15.1 9.3999V26.4999C11.5 22.8999 8.79998 16.7999 8.69998 11.8999L15.1 9.3999Z" fill="#1D1D1B"/>
</g>
<defs>
<clipPath id="clip0">
<rect width="33.5" height="37" fill="white"/>
</clipPath>
</defs>
</svg>
