<svg width="14" height="14" viewBox="0 0 14 14" fill="none" xmlns="http://www.w3.org/2000/svg">
<mask id="path-1-inside-1" fill="white">
<path d="M14 13.4302L9.36047 8.7907C10.1744 7.89535 10.6628 6.67442 10.6628 5.37209C10.5814 2.36046 8.22093 0 5.2907 0C2.36047 0 0 2.36047 0 5.2907C0 8.22093 2.36047 10.5814 5.2907 10.5814C6.59302 10.5814 7.81395 10.093 8.7093 9.27907L13.3488 13.9186L14 13.4302ZM5.2907 9.76744C2.84884 9.76744 0.813953 7.73256 0.813953 5.2907C0.813953 2.84884 2.84884 0.813953 5.2907 0.813953C7.73256 0.813953 9.76744 2.84884 9.76744 5.2907C9.76744 7.73256 7.73256 9.76744 5.2907 9.76744Z"/>
</mask>
<path d="M14 13.4302L14.6 14.2302L15.5224 13.5384L14.7071 12.7231L14 13.4302ZM9.36047 8.7907L8.62052 8.11802L7.97912 8.82357L8.65336 9.4978L9.36047 8.7907ZM10.6628 5.37209H11.6628V5.35858L11.6624 5.34508L10.6628 5.37209ZM8.7093 9.27907L9.41641 8.57196L8.74217 7.89773L8.03663 8.53913L8.7093 9.27907ZM13.3488 13.9186L12.6417 14.6257L13.255 15.239L13.9488 14.7186L13.3488 13.9186ZM14.7071 12.7231L10.0676 8.08359L8.65336 9.4978L13.2929 14.1373L14.7071 12.7231ZM10.1004 9.46337C11.0822 8.38336 11.6628 6.92239 11.6628 5.37209H9.66279C9.66279 6.42645 9.2666 7.40734 8.62052 8.11802L10.1004 9.46337ZM11.6624 5.34508C11.5671 1.81719 8.78765 -1 5.2907 -1V1C7.65421 1 9.59571 2.90374 9.66316 5.39911L11.6624 5.34508ZM5.2907 -1C1.80818 -1 -1 1.80818 -1 5.2907H1C1 2.91275 2.91275 1 5.2907 1V-1ZM-1 5.2907C-1 8.77321 1.80818 11.5814 5.2907 11.5814V9.5814C2.91275 9.5814 1 7.66864 1 5.2907H-1ZM5.2907 11.5814C6.84099 11.5814 8.30196 11.0008 9.38197 10.019L8.03663 8.53913C7.32594 9.18521 6.34506 9.5814 5.2907 9.5814V11.5814ZM8.0022 9.98618L12.6417 14.6257L14.0559 13.2115L9.41641 8.57196L8.0022 9.98618ZM13.9488 14.7186L14.6 14.2302L13.4 12.6302L12.7488 13.1186L13.9488 14.7186ZM5.2907 8.76744C3.40112 8.76744 1.81395 7.18027 1.81395 5.2907H-0.186047C-0.186047 8.28484 2.29655 10.7674 5.2907 10.7674V8.76744ZM1.81395 5.2907C1.81395 3.40112 3.40112 1.81395 5.2907 1.81395V-0.186047C2.29655 -0.186047 -0.186047 2.29655 -0.186047 5.2907H1.81395ZM5.2907 1.81395C7.18027 1.81395 8.76744 3.40112 8.76744 5.2907H10.7674C10.7674 2.29655 8.28484 -0.186047 5.2907 -0.186047V1.81395ZM8.76744 5.2907C8.76744 7.18027 7.18027 8.76744 5.2907 8.76744V10.7674C8.28484 10.7674 10.7674 8.28484 10.7674 5.2907H8.76744Z" fill="#888888" mask="url(#path-1-inside-1)"/>
</svg>
