<svg width="43" height="31" viewBox="0 0 43 31" fill="none" xmlns="http://www.w3.org/2000/svg">
<g clip-path="url(#clip0)">
<path d="M20.6 9.6001H2V11.6001H20.6V9.6001Z" fill="#1D1D1B"/>
<path d="M18.6 14.3999H0V16.3999H18.6V14.3999Z" fill="#1D1D1B"/>
<path d="M41.3 23.8V16.2C41.3 15.6 41.1 15 40.8 14.5V14.4H40.7C40.6 14.3 40.6 14.2 40.5 14.1L33.7 7C33.1 6.4 32.3 6 31.5 6H28.5V3.6C28.6 1.6 27 0 25 0H8.5C6.5 0 4.9 1.6 4.9 3.6V4.9H0V6.9H4.9H6.9H18.7V4.9H6.9V3.6C6.9 2.7 7.6 2 8.5 2H25C25.9 2 26.6 2.7 26.6 3.6V6V8V14.5V16.5V23.9H24.3H15.1C14.3 21.9 12.4 20.5 10.2 20.5C9 20.5 7.8 20.9 6.9 21.7V17.7H4.9V25.9C5 28.7 7.3 31 10.2 31C13.1 31 15.4 28.7 15.5 25.8H24.3H28.6C28.7 28.7 31 31 33.9 31C36.8 31 39.1 28.7 39.2 25.8H41.5H42.8V23.8H41.3ZM10.2 29C8.4 29 6.9 27.5 6.9 25.7C6.9 23.9 8.4 22.4 10.2 22.4C12 22.4 13.5 23.9 13.5 25.7C13.5 27.5 12 29 10.2 29ZM28.6 8H31.6C31.9 8 32.2 8.1 32.4 8.3L38.1 14.4H28.7V8H28.6ZM33.8 29C32 29 30.5 27.5 30.5 25.7C30.5 23.9 32 22.4 33.8 22.4C35.6 22.4 37 24 37 25.8C37 27.6 35.6 29 33.8 29ZM39 23.8H38.6C37.8 21.8 35.9 20.4 33.7 20.4C31.5 20.4 29.6 21.8 28.8 23.8H28.5V16.4H39.2V23.8H39Z" fill="#1D1D1B"/>
</g>
<defs>
<clipPath id="clip0">
<rect width="42.6" height="31" fill="white"/>
</clipPath>
</defs>
</svg>
