<svg width="12" height="12" viewBox="0 0 12 12" fill="none" xmlns="http://www.w3.org/2000/svg">
<path d="M9.10003 3.6002C9.48662 3.6002 9.80002 3.28679 9.80002 2.9002C9.80002 2.5136 9.48662 2.2002 9.10003 2.2002C8.71343 2.2002 8.40002 2.5136 8.40002 2.9002C8.40002 3.28679 8.71343 3.6002 9.10003 3.6002Z" fill="black"/>
<path d="M6.00002 2.8999C4.30002 2.8999 2.90002 4.2999 2.90002 5.9999C2.90002 7.6999 4.30002 9.0999 6.00002 9.0999C7.70002 9.0999 9.10002 7.6999 9.10002 5.9999C9.10002 4.2999 7.70002 2.8999 6.00002 2.8999ZM6.00002 7.8999C5.00002 7.8999 4.10002 6.9999 4.10002 5.9999C4.10002 4.9999 5.00002 4.0999 6.00002 4.0999C7.00002 4.0999 7.90002 4.9999 7.90002 5.9999C7.90002 6.9999 7.00002 7.8999 6.00002 7.8999Z" fill="black"/>
<path d="M8.4 0H3.6C1.6 0 0 1.6 0 3.6V8.5C0 10.5 1.6 12.1 3.6 12.1H8.5C10.5 12.1 12.1 10.5 12.1 8.5V3.6C12 1.6 10.4 0 8.4 0ZM10.8 8.4C10.8 9.7 9.7 10.8 8.4 10.8H3.6C2.3 10.8 1.2 9.7 1.2 8.4V3.6C1.2 2.3 2.3 1.2 3.6 1.2H8.5C9.8 1.2 10.9 2.3 10.9 3.6V8.4H10.8Z" fill="black"/>
</svg>
