<svg width="30" height="30" viewBox="0 0 30 30" fill="none" xmlns="http://www.w3.org/2000/svg">
<path d="M15 7.5C10.9 7.5 7.5 10.9 7.5 15C7.5 19.1 10.9 22.5 15 22.5C19.1 22.5 22.5 19.1 22.5 15C22.5 10.9 19.1 7.5 15 7.5ZM15 20.5C12 20.5 9.5 18 9.5 15C9.5 12 12 9.5 15 9.5C18 9.5 20.5 12 20.5 15C20.5 18 18 20.5 15 20.5Z" fill="#BCBEC0"/>
<path d="M21 0H9C4 0 0 4 0 9V21C0 26 4 30 9 30H21C26 30 30 26 30 21V9C30 4 26 0 21 0ZM28 21C28 24.9 24.9 28 21 28H9C5.1 28 2 24.9 2 21V9C2 5.1 5.1 2 9 2H21C24.9 2 28 5.1 28 9V21Z" fill="#BCBEC0"/>
<path d="M22.6 4.70001C21.9 4.70001 21.3 5.30001 21.3 6.00001C21.3 6.70001 21.9 7.30001 22.6 7.30001C23.3001 7.30001 23.9 6.70001 23.9 6.00001C23.9 5.30001 23.3001 4.70001 22.6 4.70001Z" fill="#BCBEC0"/>
</svg>
