<svg width="36" height="28" viewBox="0 0 36 28" fill="none" xmlns="http://www.w3.org/2000/svg">
<g clip-path="url(#clip0)">
<path d="M32.8 6.3H32V3.1C32 1.4 30.6 0 28.9 0H3.1C1.4 0 0 1.4 0 3.1V24.9C0 26.6 1.4 28 3.1 28H32.8C34.5 28 35.9 26.6 35.9 24.9V9.4C35.9 7.7 34.5 6.3 32.8 6.3ZM33.9 24.9C33.9 25.5 33.4 26 32.8 26H3.1C2.5 26 2 25.5 2 24.9V3.1C2 2.5 2.5 2 3.1 2H28.9C29.5 2 30 2.5 30 3.1V23.2C30 23.8 30.4 24.2 31 24.2C31.6 24.2 32 23.8 32 23.2V8.3H32.8C33.4 8.3 33.9 8.8 33.9 9.4V24.9Z" fill="#BCBEC0"/>
<path d="M10.5 11.7H21.4C22 11.7 22.4 11.3 22.4 10.7V4C22.4 3.4 22 3 21.4 3H10.5C9.9 3 9.5 3.4 9.5 4V10.8C9.5 11.3 10 11.7 10.5 11.7ZM11.5 5H20.4V9.8H11.5V5Z" fill="#BCBEC0"/>
<path d="M10.4 15.5H21.6C22.2 15.5 22.6 15.1 22.6 14.5C22.6 13.9 22.2 13.5 21.6 13.5H10.4C9.79999 13.5 9.39999 13.9 9.39999 14.5C9.39999 15.1 9.79999 15.5 10.4 15.5Z" fill="#BCBEC0"/>
<path d="M14.6 18H4.29999C3.69999 18 3.29999 18.4 3.29999 19C3.29999 19.6 3.69999 20 4.29999 20H14.6C15.2 20 15.6 19.6 15.6 19C15.6 18.4 15.2 18 14.6 18Z" fill="#BCBEC0"/>
<path d="M14.6 21.5H4.29999C3.69999 21.5 3.29999 21.9 3.29999 22.5C3.29999 23.1 3.69999 23.5 4.29999 23.5H14.6C15.2 23.5 15.6 23.1 15.6 22.5C15.6 21.9 15.2 21.5 14.6 21.5Z" fill="#BCBEC0"/>
<path d="M27.7 18H17.4C16.8 18 16.4 18.4 16.4 19C16.4 19.6 16.8 20 17.4 20H27.7C28.3 20 28.7 19.6 28.7 19C28.7 18.4 28.2 18 27.7 18Z" fill="#BCBEC0"/>
<path d="M27.7 21.5H17.4C16.8 21.5 16.4 21.9 16.4 22.5C16.4 23.1 16.8 23.5 17.4 23.5H27.7C28.3 23.5 28.7 23.1 28.7 22.5C28.7 21.9 28.2 21.5 27.7 21.5Z" fill="#BCBEC0"/>
</g>
<defs>
<clipPath id="clip0">
<rect width="35.9" height="28" fill="white"/>
</clipPath>
</defs>
</svg>
