<svg width="117" height="12" viewBox="0 0 117 12" fill="none" xmlns="http://www.w3.org/2000/svg">
<path d="M5.95898 4.98998C3.21725 4.25209 2.69634 4.13981 2.69634 3.25781C2.69634 2.29486 3.58471 1.95788 4.35068 1.95788C5.49945 1.95788 6.4339 2.31113 6.51052 3.69063H8.83897C8.83897 1.04359 6.74039 0.000610353 4.4578 0.000610353C2.48179 0.000565548 0.368063 1.12406 0.368063 3.46602C0.368063 5.6156 2.00712 6.27356 3.63057 6.72274C5.23926 7.17191 6.87832 7.38075 6.87832 8.61589C6.87832 9.78719 5.59156 10.0436 4.7491 10.0436C3.46235 10.0436 2.32867 9.44976 2.32867 7.92611H0.000309468C-0.0304507 10.7496 2.23669 12.0008 4.65708 12.0008C7.62863 12.0008 9.20677 10.4285 9.20677 8.32712C9.20672 5.72793 6.75558 5.19878 5.95898 4.98998Z" fill="#121722"/>
<path d="M20.6642 11.7269H23.0691V0.272705H20.6642V11.7269Z" fill="#121722"/>
<path d="M37.2689 11.727H39.6738V2.39053H42.9519V0.272766H31.8614V7.95677H31.831L27.2659 0.272766H24.8765V11.727H27.128V4.05885H27.1588L31.7084 11.727H34.1133V2.39053H37.2689V11.727Z" fill="#121722"/>
<path d="M13.082 7.29912L14.5066 3.09581H14.5372L15.9157 7.29912H13.082ZM13.3118 0.272766L9.1604 11.727H11.596L12.4539 9.17623H16.5438L17.371 11.727H19.8679L15.7777 0.272766H13.3118Z" fill="#121722"/>
<path d="M91.6334 6.80219H96.9322V4.84487H91.6334V2.39053H97.4078V0.272766H89.2278V11.727H97.5306V9.60968H91.6334V6.80219Z" fill="#121722"/>
<path d="M108.161 0.272766H105.909V7.95677H105.879L101.313 0.272766H98.9246V11.727H101.175V4.05885H101.207L105.756 11.727H108.161V2.39053H111.317V11.727H113.722V2.39053H117V0.272766H108.161Z" fill="#121722"/>
<path d="M83.4382 5.45435H80.8036V2.22959H83.4382C84.5098 2.22959 85.0923 2.71107 85.0923 3.8182C85.0923 4.9731 84.5098 5.45435 83.4382 5.45435ZM85.7665 6.33693V6.30431C86.9769 5.79098 87.4971 4.78071 87.4971 3.43261C87.4971 1.70044 86.2564 0.272766 84.296 0.272766H78.3981V11.727H80.8037V7.25131H83.2077C84.4189 7.25131 84.8625 7.78069 85.0308 8.98402C85.1537 9.89841 85.1227 11.0049 85.4138 11.727H87.8195C87.3902 11.0855 87.4053 9.73751 87.3591 9.01583C87.2833 7.86066 86.9458 6.65751 85.7665 6.33693Z" fill="#121722"/>
<path d="M76.6371 7.12264V0H74.2311V7.12264C74.2311 8.82353 73.6806 9.60933 71.9647 9.60933C70.019 9.60933 69.7127 8.37387 69.7127 7.12264V0H67.3083V7.12264C67.3083 10.2349 69.0237 11.727 71.9647 11.727C74.8904 11.727 76.6371 10.2189 76.6371 7.12264Z" fill="#121722"/>
<path d="M60.1543 7.29912L61.5792 3.09581H61.61L62.9881 7.29912H60.1543ZM60.3841 0.272766L56.2329 11.727H58.6683L59.5268 9.17623H63.6167L64.4432 11.727H66.9406L62.8506 0.272766H60.3841Z" fill="#121722"/>
<path d="M50.2587 0.272766H47.8539V11.727H55.5895V9.60968H50.2587V0.272766" fill="#121722"/>
<path d="M5.95898 4.98998C3.21725 4.25209 2.69634 4.13981 2.69634 3.25781C2.69634 2.29486 3.58471 1.95788 4.35068 1.95788C5.49945 1.95788 6.4339 2.31113 6.51052 3.69063H8.83897C8.83897 1.04359 6.74039 0.000610353 4.4578 0.000610353C2.48179 0.000565548 0.368063 1.12406 0.368063 3.46602C0.368063 5.6156 2.00712 6.27356 3.63057 6.72274C5.23926 7.17191 6.87832 7.38075 6.87832 8.61589C6.87832 9.78719 5.59156 10.0436 4.7491 10.0436C3.46235 10.0436 2.32867 9.44976 2.32867 7.92611H0.000309468C-0.0304507 10.7496 2.23669 12.0008 4.65708 12.0008C7.62863 12.0008 9.20677 10.4285 9.20677 8.32712C9.20672 5.72793 6.75558 5.19878 5.95898 4.98998Z" fill="#121722"/>
<path d="M20.6642 11.7269H23.0691V0.272705H20.6642V11.7269Z" fill="#121722"/>
<path d="M37.2689 11.727H39.6738V2.39053H42.9519V0.272766H31.8614V7.95677H31.831L27.2659 0.272766H24.8765V11.727H27.128V4.05885H27.1588L31.7084 11.727H34.1133V2.39053H37.2689V11.727Z" fill="#121722"/>
<path d="M13.082 7.29912L14.5066 3.09581H14.5372L15.9157 7.29912H13.082ZM13.3118 0.272766L9.1604 11.727H11.596L12.4539 9.17623H16.5438L17.371 11.727H19.8679L15.7777 0.272766H13.3118Z" fill="#121722"/>
<path d="M91.6334 6.80219H96.9322V4.84487H91.6334V2.39053H97.4078V0.272766H89.2278V11.727H97.5306V9.60968H91.6334V6.80219Z" fill="#121722"/>
<path d="M108.161 0.272766H105.909V7.95677H105.879L101.313 0.272766H98.9246V11.727H101.175V4.05885H101.207L105.756 11.727H108.161V2.39053H111.317V11.727H113.722V2.39053H117V0.272766H108.161Z" fill="#121722"/>
<path d="M83.4382 5.45435H80.8036V2.22959H83.4382C84.5098 2.22959 85.0923 2.71107 85.0923 3.8182C85.0923 4.9731 84.5098 5.45435 83.4382 5.45435ZM85.7665 6.33693V6.30431C86.9769 5.79098 87.4971 4.78071 87.4971 3.43261C87.4971 1.70044 86.2564 0.272766 84.296 0.272766H78.3981V11.727H80.8037V7.25131H83.2077C84.4189 7.25131 84.8625 7.78069 85.0308 8.98402C85.1537 9.89841 85.1227 11.0049 85.4138 11.727H87.8195C87.3902 11.0855 87.4053 9.73751 87.3591 9.01583C87.2833 7.86066 86.9458 6.65751 85.7665 6.33693Z" fill="#121722"/>
<path d="M76.6371 7.12264V0H74.2311V7.12264C74.2311 8.82353 73.6806 9.60933 71.9647 9.60933C70.019 9.60933 69.7127 8.37387 69.7127 7.12264V0H67.3083V7.12264C67.3083 10.2349 69.0237 11.727 71.9647 11.727C74.8904 11.727 76.6371 10.2189 76.6371 7.12264Z" fill="#121722"/>
<path d="M60.1543 7.29912L61.5792 3.09581H61.61L62.9881 7.29912H60.1543ZM60.3841 0.272766L56.2329 11.727H58.6683L59.5268 9.17623H63.6167L64.4432 11.727H66.9406L62.8506 0.272766H60.3841Z" fill="#121722"/>
<path d="M50.2587 0.272766H47.8539V11.727H55.5895V9.60968H50.2587V0.272766" fill="#121722"/>
</svg>
