<svg width="33" height="33" viewBox="0 0 33 33" fill="none" xmlns="http://www.w3.org/2000/svg">
<path d="M31.8 16.1125C32.5 15.5125 32.9 14.6125 32.9 13.6125C32.9 11.7125 31.3 10.1125 29.4 10.1125H21.9C22.2 9.1125 22.4 7.7125 22.4 5.9125C22.4 4.3125 22.2 2.2125 20.8 1.0125C19.7 0.1125 18.2 -0.1875 16 0.1125C15.5 0.2125 15.2 0.6125 15.1 1.1125C15.1 1.1125 15.1 4.9125 14.7 6.8125C14.3 8.6125 11.9 11.2125 10 12.9125V11.9125C10 11.3125 9.6 10.9125 9 10.9125H1C0.4 10.9125 0 11.3125 0 11.9125V29.9125C0 30.5125 0.4 30.9125 1 30.9125H9C9.6 30.9125 10 30.5125 10 29.9125V28.7125L12.4 31.0125C13.1 31.7125 14.1 32.1125 15.2 32.1125H25.4C27.3 32.1125 28.9 30.5125 28.9 28.6125C28.9 28.0125 28.7 27.4125 28.5 26.9125C29.9 26.5125 30.9 25.1125 30.9 23.6125C30.9 23.0125 30.7 22.4125 30.5 21.9125C31.9 21.5125 32.9 20.1125 32.9 18.6125C32.9 17.6125 32.4 16.7125 31.8 16.1125ZM8 28.9125H2V12.9125H8V28.9125ZM29.4 20.1125H27.6C27.6 20.1125 27.6 20.1125 27.5 20.1125H27.4H26.6C26 20.1125 25.6 20.5125 25.6 21.1125C25.6 21.7125 26 22.1125 26.6 22.1125H27.4C28.2 22.1125 28.9 22.8125 28.9 23.6125C28.9 24.4125 28.2 25.1125 27.4 25.1125H25.4H25.2H24.9C24.3 25.1125 23.9 25.5125 23.9 26.1125C23.9 26.7125 24.3 27.1125 24.9 27.1125H25.2H25.4C26.2 27.1125 26.9 27.8125 26.9 28.6125C26.9 29.4125 26.2 30.1125 25.4 30.1125H15.2C14.7 30.1125 14.2 29.9125 13.8 29.5125L10 25.9125V15.6125C11.4 14.4125 16.1 10.4125 16.7 7.3125C17 5.7125 17.1 3.3125 17.1 2.0125C18.2 1.9125 18.9 2.1125 19.4 2.5125C20 3.0125 20.3 4.1125 20.3 5.9125C20.3 8.9125 19.5 10.7125 19.5 10.7125C19.3 11.0125 19.4 11.4125 19.6 11.7125C19.8 12.0125 20.1 12.2125 20.4 12.2125H29.3C30.1 12.2125 30.8 12.9125 30.8 13.7125C30.8 14.5125 30.1 15.2125 29.3 15.2125H26.8C26.2 15.2125 25.8 15.6125 25.8 16.2125C25.8 16.8125 26.2 17.2125 26.8 17.2125H29.3C30.1 17.2125 30.8 17.9125 30.8 18.7125C30.8 19.5125 30.2 20.1125 29.4 20.1125Z" fill="#BCBEC0"/>
</svg>
