<svg width="805" height="472" viewBox="0 0 805 472" fill="none" xmlns="http://www.w3.org/2000/svg">
<path d="M167.5 400.5C77.5 337 72.5 174 81 80.4999C146 3.99994 282.5 22.4999 352.5 22.4999C422.5 22.4999 577.5 63.9999 599 80.4999C616.2 93.6999 662.833 120.333 684 132V234C664 275 614.7 365.7 577.5 400.5C540.3 435.3 445.333 449.333 402.5 452C354.167 456 239.5 451.3 167.5 400.5Z" fill="#555455"/>
<path d="M273 2C622 2 669.3 140.3 805 115V179C805 179 727.8 153.5 698.7 220.7C636 365 584 465 361 465C147 465 84.7 347 67.7 225C50.7 103 0 95 0 62C0 29 48 2 273 2ZM369.3 441.7C622 441.7 672 239 672 173C672 79 413.3 31 265.3 31C117.3 31 92 96.3 92 173C92 249.7 114 441.7 369.3 441.7Z" fill="#E8E8E8"/>
</svg>
