<svg width="176" height="36" viewBox="0 0 176 36" fill="none" xmlns="http://www.w3.org/2000/svg">
<g clip-path="url(#clip0)">
<path d="M143.829 19.8854L138.114 11.7711C137.829 11.3711 137.372 11.1426 136.914 11.1426H133.543V24.8569H136.972V16.114L142.686 24.2283C142.972 24.6283 143.429 24.8569 143.886 24.8569H147.257V11.1426H143.829V19.8854Z" fill="#808285"/>
<path d="M175.657 11.1426H172.229V24.8569H175.657V11.1426Z" fill="#808285"/>
<path d="M122.343 11.1426H119.714C119.086 11.1426 118.514 11.5426 118.343 12.114L113.714 24.8569H117.371L121.086 14.7426L124.8 24.8569H128.457L123.829 12.114C123.543 11.5426 122.971 11.1426 122.343 11.1426Z" fill="#808285"/>
<path d="M159.714 21.2569L156 11.1426H152.343L156.971 23.8854C157.2 24.4569 157.771 24.8569 158.343 24.8569H160.971C161.6 24.8569 162.171 24.4569 162.343 23.8854L166.971 11.1426H163.429L159.714 21.2569Z" fill="#808285"/>
<path d="M105.2 17.4858L108.571 11.7144C108.914 11.143 108.914 10.4572 108.571 9.88581L104.914 3.6001L101.429 9.6001L96.2858 18.5144L94.5144 21.6001L92.6858 18.4001L88.8001 25.0858C88.6287 25.3715 88.6287 25.7715 88.8001 26.1144L94.5144 36.0001L100.743 25.2001L104.914 32.4001L108.571 26.1144C108.914 25.543 108.914 24.8572 108.571 24.2858L105.2 18.5144C105.029 18.1715 105.029 17.8287 105.2 17.4858Z" fill="#808285"/>
<path d="M92.9715 17.1429L94.5144 14.4L96.3429 17.6L100.229 10.9143C100.4 10.6286 100.4 10.2286 100.229 9.94286L94.5144 0L88.2858 10.8L84.1144 3.6L80.4572 9.88571C80.1144 10.4571 80.1144 11.1429 80.4572 11.7143L83.8286 17.4857C84.0001 17.7714 84.0001 18.1714 83.8286 18.4571L80.4572 24.2286C80.1144 24.8 80.1144 25.4857 80.4572 26.0571L84.1144 32.3429L87.8858 25.8286L92.9715 17.1429Z" fill="#808285"/>
<path d="M4.00001 14.1143C4.74287 14.1143 5.48573 14.2857 6.1143 14.5714V16.1143C5.65716 15.7143 4.9143 15.5428 4.22859 15.5428C2.9143 15.5428 1.60001 16.2857 1.60001 18.1143C1.60001 19.7714 2.9143 20.5143 4.22859 20.5143C4.97144 20.5143 5.7143 20.2857 6.17144 19.8857V21.4857C5.54287 21.7714 4.80001 21.9428 4.00001 21.9428C2.00001 21.9428 -0.0571289 20.7428 -0.0571289 18.1143C1.39587e-05 15.3714 2.00001 14.1143 4.00001 14.1143Z" fill="#808285"/>
<path d="M8.51428 21.7714V14.2285H11.6C13.0286 14.2285 14.5714 14.7999 14.5714 16.6857C14.5714 17.9428 13.8286 18.6285 12.9143 18.9142L15.1429 21.7142H13.3143L11.3143 19.0857H10.1143V21.7142H8.51428V21.7714ZM10.1143 17.7714H11.6571C12.3429 17.7714 12.9143 17.4857 12.9143 16.6857C12.9143 15.9428 12.3429 15.5999 11.6571 15.5999H10.1143V17.7714Z" fill="#808285"/>
<path d="M22.4001 14.2285V15.6571H18.7429V17.2571H22.1144V18.6857H18.7429V20.3428H22.4572V21.7714H17.1429V14.2285H22.4001Z" fill="#808285"/>
<path d="M24.0571 21.7718L27.1428 14.2861H28.8571L31.8857 21.7718H30.2286L29.6571 20.3433H26.2286L25.6571 21.7718H24.0571ZM26.8 19.029H29.2L28.1714 16.3433C28.1143 16.1718 28.0571 16.0576 28 15.7718C27.9428 16.0576 27.8857 16.229 27.8286 16.3433L26.8 19.029Z" fill="#808285"/>
<path d="M38.4572 14.2285V15.6571H36.1715V21.7142H34.5715V15.7142H32.2858V14.2857H38.4572V14.2285Z" fill="#808285"/>
<path d="M45.7714 14.2285V15.6571H42.1143V17.2571H45.4857V18.6857H42.1143V20.3428H45.8286V21.7714H40.4572V14.2285H45.7714Z" fill="#808285"/>
<path d="M50.9714 14.2285C53.6571 14.2285 54.9142 15.8285 54.9142 17.9999C54.9142 20.1714 53.6571 21.7714 50.9714 21.7714H48.1714V14.2285H50.9714ZM50.9714 15.6571H49.7714V20.3428H50.9714C52.4571 20.3428 53.2571 19.5428 53.2571 17.9999C53.2571 16.4571 52.4571 15.6571 50.9714 15.6571Z" fill="#808285"/>
<path d="M63.9428 14.2285C65.5428 14.2285 66.5143 14.8571 66.5143 16.1142C66.5143 16.9714 66.0571 17.5428 65.3714 17.7714C66.1143 17.9999 66.8 18.5142 66.8 19.6571C66.8 21.3714 65.1428 21.7714 63.8285 21.7714H60.6285V14.2285H63.9428ZM63.9428 18.5142H62.2285V20.4571H63.8285C64.5714 20.4571 65.2 20.2857 65.2 19.4857C65.2 18.6857 64.5714 18.5142 63.9428 18.5142ZM63.8285 15.5428H62.2857V17.2571H63.8857C64.5143 17.2571 64.9143 16.9714 64.9143 16.3999C64.9143 15.8285 64.5143 15.5428 63.8285 15.5428Z" fill="#808285"/>
<path d="M70.8572 21.7718V19.1433L67.9429 14.2861H69.7714L71.7143 17.6576L73.6572 14.2861H75.4857L72.5714 19.1433V21.7718H70.8572Z" fill="#808285"/>
</g>
<defs>
<clipPath id="clip0">
<rect width="175.657" height="36" fill="white"/>
</clipPath>
</defs>
</svg>
