<svg width="25" height="25" viewBox="0 0 25 25" fill="none" xmlns="http://www.w3.org/2000/svg">
<path d="M20 2.4V0H5V2.4H0V8.9C0 10.8 1.6 12.4 3.5 12.4H5.3C6.1 15 8.6 17 11.5 17H12V20H8.5C7.1 20 6 21.1 6 22.5V25H19V22.5C19 21.1 17.9 20 16.5 20H13V17H13.5C16.4 17 18.9 15.1 19.7 12.4H21.5C23.4 12.4 25 10.8 25 8.9V2.4H20ZM18 22.5V24H7V22.5C7 21.7 7.7 21 8.5 21H16.5C17.3 21 18 21.7 18 22.5ZM5 11.4H3.5C2.1 11.4 1 10.3 1 8.9V3.4H5V10.5V11.4ZM13.5 16H11.5C8.5 16 6 13.5 6 10.5V2.4V1H19V2.4V10.5C19 13.5 16.5 16 13.5 16ZM24 8.9C24 10.3 22.9 11.4 21.5 11.4H20V10.5V3.4H24V8.9Z" fill="#1D1D1B"/>
<path d="M12.7 6.5V9.4H13.7V6.5C13.7 5.7 13 5 12.2 5H9.29999V11H10.3V6H12.2C12.5 6 12.7 6.2 12.7 6.5Z" fill="#1D1D1B"/>
<path d="M14.3 10H12.4C12.2 10 12 9.8 12 9.5V6.7H11V9.6C11 10.4 11.7 11.1 12.5 11.1H15.4V5H14.4V10H14.3Z" fill="#1D1D1B"/>
</svg>
