<svg width="83" height="34" viewBox="0 0 83 34" fill="none" xmlns="http://www.w3.org/2000/svg">
<g clip-path="url(#clip0)">
<path d="M77.6667 10.6667C73 10.6667 71.6667 6 61.1667 6C56 6 51.5 7.33333 48.6667 9.33333C48.6667 9.33333 47.3333 10.3333 46.3333 10.3333C45.3333 10.3333 44.5 9 43.1667 9C41.8333 9 40 9 40 9C40 9 38.1667 9 36.8333 9C35.5 9 34.6667 10.3333 33.6667 10.3333C32.5 10.3333 31.3333 9.33333 31.3333 9.33333C28.5 7.33333 24 6 18.8333 6C8.33333 6 7.16667 10.6667 2.33333 10.6667C0.666667 10.6667 0 11 0 11.8333C0 12.6667 0 13.3333 0 14.1667C0 15 0.333333 15.1667 1.66667 15.1667C3.33333 15.1667 4.16667 16.5 4.5 18.8333C5.5 24.8333 8.83333 33.8333 19 33.8333C28.3333 33.8333 35.1667 25 35.3333 16.6667C35.3333 15.8333 34.5 16.1667 34.5 15C34.5 14.1667 35 13.5 35.6667 13.1667C36.6667 12.6667 38.3333 12.5 40 12.5C41.6667 12.5 43.3333 12.6667 44.3333 13.1667C45 13.5 45.5 14.1667 45.5 15C45.5 16.1667 44.6667 15.8333 44.6667 16.6667C44.8333 25 51.5 33.8333 61 33.8333C71.3333 33.8333 74.5 24.8333 75.5 18.8333C75.8333 16.5 76.6667 15.1667 78.3333 15.1667C79.5 15.1667 80 15 80 14.1667C80 13.3333 80 12.6667 80 11.8333C80 11 79.3333 10.6667 77.6667 10.6667ZM18.8333 32.1667C11.8333 32.1667 6.16667 25.8333 6.16667 17.8333C6.16667 9.83333 13 7.83333 18.6667 7.83333C24.3333 7.83333 32.5 9.66667 32.5 18.3333C32.5 27 26 32.1667 18.8333 32.1667ZM61.1667 32.1667C54.1667 32.1667 47.5 26.8333 47.5 18.1667C47.5 9.5 55.6667 7.66667 61.3333 7.66667C67 7.66667 73.8333 9.66667 73.8333 17.6667C73.8333 25.8333 68.1667 32.1667 61.1667 32.1667Z" fill="black"/>
</g>
<circle cx="73" cy="10" r="9.5" fill="#F8F8F8" stroke="black"/>
<circle cx="73" cy="10" r="7" fill="url(#paint0_angular)"/>
<defs>
<radialGradient id="paint0_angular" cx="0" cy="0" r="1" gradientUnits="userSpaceOnUse" gradientTransform="translate(73 10) rotate(90) scale(7)">
<stop stop-color="#D0D1D2"/>
<stop offset="0.130208" stop-color="#D0D1D2" stop-opacity="0"/>
<stop offset="0.25" stop-color="#D0D1D2"/>
<stop offset="0.546875" stop-color="#D0D1D2" stop-opacity="0"/>
<stop offset="0.6875" stop-color="#D0D1D2"/>
<stop offset="0.911458" stop-color="#D0D1D2" stop-opacity="0"/>
<stop offset="1" stop-color="#D0D1D2"/>
</radialGradient>
<clipPath id="clip0">
<rect width="80" height="27.8333" fill="white" transform="translate(0 6)"/>
</clipPath>
</defs>
</svg>
