<svg width="600" height="116" viewBox="0 0 600 116" fill="none" xmlns="http://www.w3.org/2000/svg">
<g clip-path="url(#clip0)">
<path d="M599.209 0.791992H0.791992V114.776H599.209V0.791992Z" stroke="#1D1D1B" stroke-miterlimit="10"/>
<path d="M29.2881 15.04V29.2881" stroke="#1D1D1B" stroke-miterlimit="10"/>
<path d="M43.5352 15.04V29.2881" stroke="#1D1D1B" stroke-miterlimit="10"/>
<path d="M57.7832 15.04V29.2881" stroke="#1D1D1B" stroke-miterlimit="10"/>
<path d="M72.0312 15.04V29.2881" stroke="#1D1D1B" stroke-miterlimit="10"/>
<path d="M15.04 15.04V43.5361" stroke="#1D1D1B" stroke-miterlimit="10"/>
<path d="M100.527 15.04V29.2881" stroke="#1D1D1B" stroke-miterlimit="10"/>
<path d="M114.775 15.04V29.2881" stroke="#1D1D1B" stroke-miterlimit="10"/>
<path d="M129.023 15.04V29.2881" stroke="#1D1D1B" stroke-miterlimit="10"/>
<path d="M143.271 15.04V29.2881" stroke="#1D1D1B" stroke-miterlimit="10"/>
<path d="M86.2793 15.04V43.5361" stroke="#1D1D1B" stroke-miterlimit="10"/>
<path d="M171.768 15.04V29.2881" stroke="#1D1D1B" stroke-miterlimit="10"/>
<path d="M186.016 15.04V29.2881" stroke="#1D1D1B" stroke-miterlimit="10"/>
<path d="M200.264 15.04V29.2881" stroke="#1D1D1B" stroke-miterlimit="10"/>
<path d="M214.512 15.04V29.2881" stroke="#1D1D1B" stroke-miterlimit="10"/>
<path d="M157.52 15.04V43.5361" stroke="#1D1D1B" stroke-miterlimit="10"/>
<path d="M243.008 15.04V29.2881" stroke="#1D1D1B" stroke-miterlimit="10"/>
<path d="M257.256 15.04V29.2881" stroke="#1D1D1B" stroke-miterlimit="10"/>
<path d="M271.504 15.04V29.2881" stroke="#1D1D1B" stroke-miterlimit="10"/>
<path d="M285.752 15.04V29.2881" stroke="#1D1D1B" stroke-miterlimit="10"/>
<path d="M228.76 15.04V43.5361" stroke="#1D1D1B" stroke-miterlimit="10"/>
<path d="M314.248 15.04V29.2881" stroke="#1D1D1B" stroke-miterlimit="10"/>
<path d="M328.496 15.04V29.2881" stroke="#1D1D1B" stroke-miterlimit="10"/>
<path d="M342.744 15.04V29.2881" stroke="#1D1D1B" stroke-miterlimit="10"/>
<path d="M356.992 15.04V29.2881" stroke="#1D1D1B" stroke-miterlimit="10"/>
<path d="M300 15.04V43.5361" stroke="#1D1D1B" stroke-miterlimit="10"/>
<path d="M385.488 15.04V29.2881" stroke="#1D1D1B" stroke-miterlimit="10"/>
<path d="M399.736 15.04V29.2881" stroke="#1D1D1B" stroke-miterlimit="10"/>
<path d="M413.984 15.04V29.2881" stroke="#1D1D1B" stroke-miterlimit="10"/>
<path d="M428.232 15.04V29.2881" stroke="#1D1D1B" stroke-miterlimit="10"/>
<path d="M371.24 15.04V43.5361" stroke="#1D1D1B" stroke-miterlimit="10"/>
<path d="M456.729 15.04V29.2881" stroke="#1D1D1B" stroke-miterlimit="10"/>
<path d="M470.977 15.04V29.2881" stroke="#1D1D1B" stroke-miterlimit="10"/>
<path d="M485.225 15.04V29.2881" stroke="#1D1D1B" stroke-miterlimit="10"/>
<path d="M499.473 15.04V29.2881" stroke="#1D1D1B" stroke-miterlimit="10"/>
<path d="M442.48 15.04V43.5361" stroke="#1D1D1B" stroke-miterlimit="10"/>
<path d="M527.969 15.04V29.2881" stroke="#1D1D1B" stroke-miterlimit="10"/>
<path d="M542.217 15.04V29.2881" stroke="#1D1D1B" stroke-miterlimit="10"/>
<path d="M556.465 15.04V29.2881" stroke="#1D1D1B" stroke-miterlimit="10"/>
<path d="M570.713 15.04V29.2881" stroke="#1D1D1B" stroke-miterlimit="10"/>
<path d="M513.721 15.04V43.5361" stroke="#1D1D1B" stroke-miterlimit="10"/>
<path d="M584.961 15.04V43.5361" stroke="#1D1D1B" stroke-miterlimit="10"/>
<path d="M36.4121 86.2793C40.3466 86.2793 43.5361 83.0897 43.5361 79.1553C43.5361 75.2208 40.3466 72.0312 36.4121 72.0312C32.4776 72.0312 29.2881 75.2208 29.2881 79.1553C29.2881 83.0897 32.4776 86.2793 36.4121 86.2793Z" stroke="#1D1D1B" stroke-miterlimit="10"/>
</g>
<defs>
<clipPath id="clip0">
<rect width="600" height="115.567" fill="white"/>
</clipPath>
</defs>
</svg>
