<svg width="18" height="18" viewBox="0 0 18 18" fill="none" xmlns="http://www.w3.org/2000/svg">
<g clip-path="url(#clip0)">
<path d="M15.6404 8.1254L14.7609 6.92217C14.7057 6.8449 14.7021 6.73819 14.7573 6.66092L15.6183 5.44665C15.6956 5.33626 15.6588 5.18172 15.541 5.11916L14.2274 4.41636C14.1428 4.3722 14.0949 4.27653 14.1133 4.18086L14.3599 2.7127C14.3819 2.58024 14.2826 2.45513 14.1464 2.45145L12.6599 2.3889C12.5642 2.38522 12.4796 2.31898 12.4538 2.22699L12.0417 0.791947C12.0049 0.663161 11.8614 0.593249 11.7363 0.648443L10.3675 1.23718C10.2792 1.27398 10.1762 1.2519 10.1099 1.18199L9.11643 0.0744245C9.02444 -0.0249248 8.86989 -0.0249248 8.7779 0.0781041L7.79913 1.20038C7.73657 1.27398 7.63355 1.29605 7.54523 1.25926L6.16906 0.692598C6.04396 0.641084 5.90413 0.710996 5.86733 0.839782L5.47362 2.27483C5.44786 2.36682 5.36691 2.43305 5.27124 2.44041L3.78468 2.52504C3.64853 2.5324 3.55286 2.65751 3.57494 2.78997L3.84355 4.25446C3.86195 4.35013 3.81412 4.4458 3.73316 4.48995L2.43058 5.21115C2.31284 5.27739 2.27972 5.43193 2.35699 5.53864L3.23642 6.74187C3.29161 6.81914 3.29529 6.92585 3.2401 7.00312L2.37907 8.21739C2.3018 8.32778 2.33859 8.48232 2.45634 8.54487L3.76996 9.24768C3.85459 9.29183 3.90243 9.3875 3.88403 9.48317L3.63749 10.9513C3.61542 11.0838 3.71477 11.2089 3.85091 11.2126L5.33747 11.2751C5.43314 11.2788 5.51777 11.3451 5.54353 11.437L5.95932 12.8684C5.99612 12.9972 6.13963 13.0671 6.26473 13.0119L7.63354 12.4232C7.72186 12.3864 7.82488 12.4085 7.89112 12.4784L8.88461 13.5859C8.9766 13.6853 9.13114 13.6853 9.22313 13.5823L10.2019 12.46C10.2645 12.3864 10.3675 12.3643 10.4558 12.4011L11.832 12.9678C11.9571 13.0193 12.0969 12.9494 12.1337 12.8206L12.5274 11.3855C12.5532 11.2935 12.6341 11.2273 12.7298 11.2199L14.2164 11.1353C14.3525 11.128 14.4482 11.0029 14.4261 10.8704L14.1575 9.4059C14.1391 9.31023 14.1869 9.21456 14.2679 9.17041L15.5705 8.44921C15.6882 8.39033 15.7213 8.23579 15.6404 8.1254ZM9.00236 10.8741C6.7762 10.8741 4.96215 9.06002 4.96215 6.83386C4.96215 4.6077 6.7762 2.79365 9.00236 2.79365C11.2285 2.79365 13.0426 4.6077 13.0426 6.83386C13.0426 9.0637 11.2285 10.8741 9.00236 10.8741Z" fill="black"/>
<path d="M12.6416 13.4866C12.4282 13.7037 12.1302 13.8325 11.81 13.8325C11.696 13.8325 11.5819 13.8141 11.4752 13.7846L10.5259 13.4976L9.79362 14.1673C9.76787 14.1894 9.74579 14.2115 9.72003 14.2299L10.8975 17.88C10.938 18.0088 11.1036 18.0382 11.1882 17.9315L12.0455 16.8313C12.086 16.7761 12.1596 16.754 12.2222 16.7724L13.5579 17.1625C13.6866 17.1993 13.8044 17.0779 13.7639 16.9527L12.6416 13.4866Z" fill="black"/>
<path d="M7.48255 13.4976L6.53321 13.7846C6.42282 13.8177 6.31243 13.8325 6.19836 13.8325C5.87824 13.8325 5.58387 13.7037 5.36677 13.4866L4.24449 16.9565C4.20402 17.0852 4.32177 17.203 4.45055 17.1662L5.78625 16.7761C5.85248 16.7578 5.92239 16.7798 5.96287 16.835L6.82022 17.9352C6.90117 18.0419 7.07043 18.0125 7.11091 17.8837L8.28838 14.2335C8.26262 14.2151 8.23686 14.1931 8.21479 14.171L7.48255 13.4976Z" fill="black"/>
<path d="M11.3977 5.82972L9.87436 5.71933L9.30034 4.30636C9.19363 4.04143 8.81463 4.04143 8.70792 4.30636L8.1339 5.71933L6.61055 5.82972C6.32354 5.8518 6.20947 6.20872 6.42657 6.3927L7.593 7.37883L7.22872 8.86171C7.15881 9.14136 7.46422 9.36214 7.70707 9.21128L9.00229 8.40544L10.2975 9.21128C10.5404 9.36214 10.8458 9.14136 10.7759 8.86171L10.4116 7.37883L11.578 6.3927C11.7988 6.20872 11.6847 5.8518 11.3977 5.82972Z" fill="black"/>
</g>
<defs>
<clipPath id="clip0">
<rect width="18" height="18" fill="white"/>
</clipPath>
</defs>
</svg>
