<svg width="19" height="28" viewBox="0 0 19 28" fill="none" xmlns="http://www.w3.org/2000/svg">
<path d="M19 9.13369C19 4.10267 14.7328 0 9.5 0C4.26721 0 0 4.10267 0 9.13369C0 13.8053 3.67541 17.6984 8.40984 18.2075V21.5615H3.89344V23.6578H8.40984V28H10.5902V23.6578H15.1066V21.5615H10.5902V18.2075C15.3246 17.6984 19 13.8053 19 9.13369ZM2.18033 9.13369C2.18033 5.24064 5.45082 2.09626 9.5 2.09626C13.5492 2.09626 16.8197 5.24064 16.8197 9.13369C16.8197 13.0267 13.5492 16.1711 9.5 16.1711C5.45082 16.1711 2.18033 13.0267 2.18033 9.13369Z" fill="#1D1D1B"/>
</svg>
