<svg width="571" height="166" viewBox="0 0 571 166" fill="none" xmlns="http://www.w3.org/2000/svg">
<path d="M434.666 16.8048H433.37V9.63731H431.954L426.151 16.8739V18.1347H431.816V20H433.37V18.1347H434.666V16.8048ZM431.868 11.7789V16.8048H427.844L431.868 11.7789ZM439.91 9.46459C437.51 9.46459 435.852 11.0017 435.852 13.0915C435.852 15.1641 437.475 16.4767 439.41 16.4767C439.945 16.4767 440.394 16.3731 440.774 16.2003L437.648 19.9309V20H439.617L442.898 15.9758C443.572 15.1123 443.952 14.1969 443.952 13.0915C443.952 11.0017 442.311 9.46459 439.91 9.46459ZM439.91 15.3886C438.494 15.3886 437.458 14.4041 437.458 13.0915C437.458 11.7962 438.494 10.829 439.91 10.829C441.309 10.829 442.363 11.7962 442.363 13.0915C442.363 14.4041 441.309 15.3886 439.91 15.3886ZM446.363 15.4922H452.84V14.1451H446.363V15.4922ZM458.444 9.63731L454.782 13.3506L455.766 14.266L457.925 11.9862V20H459.549V9.63731H458.444ZM468.198 14.4041C469.165 13.9551 469.735 13.1606 469.735 12.1934C469.735 10.6045 468.267 9.48187 466.195 9.48187C464.105 9.48187 462.637 10.6045 462.637 12.1934C462.637 13.1606 463.224 13.9551 464.174 14.4041C462.878 14.905 462.049 15.8895 462.049 17.133C462.049 18.9292 463.777 20.2073 466.195 20.2073C468.612 20.2073 470.322 18.9292 470.322 17.133C470.322 15.8895 469.511 14.905 468.198 14.4041ZM466.212 10.7254C467.403 10.7254 468.25 11.4162 468.25 12.3661C468.25 13.2815 467.403 13.9551 466.212 13.9551C465.02 13.9551 464.122 13.2815 464.122 12.3661C464.122 11.4162 465.02 10.7254 466.212 10.7254ZM466.212 18.9119C464.692 18.9119 463.638 18.1002 463.638 16.943C463.638 15.8204 464.709 14.9914 466.212 14.9914C467.697 14.9914 468.733 15.8204 468.733 16.943C468.733 18.1002 467.697 18.9119 466.212 18.9119ZM472.309 15.4922H478.786V14.1451H472.309V15.4922ZM484.39 9.63731L480.728 13.3506L481.713 14.266L483.871 11.9862V20H485.495V9.63731H484.39ZM496.372 16.8048H495.077V9.63731H493.66L487.857 16.8739V18.1347H493.522V20H495.077V18.1347H496.372V16.8048ZM493.574 11.7789V16.8048H489.55L493.574 11.7789ZM501.418 13.2297C500.986 13.2297 500.537 13.2642 500.036 13.3333L500.33 11.019H504.924V9.63731H498.931L498.43 14.6287L498.482 14.6632C499.345 14.4905 500.105 14.4041 500.813 14.4041C502.972 14.4041 503.87 15.3022 503.87 16.5976C503.87 17.9793 502.73 18.7737 501.211 18.7737C500.122 18.7737 499.345 18.5838 498.603 18.2038L498.119 19.5337C498.983 19.9482 499.915 20.1727 501.383 20.1727C503.819 20.1727 505.425 18.7565 505.425 16.5976C505.425 14.7496 504.337 13.2297 501.418 13.2297Z" fill="black"/>
<path d="M569.891 3.9C570.191 2.1 568.891 0.5 567.091 0.5C539.091 0.8 349.191 2.8 212.391 4.1C115.191 4.1 72.0913 45.4 6.09126 90.4C0.491257 94.3 -0.708744 102 3.59126 107.3L7.49126 112.1C11.4913 117 18.6913 117.8 23.6913 113.9C124.391 34.7 125.491 22.2 207.791 24.8C281.191 27.1 525.991 32.6 560.191 33.4C562.491 33.5 564.491 31.8 564.891 29.6L569.891 3.9Z" stroke="#BCBEC0" stroke-miterlimit="10"/>
<path d="M223.868 55.8946V48.7098H222.569V57H227.875V55.8946H223.868ZM236.781 49.7737V48.7098H230.95V57H236.781V55.9361H232.221V53.2694H236.353V52.2193H232.221V49.7737H236.781ZM247.161 57V48.7098H245.876V54.8031L241.068 48.7098H240.128V57H241.413V50.9206L246.222 57H247.161ZM256.636 50.4784C256.18 49.3731 255.185 48.5993 253.444 48.5993C251.869 48.5993 250.391 49.2211 250.391 50.8377C250.391 52.4957 252.118 52.924 253.389 53.2556C254.729 53.601 255.517 53.8774 255.517 54.8031C255.517 55.715 254.66 56.0743 253.624 56.0743C252.56 56.0743 251.62 55.6183 251.247 54.4991L250.211 55.0104C250.626 56.4197 251.966 57.1382 253.596 57.1382C255.227 57.1382 256.788 56.544 256.788 54.8584C256.788 53.3109 255.627 52.7582 254.011 52.3161C252.657 51.943 251.662 51.7358 251.662 50.8238C251.662 49.981 252.463 49.6356 253.403 49.6356C254.508 49.6356 255.241 50.1468 255.614 50.962L256.636 50.4784ZM276.971 48.7098H275.617L273.544 54.8307L271.458 48.7098H270.449L268.363 54.8307L266.277 48.7098H264.95V48.7927L267.824 57H268.819L270.961 50.6995L273.088 57H274.083L276.971 48.7927V48.7098ZM281.124 48.7098H279.825V57H281.124V48.7098ZM287.738 48.7098H284.878V57H287.738C290.46 57 292.063 55.4663 292.063 52.8549C292.063 50.2435 290.46 48.7098 287.738 48.7098ZM287.642 55.8946H286.163V49.8152H287.642C289.618 49.8152 290.778 50.9206 290.778 52.8549C290.778 54.7893 289.618 55.8946 287.642 55.8946ZM300.767 48.7098H294.218V49.8152H296.843V57H298.142V49.8152H300.767V48.7098ZM309.528 48.7098V52.1503H305.19V48.7098H303.891V57H305.19V53.2556H309.528V57H310.827V48.7098H309.528Z" fill="black"/>
<path d="M321.491 53H435.491V25" stroke="black"/>
<path d="M227.432 82.5648C228.206 82.4542 228.856 81.7634 228.856 80.6995C228.856 79.4836 227.944 78.7098 226.369 78.7098H222.569V87H226.534C228.165 87 229.118 86.1157 229.118 84.6373C229.118 83.3938 228.303 82.6891 227.432 82.5648ZM227.612 80.9067C227.612 81.639 227.059 82.1364 226.272 82.1364H223.826V79.7185H226.203C227.073 79.7185 227.612 80.1744 227.612 80.9067ZM226.313 85.9914H223.826V83.0484H226.313C227.239 83.0484 227.875 83.6287 227.875 84.513C227.875 85.4249 227.267 85.9914 226.313 85.9914ZM238.809 81.266C238.809 79.6908 237.759 78.7098 236.101 78.7098H232.356V87H233.614V83.8221H235.728L237.455 87H238.809V86.8756L236.985 83.7116C238.132 83.4214 238.809 82.5371 238.809 81.266ZM233.614 79.7599H235.852C236.861 79.7599 237.524 80.3541 237.524 81.266C237.524 82.1917 236.861 82.7858 235.852 82.7858H233.614V79.7599ZM243.302 78.7098H242.003V87H243.302V78.7098ZM249.917 78.7098H247.056V87H249.917C252.638 87 254.241 85.4663 254.241 82.8549C254.241 80.2435 252.638 78.7098 249.917 78.7098ZM249.82 85.8946H248.341V79.8152H249.82C251.796 79.8152 252.956 80.9206 252.956 82.8549C252.956 84.7893 251.796 85.8946 249.82 85.8946ZM265.551 82.2746H261.752V83.2142H264.418C264.377 84.8998 263.189 86.019 261.544 86.019C259.831 86.019 258.532 84.6926 258.532 82.8549C258.532 81.0311 259.831 79.7047 261.544 79.7047C262.608 79.7047 263.396 80.1606 263.935 80.81L264.778 80.0777C264.087 79.1934 262.885 78.5855 261.531 78.5855C259.071 78.5855 257.247 80.4093 257.247 82.8549C257.247 85.3143 259.071 87.1382 261.531 87.1382C264.114 87.1382 265.897 85.1485 265.551 82.2746ZM274.712 79.7737V78.7098H268.881V87H274.712V85.9361H270.153V83.2694H274.284V82.2193H270.153V79.7737H274.712ZM294.937 78.7098H293.583L291.51 84.8307L289.424 78.7098H288.415L286.329 84.8307L284.242 78.7098H282.916V78.7927L285.79 87H286.785L288.926 80.6995L291.054 87H292.049L294.937 78.7927V78.7098ZM299.09 78.7098H297.791V87H299.09V78.7098ZM305.704 78.7098H302.844V87H305.704C308.426 87 310.029 85.4663 310.029 82.8549C310.029 80.2435 308.426 78.7098 305.704 78.7098ZM305.607 85.8946H304.129V79.8152H305.607C307.583 79.8152 308.744 80.9206 308.744 82.8549C308.744 84.7893 307.583 85.8946 305.607 85.8946ZM318.733 78.7098H312.183V79.8152H314.809V87H316.107V79.8152H318.733V78.7098ZM327.494 78.7098V82.1503H323.155V78.7098H321.856V87H323.155V83.2556H327.494V87H328.793V78.7098H327.494Z" fill="black"/>
<path d="M228.483 108.71H221.933V109.815H224.559V117H225.857V109.815H228.483V108.71ZM237.437 109.774V108.71H231.606V117H237.437V115.936H232.878V113.269H237.009V112.219H232.878V109.774H237.437ZM248.481 108.71L245.206 113.297L241.931 108.71H240.785V117H242.042V110.865L245.054 115.052H245.344L248.37 110.865V117H249.627V108.71H248.481ZM256.618 108.71H253.385V117H254.67V114.057H256.618C258.317 114.057 259.381 113.007 259.381 111.377C259.381 109.76 258.317 108.71 256.618 108.71ZM256.341 112.993H254.67V109.774H256.341C257.474 109.774 258.11 110.396 258.11 111.377C258.11 112.371 257.474 112.993 256.341 112.993ZM263.877 115.895V108.71H262.578V117H267.884V115.895H263.877ZM276.79 109.774V108.71H270.96V117H276.79V115.936H272.231V113.269H276.362V112.219H272.231V109.774H276.79ZM289.54 108.71H288.241L284.814 116.931V117H286.182L286.942 115.038H290.825L291.599 117H292.953V116.931L289.54 108.71ZM287.343 114.016L288.877 110.078L290.424 114.016H287.343ZM302.103 111.266C302.103 109.691 301.053 108.71 299.395 108.71H295.65V117H296.908V113.822H299.022L300.749 117H302.103V116.876L300.279 113.712C301.426 113.421 302.103 112.537 302.103 111.266ZM296.908 109.76H299.146C300.155 109.76 300.818 110.354 300.818 111.266C300.818 112.192 300.155 112.786 299.146 112.786H296.908V109.76ZM312.993 108.71L309.718 113.297L306.444 108.71H305.297V117H306.554V110.865L309.566 115.052H309.857L312.883 110.865V117H314.14V108.71H312.993ZM324.936 115.895V108.71H323.638V117H328.943V115.895H324.936ZM337.85 109.774V108.71H332.019V117H337.85V115.936H333.29V113.269H337.421V112.219H333.29V109.774H337.85ZM348.23 117V108.71H346.945V114.803L342.137 108.71H341.197V117H342.482V110.921L347.29 117H348.23ZM359.833 112.275H356.033V113.214H358.7C358.658 114.9 357.47 116.019 355.826 116.019C354.112 116.019 352.814 114.693 352.814 112.855C352.814 111.031 354.112 109.705 355.826 109.705C356.89 109.705 357.677 110.161 358.216 110.81L359.059 110.078C358.368 109.193 357.166 108.585 355.812 108.585C353.352 108.585 351.529 110.409 351.529 112.855C351.529 115.314 353.352 117.138 355.812 117.138C358.396 117.138 360.178 115.149 359.833 112.275ZM368.639 108.71H362.09V109.815H364.715V117H366.014V109.815H368.639V108.71ZM377.4 108.71V112.15H373.061V108.71H371.763V117H373.061V113.256H377.4V117H378.699V108.71H377.4Z" fill="black"/>
<path d="M304.094 150.537H303.163C302.087 151.661 301.41 153.402 301.41 155.373C301.41 157.344 302.087 159.085 303.163 160.209H304.094C303.32 159.339 302.51 157.38 302.51 155.373C302.51 153.366 303.32 151.408 304.094 150.537ZM307.444 151.299C307.855 151.299 308.181 150.972 308.181 150.561C308.181 150.162 307.855 149.836 307.444 149.836C307.045 149.836 306.718 150.162 306.718 150.561C306.718 150.972 307.045 151.299 307.444 151.299ZM306.912 159H307.988V152.351H306.912V159ZM314.609 152.242C313.569 152.242 312.759 152.713 312.3 153.547V152.351H311.224V159H312.3V155.337C312.3 154.019 313.073 153.149 314.258 153.149C315.407 153.149 316.168 154.019 316.168 155.337L316.156 159H317.232V155.276C317.244 153.366 316.241 152.242 314.609 152.242ZM332.705 152.242C331.653 152.242 330.843 152.762 330.444 153.632C330.154 152.786 329.417 152.242 328.401 152.242C327.507 152.242 326.817 152.641 326.406 153.342V152.351H325.33V159H326.406V154.938C326.406 153.862 327.083 153.136 328.038 153.136C328.981 153.136 329.659 153.862 329.659 154.938V159H330.734V154.938C330.734 153.862 331.412 153.136 332.367 153.136C333.31 153.136 333.987 153.862 333.987 154.938V159H335.063V154.805C335.063 153.221 334.095 152.242 332.705 152.242ZM338.706 151.299C339.117 151.299 339.443 150.972 339.443 150.561C339.443 150.162 339.117 149.836 338.706 149.836C338.307 149.836 337.98 150.162 337.98 150.561C337.98 150.972 338.307 151.299 338.706 151.299ZM338.174 159H339.25V152.351H338.174V159ZM342.486 159H343.562V149.933H342.486V159ZM346.798 159H347.874V149.933H346.798V159ZM351.642 151.299C352.053 151.299 352.379 150.972 352.379 150.561C352.379 150.162 352.053 149.836 351.642 149.836C351.243 149.836 350.917 150.162 350.917 150.561C350.917 150.972 351.243 151.299 351.642 151.299ZM351.11 159H352.186V152.351H351.11V159ZM362.797 152.242C361.745 152.242 360.935 152.762 360.536 153.632C360.246 152.786 359.509 152.242 358.493 152.242C357.598 152.242 356.909 152.641 356.498 153.342V152.351H355.422V159H356.498V154.938C356.498 153.862 357.175 153.136 358.13 153.136C359.073 153.136 359.75 153.862 359.75 154.938V159H360.826V154.938C360.826 153.862 361.503 153.136 362.458 153.136C363.401 153.136 364.078 153.862 364.078 154.938V159H365.154V154.805C365.154 153.221 364.187 152.242 362.797 152.242ZM371.155 152.23C369.233 152.23 367.842 153.717 367.842 155.675C367.842 157.634 369.233 159.121 371.155 159.121C372.316 159.121 373.186 158.625 373.803 157.779L372.993 157.211C372.545 157.827 371.892 158.166 371.143 158.166C369.934 158.166 369.039 157.332 368.87 156.111H374.371C374.576 154.176 373.379 152.23 371.155 152.23ZM371.143 153.197C372.557 153.197 373.307 154.261 373.379 155.373H368.846C368.979 154.079 369.898 153.197 371.143 153.197ZM379.775 158.069C378.856 158.069 378.542 157.634 378.542 156.667V153.197H380.186V152.351H378.542V150.67L377.466 150.888V152.351H376.535V153.197H377.466V157.017C377.466 158.287 378.034 159 379.412 159H380.367V158.069H379.775ZM385.494 152.23C383.572 152.23 382.181 153.717 382.181 155.675C382.181 157.634 383.572 159.121 385.494 159.121C386.655 159.121 387.525 158.625 388.142 157.779L387.332 157.211C386.884 157.827 386.232 158.166 385.482 158.166C384.273 158.166 383.378 157.332 383.209 156.111H388.71C388.915 154.176 387.719 152.23 385.494 152.23ZM385.482 153.197C386.896 153.197 387.646 154.261 387.719 155.373H383.185C383.318 154.079 384.237 153.197 385.482 153.197ZM392.579 154.14H392.555L392.47 152.351H391.551V159H392.64V155.978C392.64 154.164 393.969 153.257 395.287 153.33V152.302C393.957 152.254 392.869 153.076 392.579 154.14ZM402.72 153.753C402.382 152.858 401.487 152.206 400.109 152.206C398.827 152.206 397.606 152.798 397.594 154.092C397.606 155.409 399.118 155.808 400.145 156.062C401.1 156.292 401.765 156.522 401.765 157.223C401.765 157.96 401.016 158.263 400.206 158.263C399.384 158.263 398.598 157.924 398.295 157.029L397.413 157.453C397.739 158.601 398.827 159.145 400.194 159.145C401.475 159.145 402.829 158.577 402.829 157.247C402.829 155.978 401.838 155.542 400.508 155.216C399.48 154.974 398.658 154.756 398.658 154.031C398.658 153.366 399.299 153.076 400.085 153.076C400.979 153.076 401.584 153.511 401.826 154.128L402.72 153.753ZM405.208 150.537C405.981 151.408 406.791 153.366 406.791 155.373C406.791 157.38 405.981 159.339 405.208 160.209H406.139C407.202 159.085 407.879 157.344 407.879 155.373C407.879 153.402 407.202 151.661 406.139 150.537H405.208Z" fill="#808285"/>
<path d="M334.136 11.2763C332.934 11.2763 332.009 11.8705 331.553 12.8653C331.221 11.8981 330.378 11.2763 329.218 11.2763C328.195 11.2763 327.408 11.7323 326.938 12.5337V11.4007H325.708V19H326.938V14.3575C326.938 13.1278 327.712 12.2988 328.803 12.2988C329.881 12.2988 330.655 13.1278 330.655 14.3575V19H331.884V14.3575C331.884 13.1278 332.658 12.2988 333.75 12.2988C334.827 12.2988 335.601 13.1278 335.601 14.3575V19H336.831V14.2055C336.831 12.3955 335.725 11.2763 334.136 11.2763ZM342.45 19.1658C344.688 19.1658 346.291 17.5216 346.291 15.2003C346.291 12.8791 344.688 11.2349 342.45 11.2349C340.225 11.2349 338.623 12.8791 338.623 15.2003C338.623 17.5216 340.225 19.1658 342.45 19.1658ZM342.45 18.0604C340.93 18.0604 339.811 16.8584 339.811 15.2003C339.811 13.5423 340.93 12.3402 342.45 12.3402C343.984 12.3402 345.103 13.5423 345.103 15.2003C345.103 16.8584 343.984 18.0604 342.45 18.0604ZM354.244 8.63731V12.9758C353.664 11.9119 352.642 11.2902 351.343 11.2902C349.312 11.2902 347.833 12.9758 347.833 15.2003C347.833 17.4249 349.312 19.1105 351.343 19.1105C352.642 19.1105 353.664 18.4888 354.244 17.4249V19H355.46V8.63731H354.244ZM351.592 18.0466C350.127 18.0466 349.063 16.8307 349.063 15.2003C349.063 13.5699 350.127 12.3541 351.592 12.3541C353.111 12.3541 354.244 13.5699 354.244 15.2003C354.244 16.8307 353.111 18.0466 351.592 18.0466ZM361.189 11.2625C358.992 11.2625 357.403 12.962 357.403 15.2003C357.403 17.4387 358.992 19.1382 361.189 19.1382C362.516 19.1382 363.51 18.5717 364.215 17.6045L363.289 16.9551C362.778 17.6598 362.032 18.0466 361.175 18.0466C359.794 18.0466 358.771 17.0933 358.578 15.6978H364.864C365.099 13.487 363.731 11.2625 361.189 11.2625ZM361.175 12.3679C362.792 12.3679 363.649 13.5838 363.731 14.8549H358.55C358.702 13.3765 359.752 12.3679 361.175 12.3679ZM366.832 19H368.062V8.63731H366.832V19ZM378.809 11.2763C377.621 11.2763 376.695 11.8152 376.17 12.7686V11.4007H374.941V19H376.17V14.8135C376.17 13.3074 377.055 12.3126 378.409 12.3126C379.721 12.3126 380.592 13.3074 380.592 14.8135L380.578 19H381.808V14.7444C381.822 12.5613 380.675 11.2763 378.809 11.2763ZM386.94 11.2487C385.586 11.2487 384.467 11.7323 383.831 12.1744L384.246 13.0173C384.826 12.6166 385.738 12.2435 386.746 12.2435C388.197 12.2435 389.04 13.0311 389.04 14.6339V14.772C388.501 14.1917 387.672 13.8601 386.677 13.8601C384.826 13.8601 383.527 14.9516 383.527 16.4991C383.527 18.0466 384.826 19.1382 386.677 19.1382C387.672 19.1382 388.501 18.8066 389.04 18.2263V19H390.297V14.6339C390.297 12.2988 389.012 11.2487 386.94 11.2487ZM386.926 18.2539C385.641 18.2539 384.757 17.5216 384.757 16.4853C384.757 15.4491 385.641 14.7168 386.926 14.7168C388.211 14.7168 389.095 15.4491 389.095 16.4853C389.095 17.5216 388.211 18.2539 386.926 18.2539ZM400.946 11.2763C399.744 11.2763 398.819 11.8705 398.363 12.8653C398.031 11.8981 397.188 11.2763 396.028 11.2763C395.005 11.2763 394.218 11.7323 393.748 12.5337V11.4007H392.518V19H393.748V14.3575C393.748 13.1278 394.522 12.2988 395.613 12.2988C396.691 12.2988 397.465 13.1278 397.465 14.3575V19H398.694V14.3575C398.694 13.1278 399.468 12.2988 400.56 12.2988C401.637 12.2988 402.411 13.1278 402.411 14.3575V19H403.641V14.2055C403.641 12.3955 402.535 11.2763 400.946 11.2763ZM409.219 11.2625C407.022 11.2625 405.433 12.962 405.433 15.2003C405.433 17.4387 407.022 19.1382 409.219 19.1382C410.545 19.1382 411.54 18.5717 412.244 17.6045L411.319 16.9551C410.807 17.6598 410.061 18.0466 409.205 18.0466C407.823 18.0466 406.801 17.0933 406.607 15.6978H412.894C413.129 13.487 411.761 11.2625 409.219 11.2625ZM409.205 12.3679C410.821 12.3679 411.678 13.5838 411.761 14.8549H406.58C406.731 13.3765 407.782 12.3679 409.205 12.3679Z" fill="#808285"/>
<path d="M340.491 83H465.491V25" stroke="black"/>
<path d="M384.491 113H495.491V25" stroke="black"/>
</svg>
