<svg width="226" height="75" viewBox="0 0 226 75" fill="none" xmlns="http://www.w3.org/2000/svg">
<g clip-path="url(#clip0)">
<path d="M220.9 26H214.9C209.2 26 204.1 22.9 201.1 18.1C194.6 7.2 182.7 0 169.1 0C155.7 0 143.9 7.1 137.3 17.7C134.9 21.5 130.3 23.1 126.1 21.5C121.9 19.8 117.4 18.9 112.7 18.9C108 18.9 103.4 19.8 99.3 21.5C95.1 23.2 90.5 21.5 88.1 17.7C81.4 7.1 69.7 0 56.3 0C42.7 0 30.8 7.2 24.3 18.1C21.4 23 16.2 26 10.5 26H4.5C2 26 0 28 0 30.5V33.9C0 36.4 2 38.4 4.5 38.4H6.8C15.1 38.4 20.6 53 27 60.8C33.9 69.4 44.4 74.9 56.3 74.9C71.6 74.9 84.8 65.7 90.6 52.5C98.8 49.4 97.5 27.6 112.7 27.6C127.9 27.6 126.7 49.3 134.8 52.5C140.6 65.7 153.8 74.9 169.1 74.9C181 74.9 191.5 69.4 198.4 60.8C204.8 53.1 210.3 38.4 218.6 38.4H220.9C223.4 38.4 225.4 36.4 225.4 33.9V30.5C225.3 28 223.3 26 220.9 26ZM56.3 69.9C38.4 69.9 23.9 55.4 23.9 37.5C23.9 19.6 38.3 5 56.3 5C74.3 5 88.7 19.5 88.7 37.4C88.7 55.3 74.2 69.9 56.3 69.9ZM169.1 69.9C151.2 69.9 136.7 55.4 136.7 37.5C136.7 19.6 151.2 5 169.1 5C187 5 201.5 19.5 201.5 37.4C201.5 55.3 187 69.9 169.1 69.9Z" fill="black"/>
</g>
<defs>
<clipPath id="clip0">
<rect width="225.3" height="74.9" fill="white"/>
</clipPath>
</defs>
</svg>
