<svg width="48" height="17" viewBox="0 0 48 17" fill="none" xmlns="http://www.w3.org/2000/svg">
<g clip-path="url(#clip0)">
<path d="M46.6 2.8C43.8 2.8 43 0 36.7 0C33.6 0 30.9 0.8 29.2 2C29.2 2 28.4 2.6 27.8 2.6C27.2 2.6 26.7 1.8 25.9 1.8C25.1 1.8 24 1.8 24 1.8C24 1.8 22.9 1.8 22.1 1.8C21.3 1.8 20.8 2.6 20.2 2.6C19.5 2.6 18.8 2 18.8 2C17.1 0.8 14.4 0 11.3 0C5 0 4.3 2.8 1.4 2.8C0.4 2.8 0 3 0 3.5C0 4 0 4.4 0 4.9C0 5.4 0.2 5.5 1 5.5C2 5.5 2.5 6.3 2.7 7.7C3.3 11.3 5.3 16.7 11.4 16.7C17 16.7 21.1 11.4 21.2 6.4C21.2 5.9 20.7 6.1 20.7 5.4C20.7 4.9 21 4.5 21.4 4.3C22 4 23 3.9 24 3.9C25 3.9 26 4 26.6 4.3C27 4.5 27.3 4.9 27.3 5.4C27.3 6.1 26.8 5.9 26.8 6.4C26.9 11.4 30.9 16.7 36.6 16.7C42.8 16.7 44.7 11.3 45.3 7.7C45.5 6.3 46 5.5 47 5.5C47.7 5.5 48 5.4 48 4.9C48 4.4 48 4 48 3.5C48 3 47.6 2.8 46.6 2.8ZM11.3 15.7C7.1 15.7 3.7 11.9 3.7 7.1C3.7 2.3 7.8 1.1 11.2 1.1C14.6 1.1 19.5 2.2 19.5 7.4C19.5 12.6 15.6 15.7 11.3 15.7ZM36.7 15.7C32.5 15.7 28.5 12.5 28.5 7.3C28.5 2.1 33.4 1 36.8 1C40.2 1 44.3 2.2 44.3 7C44.3 11.9 40.9 15.7 36.7 15.7Z" fill="black"/>
</g>
<defs>
<clipPath id="clip0">
<rect width="48" height="16.7" fill="white"/>
</clipPath>
</defs>
</svg>
