<svg width="32" height="25" viewBox="0 0 32 25" fill="none" xmlns="http://www.w3.org/2000/svg">
<g clip-path="url(#clip0)">
<path d="M25 18.9H10.9C10.5 18.9 10.1 18.6 9.9 18.2L5.3 2H1C0.4 2 0 1.6 0 1C0 0.4 0.4 0 1 0H6C6.4 0 6.8 0.3 7 0.7L11.7 16.9H24.4L29.1 7.8H14.6C14 7.8 13.6 7.4 13.6 6.8C13.6 6.2 14 5.8 14.6 5.8H30.7C31 5.8 31.4 6 31.6 6.3C31.8 6.6 31.8 7 31.6 7.3L25.9 18.4C25.7 18.7 25.4 18.9 25 18.9Z" fill="#BCBEC0"/>
<path d="M10.7 24.8C9.8 24.8 9 24.1 9 23.1C9 22.1 9.7 21.4 10.7 21.4C11.7 21.4 12.4 22.1 12.4 23.1C12.4 24.1 11.6 24.8 10.7 24.8Z" fill="#BCBEC0"/>
<path d="M24.7 24.8C23.8 24.8 23 24.1 23 23.1C23 22.1 23.7 21.4 24.7 21.4C25.7 21.4 26.4 22.1 26.4 23.1C26.4 24.1 25.6 24.8 24.7 24.8Z" fill="#BCBEC0"/>
</g>
<defs>
<clipPath id="clip0">
<rect width="31.7" height="24.8" fill="white"/>
</clipPath>
</defs>
</svg>
