<svg width="46" height="18" viewBox="0 0 46 18" fill="none" xmlns="http://www.w3.org/2000/svg">
<g clip-path="url(#clip0)">
<path d="M21.4595 2.64618V7.19074H24.2601C24.922 7.19074 25.4821 6.9616 25.915 6.51605C26.3605 6.07051 26.5896 5.53586 26.5896 4.91209C26.5896 4.30106 26.3605 3.77914 25.915 3.33359C25.4821 2.87532 24.922 2.64618 24.2601 2.64618H21.4595ZM21.4595 8.7947V14.0649H19.7792V1.04222H24.2219C25.3548 1.04222 26.3096 1.42412 27.0988 2.17518C27.9008 2.92624 28.3082 3.84279 28.3082 4.92482C28.3082 6.03232 27.9135 6.94887 27.0988 7.6872C26.3223 8.42553 25.3676 8.7947 24.2219 8.7947H21.4595Z" fill="white"/>
<path d="M30.0013 11.3407C30.0013 11.7735 30.1922 12.1426 30.5614 12.4354C30.9305 12.7282 31.3633 12.8682 31.8598 12.8682C32.5599 12.8682 33.1964 12.6009 33.7438 12.0917C34.2912 11.5698 34.5713 10.9588 34.5713 10.2586C34.0493 9.85128 33.3237 9.63487 32.3817 9.63487C31.707 9.63487 31.1342 9.80036 30.6759 10.1313C30.2304 10.4496 30.0013 10.8569 30.0013 11.3407ZM32.1653 4.86118C33.4001 4.86118 34.3803 5.19215 35.0932 5.8541C35.8061 6.51606 36.1625 7.41988 36.1625 8.57829V14.0776H34.5585V12.8428H34.4822C33.7947 13.8612 32.8655 14.3704 31.7198 14.3704C30.7396 14.3704 29.9121 14.0776 29.2502 13.492C28.5882 12.9064 28.2573 12.1808 28.2573 11.3025C28.2573 10.3859 28.601 9.6476 29.3011 9.10021C30.0013 8.55283 30.9305 8.2855 32.1017 8.2855C33.0946 8.2855 33.922 8.46372 34.5585 8.83289V8.45099C34.5585 7.86542 34.3294 7.36896 33.8711 6.97433C33.4128 6.56698 32.8655 6.3633 32.2544 6.3633C31.3252 6.3633 30.5741 6.75792 30.0267 7.54717L28.55 6.61789C29.3775 5.44675 30.5741 4.86118 32.1653 4.86118Z" fill="white"/>
<path d="M45.3769 5.1488L39.7758 17.9932H38.0573L40.1322 13.4996L36.4533 5.1488H38.2737L40.9342 11.5646H40.9724L43.5566 5.1488H45.3769Z" fill="white"/>
<path d="M14.6853 7.65847C14.6853 7.13655 14.6344 6.62735 14.558 6.13089H7.49292V9.00783H11.541C11.3628 9.96257 10.8409 10.7518 10.0389 11.2865V13.1578H12.4576C13.8706 11.8593 14.6853 9.93711 14.6853 7.65847Z" fill="#4285F4"/>
<path d="M7.49296 14.9654C9.517 14.9654 11.2228 14.3034 12.4576 13.1578L10.0389 11.2865C9.36425 11.7447 8.49862 11.9993 7.49296 11.9993C5.53256 11.9993 3.87768 10.6882 3.29211 8.90599H0.797058V10.8282C2.03185 13.2978 4.56509 14.9654 7.49296 14.9654Z" fill="#34A853"/>
<path d="M3.29209 8.91873C3.13933 8.46046 3.06295 7.98946 3.06295 7.48026C3.06295 6.9838 3.15206 6.50006 3.29209 6.04179V4.11958H0.797036C0.287843 5.13797 -0.00494385 6.27093 -0.00494385 7.48026C-0.00494385 8.6896 0.287843 9.83528 0.797036 10.8409L3.29209 8.91873Z" fill="#FABB05"/>
<path d="M7.49296 2.96116C8.60045 2.96116 9.59338 3.34305 10.3699 4.08138L12.5085 1.9555C11.2101 0.746163 9.517 -0.00489807 7.49296 -0.00489807C4.56509 -0.00489807 2.03185 1.67544 0.797058 4.11957L3.27938 6.04178C3.87768 4.27233 5.54529 2.96116 7.49296 2.96116Z" fill="#E94235"/>
</g>
<defs>
<clipPath id="clip0">
<rect width="45.3692" height="18" fill="white"/>
</clipPath>
</defs>
</svg>
