<svg width="75" height="18" viewBox="0 0 75 18" fill="none" xmlns="http://www.w3.org/2000/svg">
<g clip-path="url(#clip0)">
<path fill-rule="evenodd" clip-rule="evenodd" d="M6.48318 4.23692H11.5601C14.286 4.23692 15.3122 5.61689 15.1536 7.64427C14.8915 10.9913 12.868 12.8431 10.1841 12.8431H8.82901C8.46075 12.8431 8.21306 13.0869 8.11347 13.7474L7.53815 17.5872C7.50014 17.8362 7.36909 17.9803 7.17251 18H3.9827C3.68259 18 3.57644 17.7707 3.65507 17.274L5.59989 4.96426C5.6759 4.4715 5.94586 4.23692 6.48318 4.23692Z" fill="#009EE3"/>
<path fill-rule="evenodd" clip-rule="evenodd" d="M28.5248 4.00889C30.2376 4.00889 31.8181 4.93805 31.6019 7.25374C31.3398 10.0058 29.8655 11.5287 27.5393 11.5352H25.5067C25.2144 11.5352 25.0729 11.7737 24.9969 12.2625L24.6037 14.7617C24.5447 15.1391 24.3508 15.3252 24.0651 15.3252H22.174C21.8726 15.3252 21.7677 15.1326 21.8346 14.7014L23.3954 4.68512C23.4727 4.19236 23.6575 4.00889 23.9943 4.00889H28.5209H28.5248ZM25.4451 9.37154H26.9849C27.9482 9.33484 28.5877 8.66779 28.6519 7.46473C28.6912 6.72166 28.1893 6.18959 27.3912 6.19352L25.9418 6.20008L25.4451 9.37154ZM36.7431 14.5586C36.9161 14.4013 37.0917 14.3201 37.0668 14.514L37.0052 14.9779C36.9737 15.2204 37.0694 15.3488 37.2948 15.3488H38.9749C39.258 15.3488 39.3956 15.2348 39.465 14.7971L40.5003 8.29953C40.5527 7.97321 40.4728 7.81333 40.2251 7.81333H38.3773C38.2108 7.81333 38.1296 7.90638 38.0864 8.16062L38.0182 8.56032C37.9828 8.7687 37.8871 8.80539 37.798 8.59571C37.4848 7.85396 36.6854 7.52108 35.5701 7.54729C32.9792 7.60102 31.2323 9.56812 31.0449 12.0896C30.9008 14.0396 32.2978 15.5716 34.1404 15.5716C35.4771 15.5716 36.0747 15.1785 36.7483 14.5625L36.7431 14.5586ZM35.3356 13.5587C34.2203 13.5587 33.4432 12.6688 33.6044 11.5785C33.7656 10.4881 34.8087 9.59826 35.924 9.59826C37.0392 9.59826 37.8164 10.4881 37.6552 11.5785C37.494 12.6688 36.4521 13.5587 35.3356 13.5587ZM43.7884 7.79236H42.0847C41.7335 7.79236 41.5907 8.05446 41.7021 8.37685L43.8173 14.5704L41.7427 17.5177C41.5684 17.7641 41.7034 17.9882 41.9485 17.9882H43.8631C43.9747 18.0011 44.0877 17.9817 44.1885 17.9322C44.2893 17.8827 44.3738 17.8052 44.4319 17.7091L50.9373 8.37816C51.1378 8.09116 51.0435 7.78974 50.7145 7.78974H48.9021C48.5915 7.78974 48.467 7.91293 48.2888 8.1711L45.576 12.1027L44.3637 8.16193C44.293 7.92341 44.1161 7.79236 43.7897 7.79236H43.7884Z" fill="#113984"/>
<path fill-rule="evenodd" clip-rule="evenodd" d="M57.7049 4.00889C59.4177 4.00889 60.9982 4.93805 60.782 7.25374C60.5199 10.0058 59.0455 11.5287 56.7194 11.5352H54.6881C54.3958 11.5352 54.2543 11.7737 54.1783 12.2625L53.7851 14.7617C53.7261 15.1391 53.5322 15.3252 53.2465 15.3252H51.3554C51.054 15.3252 50.9491 15.1326 51.016 14.7014L52.5794 4.68249C52.6567 4.18974 52.8415 4.00626 53.1783 4.00626H57.7049V4.00889ZM54.6251 9.37154H56.165C57.1282 9.33484 57.7678 8.66779 57.832 7.46473C57.8713 6.72166 57.3694 6.18959 56.5713 6.19352L55.1218 6.20008L54.6251 9.37154ZM65.9231 14.5586C66.0961 14.4013 66.2717 14.3201 66.2468 14.514L66.1853 14.9779C66.1538 15.2204 66.2495 15.3488 66.4749 15.3488H68.155C68.438 15.3488 68.5756 15.2348 68.6451 14.7971L69.6804 8.29953C69.7328 7.97321 69.6529 7.81333 69.4052 7.81333H67.56C67.3935 7.81333 67.3123 7.90637 67.2691 8.16062L67.2009 8.56032C67.1655 8.7687 67.0699 8.80539 66.9807 8.59571C66.6675 7.85395 65.8681 7.52108 64.7529 7.54729C62.162 7.60102 60.415 9.56812 60.2276 12.0896C60.0835 14.0396 61.4805 15.5716 63.3231 15.5716C64.6598 15.5716 65.2574 15.1785 65.931 14.5625L65.9231 14.5586ZM64.517 13.5587C63.4017 13.5587 62.6246 12.6688 62.7858 11.5785C62.947 10.4881 63.9901 9.59826 65.1054 9.59826C66.2206 9.59826 66.9978 10.4881 66.8366 11.5785C66.6754 12.6688 65.6322 13.5587 64.517 13.5587ZM72.2661 15.3593H70.3265C70.2928 15.3608 70.2591 15.3549 70.2279 15.3419C70.1968 15.3288 70.1689 15.3091 70.1462 15.2841C70.1235 15.259 70.1067 15.2293 70.0969 15.197C70.087 15.1647 70.0844 15.1306 70.0893 15.0972L71.793 4.30375C71.8092 4.23009 71.8499 4.1641 71.9085 4.11651C71.967 4.06892 72.0399 4.04254 72.1154 4.04165H74.0549C74.0887 4.04014 74.1223 4.0461 74.1535 4.0591C74.1846 4.07211 74.2126 4.09183 74.2352 4.11687C74.2579 4.14191 74.2747 4.17164 74.2846 4.20395C74.2944 4.23626 74.297 4.27034 74.2921 4.30375L72.5884 15.0972C72.5727 15.1713 72.5322 15.2379 72.4736 15.286C72.4151 15.3341 72.3419 15.3609 72.2661 15.3619V15.3593Z" fill="#009EE3"/>
<path fill-rule="evenodd" clip-rule="evenodd" d="M3.30778 7.62939e-06H8.38998C9.82106 7.62939e-06 11.5195 0.0458758 12.6544 1.04842C13.4132 1.7181 13.8116 2.78355 13.7199 3.93157C13.408 7.81202 11.087 9.98617 7.97323 9.98617H5.46751C5.04029 9.98617 4.75852 10.2692 4.63796 11.0346L3.93814 15.4904C3.89227 15.7787 3.76777 15.949 3.54498 15.97H0.408906C0.0616184 15.97 -0.0615717 15.7079 0.0288542 15.1287L2.28295 0.846603C2.37338 0.272595 2.68921 7.62939e-06 3.30778 7.62939e-06Z" fill="#113984"/>
<path fill-rule="evenodd" clip-rule="evenodd" d="M4.7113 10.5825L5.59853 4.96426C5.67585 4.4715 5.94581 4.2356 6.48313 4.2356H11.5601C12.4001 4.2356 13.0803 4.36666 13.6124 4.6091C13.1026 8.06363 10.8681 9.98224 7.94305 9.98224H5.44126C5.10577 9.98355 4.85939 10.1513 4.7113 10.5825Z" fill="#172C70"/>
</g>
<defs>
<clipPath id="clip0">
<rect width="74.2973" height="18" fill="white"/>
</clipPath>
</defs>
</svg>
