<svg width="245" height="105" viewBox="0 0 245 105" fill="none" xmlns="http://www.w3.org/2000/svg">
<g clip-path="url(#clip0)">
<path d="M59.2001 66.1994C59.9001 65.9994 60.6001 65.7994 61.4001 65.7994C61.7001 65.7994 62.1001 65.7994 62.4001 65.7994C62.7001 65.6994 63.0001 65.6994 63.3001 65.5994C63.9001 65.3994 64.5001 65.2994 65.1001 65.2994C65.8001 64.9994 66.4001 64.9994 67.2001 64.9994C67.3001 64.9994 67.7001 64.8994 67.8001 64.8994C68.1001 64.7994 68.3001 64.6994 68.6001 64.6994C71.8001 61.8994 73.8001 57.7994 73.8001 53.1994C73.8001 51.3994 73.5001 49.7994 72.9001 48.1994C72.8001 48.1994 72.8001 48.0994 72.7001 48.0994C69.6001 45.9994 63.9001 45.2994 60.2001 45.0994C55.2001 44.8994 50.2001 45.4994 45.2001 45.4994C43.9001 47.7994 43.1001 50.3994 43.1001 53.1994C43.1001 58.2994 45.6001 62.7994 49.4001 65.5994C51.5001 65.9994 54.6001 66.2994 59.2001 66.1994Z" fill="url(#paint0_radial)"/>
<path d="M58.4001 60.599C62.4318 60.599 65.7001 57.3307 65.7001 53.299C65.7001 49.2673 62.4318 45.999 58.4001 45.999C54.3684 45.999 51.1001 49.2673 51.1001 53.299C51.1001 57.3307 54.3684 60.599 58.4001 60.599Z" fill="#1D1D1B"/>
<path d="M55.5998 52.3994C58.8031 52.3994 61.3998 50.8324 61.3998 48.8994C61.3998 46.9664 58.8031 45.3994 55.5998 45.3994C52.3966 45.3994 49.7998 46.9664 49.7998 48.8994C49.7998 50.8324 52.3966 52.3994 55.5998 52.3994Z" fill="white"/>
<path d="M84 53.0996C82.8 52.1996 81.5 51.3996 80.2 50.5996C74.2 46.9996 67.6 44.5996 60.7 43.7996C60 43.6996 59.3 43.4996 58.8 42.9996C57.2 41.7996 55.8 40.3996 54.9 38.5996C53.5 36.0996 53.4 33.2996 53.9 30.5996C53 33.4996 52.9 36.3996 54 39.1996C54.7 40.7996 55.7 42.1996 56.9 43.4996C55.8 43.4996 54.8 43.4996 53.7 43.4996C53.5 43.4996 53.3 43.4996 53.1 43.4996C52.4 43.5996 51.6 43.3996 51 43.0996C49.3 42.1996 47.7 41.0996 46.5 39.4996C44.7 37.1996 44.2 34.5996 44.2 31.7996C43.8 34.7996 44.2 37.6996 45.8 40.1996C46.7 41.6996 47.9 42.8996 49.3 43.8996C47.5 44.1996 45.7 44.4996 43.9 44.9996C43.6 45.0996 43.3 45.0996 43 44.9996C40.8 44.3996 38.6 43.5996 36.9 42.0996C34.7 40.2996 33.6 37.6996 33.1 34.9996C33.3 37.9996 34.2 40.6996 36.4 42.8996C37.6 44.1996 39.1 45.0996 40.7 45.8996C39.8 46.1996 38.1 46.8996 36.2 47.5996C35.6 47.9996 35.2 47.9996 34.8 47.9996C32.6 47.5996 30.4 46.8996 28.6 45.4996C26.3 43.7996 25.1 41.2996 24.4 38.5996C24.8 41.5996 25.9 44.2996 28.1 46.3996C29.5 47.6996 31 48.4996 32.7 49.1996C32.1 49.3996 31.6 49.6996 31.1 49.8996C30.8 49.9996 30.4 50.0996 30.1 49.9996C28 49.6996 25.9 49.0996 24 47.7996C21.6 46.1996 20.3 43.7996 19.5 41.0996C20 43.9996 21.2 46.5996 23.4 48.5996C24.1 49.1996 24.8 49.6996 25.6 50.0996C26 50.2996 26.4 50.4996 26.8 50.6996C27 50.7996 28.4 51.0996 27.8 51.4996C27.7 51.5996 27.5 51.5996 27.4 51.5996C26.4 51.6996 25.4 51.5996 24.4 51.4996C23.9 51.3996 23.4 51.3996 22.9 51.1996C22.4 51.0996 22 50.8996 21.5 50.7996C18.8 49.7996 17 47.7996 15.5 45.2996C16.7 47.8996 18.3 50.1996 20.9 51.5996C22.6 52.5996 24.5 52.9996 26.5 53.1996C27.7 53.2996 28.9 53.9996 29.6 54.9996C31.1 56.8996 32.7 58.6996 34.7 60.1996C40.7 64.6996 47.7 66.2996 55.1 66.3996C61.5 66.4996 67.8 65.0996 74 63.4996C70.9 64.0996 67.8 64.7996 64.6 65.1996C57.6 66.0996 50 65.8996 43.3 63.2996C40.3 62.0996 37.5 60.4996 35.1 58.2996C33.2 56.5996 31.7 54.5996 30.2 52.3996C32.6 51.1996 35 50.0996 37.5 49.0996C45.4 46.0996 53.9 44.5996 62.3 45.8996C66.3 46.4996 70.2 47.6996 73.9 49.2996C76.3 50.3996 78.5 51.6996 80.6 53.1996C81.7 53.8996 82.7 54.6996 83.7 55.3996C83.9 55.5996 84.3 55.8996 84.7 56.0996C85.2 56.3996 85.7 56.4996 86 55.9996C87.1 54.7996 84.8 53.6996 84 53.0996Z" fill="#1D1D1B"/>
<path d="M30.1001 40.7988C35.8001 36.4988 42.7001 35.1988 49.6001 34.8988C57.4001 34.5988 65.9001 36.0988 73.0001 39.4988C76.3001 41.0988 79.3001 42.9988 82.2001 45.1988C81.9001 45.3988 79.9001 43.7988 79.6001 43.5988C78.1001 42.5988 76.4001 41.6988 74.8001 40.9988C71.2001 39.3988 67.5001 38.0988 63.6001 37.1988C56.0001 35.5988 47.9001 35.0988 40.2001 36.6988C36.6001 37.5988 33.3001 38.8988 30.1001 40.7988Z" fill="#1D1D1B"/>
<path d="M94.4 32.0993C94 32.0993 93.6 31.9993 93.3 31.8993C91.8 31.4993 90.5 30.3993 89.4 29.3993C87.4 27.5993 85.3 26.1993 82.9 24.8993C81 23.7993 78.9 22.7993 76.7 21.7993C74.4 20.7993 72 19.8993 69.3 19.1993C66.7 18.3993 63.9 17.7993 61.1 17.3993C58.3 16.8993 55.3 16.6993 52.4 16.5993C49.5 16.4993 46.5 16.6993 43.6 16.9993C40.7 17.2993 37.9 17.8993 35.2 18.4993C32.5 19.1993 30 19.9993 27.6 20.9993C26.4 21.4993 25.3 21.9993 24.2 22.4993C23 22.9993 22 23.5993 21 24.0993C19 25.1993 17.3 26.2993 15.8 27.2993C14.3 28.3993 13 29.2993 12.1 30.1993C11.1 30.9993 10.3 31.7993 9.8 32.1993C9.3 32.7993 9 32.9993 9 32.9993C9 32.9993 9.3 32.6993 9.7 32.1993C10.2 31.6993 10.9 30.8993 11.8 29.9993C12.7 29.0993 13.9 27.9993 15.4 26.7993C16.8 25.5993 18.5 24.3993 20.4 23.0993C21.4 22.4993 22.4 21.7993 23.4 21.2993C24.5 20.6993 25.6 20.0993 26.8 19.4993C29.2 18.3993 31.7 17.2993 34.5 16.3993C37.2 15.4993 40.1 14.6993 43.1 14.1993C46.1 13.5993 49.1 13.1993 52.2 13.0993C55.3 12.8993 58.4 12.9993 61.4 13.1993C64.4 13.3993 67.4 13.8993 70.3 14.4993C78 16.0993 85.2 19.1993 91.9 23.2993C93.5 24.2993 95.4 24.8993 96.6 26.3993C97.6 27.5993 98.1 29.3993 97.3 30.6993C96.8 31.6993 95.6 32.1993 94.4 32.0993Z" fill="#1D1D1B"/>
<path d="M186.7 66.1994C186 65.9994 185.3 65.7994 184.5 65.7994C184.2 65.7994 183.8 65.7994 183.5 65.7994C183.2 65.6994 182.9 65.6994 182.6 65.5994C182 65.3994 181.4 65.2994 180.8 65.2994C180.1 64.9994 179.5 64.9994 178.7 64.9994C178.6 64.9994 178.2 64.8994 178.1 64.8994C177.8 64.7994 177.6 64.6994 177.3 64.6994C174.1 61.8994 172.1 57.7994 172.1 53.1994C172.1 51.3994 172.4 49.7994 173 48.1994C173.1 48.1994 173.1 48.0994 173.2 48.0994C176.3 45.9994 182 45.2994 185.7 45.0994C190.7 44.8994 195.7 45.4994 200.7 45.4994C202 47.7994 202.8 50.3994 202.8 53.1994C202.8 58.2994 200.3 62.7994 196.5 65.5994C194.4 65.9994 191.3 66.2994 186.7 66.1994Z" fill="url(#paint1_radial)"/>
<path d="M187.5 60.6C191.531 60.6 194.8 57.3317 194.8 53.3C194.8 49.2683 191.531 46 187.5 46C183.468 46 180.2 49.2683 180.2 53.3C180.2 57.3317 183.468 60.6 187.5 60.6Z" fill="#1D1D1B"/>
<path d="M190.3 52.3994C193.503 52.3994 196.1 50.8324 196.1 48.8994C196.1 46.9664 193.503 45.3994 190.3 45.3994C187.097 45.3994 184.5 46.9664 184.5 48.8994C184.5 50.8324 187.097 52.3994 190.3 52.3994Z" fill="white"/>
<path d="M161.9 53.0996C163.1 52.1996 164.4 51.3996 165.7 50.5996C171.7 46.9996 178.3 44.5996 185.2 43.7996C185.9 43.6996 186.6 43.4996 187.1 42.9996C188.7 41.7996 190.1 40.3996 191 38.5996C192.4 36.0996 192.5 33.2996 192 30.5996C192.9 33.4996 193 36.3996 191.9 39.1996C191.2 40.7996 190.2 42.1996 189 43.4996C190.1 43.4996 191.1 43.4996 192.2 43.4996C192.4 43.4996 192.6 43.4996 192.8 43.4996C193.5 43.5996 194.3 43.3996 194.9 43.0996C196.6 42.1996 198.2 41.0996 199.4 39.4996C201.2 37.1996 201.7 34.5996 201.7 31.7996C202.1 34.7996 201.7 37.6996 200.1 40.1996C199.2 41.6996 198 42.8996 196.6 43.8996C198.4 44.1996 200.2 44.4996 202 44.9996C202.3 45.0996 202.6 45.0996 202.9 44.9996C205.1 44.3996 207.3 43.5996 209 42.0996C211.2 40.2996 212.3 37.6996 212.8 34.9996C212.6 37.9996 211.7 40.6996 209.5 42.8996C208.3 44.1996 206.8 45.0996 205.2 45.8996C206.1 46.1996 207.8 46.8996 209.7 47.5996C210 47.6996 210.4 47.7996 210.8 47.6996C213 47.2996 215.2 46.5996 217 45.1996C219.3 43.4996 220.5 40.9996 221.2 38.2996C220.8 41.2996 219.7 43.9996 217.5 46.0996C216.1 47.3996 214.6 48.1996 212.9 48.8996C213.5 49.0996 214 49.3996 214.5 49.5996C214.8 49.6996 215.2 49.7996 215.5 49.6996C217.6 49.3996 219.7 48.7996 221.6 47.4996C224 45.8996 225.3 43.4996 226.1 40.7996C225.6 43.6996 224.4 46.2996 222.2 48.2996C221.5 48.8996 220.8 49.3996 220 49.7996C219.6 49.9996 219.2 50.1996 218.8 50.3996C218.6 50.4996 217.2 50.7996 217.8 51.1996C217.9 51.2996 218.1 51.2996 218.2 51.2996C219.2 51.3996 220.2 51.2996 221.2 51.1996C221.7 51.0996 222.2 51.0996 222.7 50.8996C223.2 50.7996 223.6 50.5996 224.1 50.4996C226.8 49.4996 228.6 47.4996 230.1 44.9996C228.9 47.5996 227.3 49.8996 224.7 51.2996C223 52.2996 221.1 52.6996 219.1 52.8996C217.9 52.9996 216.7 53.6996 216 54.6996C214.5 56.5996 212.9 58.3996 210.9 59.8996C204.9 64.3996 197.9 65.9996 190.5 66.0996C184.1 66.1996 177.8 64.7996 171.6 63.1996C174.7 63.7996 177.8 64.4996 181 64.8996C188 65.7996 195.6 65.5996 202.3 62.9996C205.3 61.7996 208.1 60.1996 210.5 57.9996C212.4 56.2996 213.9 54.2996 215.4 52.0996C213 50.8996 210.6 49.7996 208.1 48.7996C200.2 45.7996 191.7 44.2996 183.3 45.5996C179.3 46.1996 175.4 47.3996 171.7 48.9996C169.3 50.0996 167.1 51.3996 165 52.8996C163.9 53.5996 162.9 54.3996 161.9 55.0996C161.7 55.2996 161.3 55.5996 160.9 55.7996C160.4 56.0996 159.9 56.1996 159.6 55.6996C158.9 54.7996 161.2 53.6996 161.9 53.0996Z" fill="#1D1D1B"/>
<path d="M215.8 40.7997C210.1 36.4997 203.2 35.1997 196.3 34.8997C188.5 34.5997 180 36.0997 172.9 39.4997C169.6 41.0997 166.6 42.9997 163.7 45.1997C164 45.3997 166 43.7997 166.3 43.5997C167.8 42.5997 169.5 41.6997 171.1 40.9997C174.7 39.3997 178.4 38.0997 182.3 37.1997C189.9 35.5997 198 35.0997 205.7 36.6997C209.3 37.5997 212.6 38.8997 215.8 40.7997Z" fill="#1D1D1B"/>
<path d="M151.6 32.0996C152 32.0996 152.4 31.9996 152.7 31.8996C154.2 31.4996 155.5 30.3996 156.6 29.3996C158.6 27.5996 160.7 26.1996 163.1 24.8996C165 23.7996 167.1 22.7996 169.3 21.7996C171.6 20.7996 174 19.8996 176.7 19.1996C179.3 18.3996 182.1 17.7996 184.9 17.3996C187.7 16.8996 190.7 16.6996 193.6 16.5996C196.5 16.4996 199.5 16.6996 202.4 16.9996C205.3 17.2996 208.1 17.8996 210.8 18.4996C213.5 19.1996 216 19.9996 218.4 20.9996C219.6 21.4996 220.7 21.9996 221.8 22.4996C222.9 22.9996 223.9 23.4996 224.9 24.0996C226.9 25.1996 228.6 26.2996 230.1 27.2996C231.6 28.3996 232.9 29.2996 233.8 30.1996C234.8 30.9996 235.6 31.7996 236.1 32.1996C236.6 32.6996 236.9 32.8996 236.9 32.8996C236.9 32.8996 236.6 32.5996 236.2 32.0996C235.7 31.5996 235 30.7996 234.1 29.8996C233.2 28.9996 232 27.8996 230.5 26.6996C229.1 25.4996 227.4 24.2996 225.5 22.9996C224.5 22.3996 223.5 21.6996 222.5 21.1996C221.4 20.5996 220.3 19.9996 219.1 19.3996C216.7 18.2996 214.2 17.1996 211.4 16.2996C208.7 15.3996 205.8 14.5996 202.8 14.0996C199.8 13.4996 196.8 13.0996 193.7 12.9996C190.6 12.7996 187.5 12.8996 184.5 13.0996C181.5 13.2996 178.5 13.7996 175.6 14.3996C167.9 15.9996 160.7 19.0996 154 23.1996C152.4 24.1996 150.5 24.7996 149.3 26.2996C148.3 27.4996 147.8 29.2996 148.6 30.5996C149.1 31.6996 150.3 32.1996 151.6 32.0996Z" fill="#1D1D1B"/>
</g>
<path d="M109.945 64.0967C109.539 64.0967 109.228 64.2003 108.969 64.3731L110.783 61.9896V61.9551H110.152L108.27 64.4853C107.881 65.0207 107.682 65.4784 107.682 66.0915C107.682 67.2228 108.581 68.0864 109.798 68.0864C111.016 68.0864 111.914 67.2228 111.914 66.0656C111.914 64.943 111.076 64.0967 109.945 64.0967ZM109.798 67.6114C108.9 67.6114 108.235 66.9551 108.235 66.0656C108.235 65.1762 108.891 64.5026 109.798 64.5026C110.705 64.5026 111.37 65.1762 111.37 66.0656C111.37 66.9551 110.705 67.6114 109.798 67.6114ZM115.582 68.0864C117.068 68.0864 118 66.886 118 64.9775C118 63.0691 117.068 61.8687 115.582 61.8687C114.097 61.8687 113.147 63.0691 113.147 64.9775C113.147 66.886 114.097 68.0864 115.582 68.0864ZM115.582 67.6028C114.425 67.6028 113.682 66.5838 113.682 64.9775C113.682 63.3713 114.425 62.3523 115.582 62.3523C116.739 62.3523 117.465 63.3713 117.465 64.9775C117.465 66.5838 116.739 67.6028 115.582 67.6028ZM124.789 63.1813C123.995 63.1813 123.39 63.6131 123.14 64.3212C122.95 63.639 122.38 63.1813 121.603 63.1813C120.903 63.1813 120.377 63.5354 120.1 64.1226V63.2504H119.591V68H120.1V65.0984C120.1 64.2003 120.662 63.6045 121.447 63.6045C122.225 63.6045 122.786 64.2003 122.786 65.0984V68H123.295V65.0984C123.295 64.2003 123.857 63.6045 124.643 63.6045C125.42 63.6045 125.972 64.2003 125.972 65.0984V68H126.482V65.038C126.482 63.8981 125.782 63.1813 124.789 63.1813ZM133.392 63.1813C132.598 63.1813 131.994 63.6131 131.743 64.3212C131.553 63.639 130.983 63.1813 130.206 63.1813C129.506 63.1813 128.98 63.5354 128.703 64.1226V63.2504H128.194V68H128.703V65.0984C128.703 64.2003 129.265 63.6045 130.051 63.6045C130.828 63.6045 131.389 64.2003 131.389 65.0984V68H131.899V65.0984C131.899 64.2003 132.46 63.6045 133.246 63.6045C134.023 63.6045 134.576 64.2003 134.576 65.0984V68H135.085V65.038C135.085 63.8981 134.386 63.1813 133.392 63.1813Z" fill="black"/>
<path d="M56.5039 101.069C57.6922 101.069 58.4383 100.109 58.4383 98.582C58.4383 97.0553 57.6922 96.095 56.5039 96.095C55.3157 96.095 54.5557 97.0553 54.5557 98.582C54.5557 100.109 55.3157 101.069 56.5039 101.069ZM56.5039 100.682C55.5782 100.682 54.9841 99.867 54.9841 98.582C54.9841 97.2971 55.5782 96.4819 56.5039 96.4819C57.4297 96.4819 58.01 97.2971 58.01 98.582C58.01 99.867 57.4297 100.682 56.5039 100.682Z" fill="black"/>
<path d="M75.8418 96.1641L74.391 97.677L74.6397 97.9396L75.6829 96.8342V101H76.1112V96.1641H75.8418ZM79.496 101.069C80.6842 101.069 81.4303 100.109 81.4303 98.582C81.4303 97.0553 80.6842 96.095 79.496 96.095C78.3077 96.095 77.5478 97.0553 77.5478 98.582C77.5478 100.109 78.3077 101.069 79.496 101.069ZM79.496 100.682C78.5702 100.682 77.9761 99.867 77.9761 98.582C77.9761 97.2971 78.5702 96.4819 79.496 96.4819C80.4217 96.4819 81.002 97.2971 81.002 98.582C81.002 99.867 80.4217 100.682 79.496 100.682Z" fill="black"/>
<path d="M96.3579 97.6839L96.7655 97.7461C96.883 96.8204 97.4356 96.475 98.0712 96.475C98.7966 96.475 99.2111 96.8895 99.2111 97.4767C99.2111 98.0984 98.8242 98.506 97.7603 99.5354L96.3717 100.917V101H99.7016V100.634H97.1593L98.2163 99.6528C99.2111 98.6857 99.6463 98.1675 99.6463 97.4836C99.6463 96.6477 99.0522 96.1019 98.0781 96.1019C97.2353 96.1019 96.503 96.5233 96.3579 97.6839ZM102.633 101.069C103.821 101.069 104.567 100.109 104.567 98.582C104.567 97.0553 103.821 96.095 102.633 96.095C101.444 96.095 100.684 97.0553 100.684 98.582C100.684 100.109 101.444 101.069 102.633 101.069ZM102.633 100.682C101.707 100.682 101.113 99.867 101.113 98.582C101.113 97.2971 101.707 96.4819 102.633 96.4819C103.558 96.4819 104.139 97.2971 104.139 98.582C104.139 99.867 103.558 100.682 102.633 100.682Z" fill="black"/>
<path d="M119.183 98.4024C119.618 98.2504 119.95 97.8981 119.95 97.3454C119.95 96.6131 119.39 96.095 118.402 96.095C117.684 96.095 117.124 96.4128 116.82 96.9171L117.09 97.1313C117.421 96.6546 117.864 96.4611 118.382 96.4611C119.107 96.4611 119.515 96.8135 119.515 97.38C119.515 97.9396 119.024 98.2504 118.458 98.2504H117.746V98.6028H118.499C119.19 98.6028 119.798 98.886 119.798 99.5838C119.798 100.282 119.266 100.703 118.416 100.703C117.746 100.703 117.249 100.378 116.979 99.9983L116.682 100.219C116.931 100.641 117.525 101.069 118.437 101.069C119.556 101.069 120.226 100.489 120.226 99.6183C120.226 98.9067 119.729 98.4991 119.183 98.4024ZM123.219 101.069C124.407 101.069 125.153 100.109 125.153 98.582C125.153 97.0553 124.407 96.095 123.219 96.095C122.03 96.095 121.27 97.0553 121.27 98.582C121.27 100.109 122.03 101.069 123.219 101.069ZM123.219 100.682C122.293 100.682 121.699 99.867 121.699 98.582C121.699 97.2971 122.293 96.4819 123.219 96.4819C124.144 96.4819 124.725 97.2971 124.725 98.582C124.725 99.867 124.144 100.682 123.219 100.682Z" fill="black"/>
<path d="M143.325 99.6459H142.641V96.1641H142.288L139.67 99.6736V100.012H142.212V101H142.641V100.012H143.325V99.6459ZM142.219 96.848V99.6459H140.126L142.219 96.848ZM146.203 101.069C147.391 101.069 148.137 100.109 148.137 98.582C148.137 97.0553 147.391 96.095 146.203 96.095C145.015 96.095 144.255 97.0553 144.255 98.582C144.255 100.109 145.015 101.069 146.203 101.069ZM146.203 100.682C145.277 100.682 144.683 99.867 144.683 98.582C144.683 97.2971 145.277 96.4819 146.203 96.4819C147.129 96.4819 147.709 97.2971 147.709 98.582C147.709 99.867 147.129 100.682 146.203 100.682Z" fill="black"/>
<path d="M162.809 97.8843C162.595 97.8843 162.36 97.905 162.097 97.9465L162.256 96.5302H164.356V96.1641H161.855L161.634 98.3264L161.655 98.3333C162.035 98.2504 162.36 98.2159 162.65 98.2159C163.652 98.2159 164.073 98.7824 164.073 99.4663C164.073 100.226 163.513 100.689 162.795 100.689C162.311 100.689 161.98 100.599 161.634 100.42L161.496 100.772C161.883 100.965 162.256 101.069 162.836 101.069C163.79 101.069 164.522 100.42 164.522 99.487C164.522 98.6304 164.032 97.8843 162.809 97.8843ZM167.543 101.069C168.731 101.069 169.477 100.109 169.477 98.582C169.477 97.0553 168.731 96.095 167.543 96.095C166.355 96.095 165.595 97.0553 165.595 98.582C165.595 100.109 166.355 101.069 167.543 101.069ZM167.543 100.682C166.617 100.682 166.023 99.867 166.023 98.582C166.023 97.2971 166.617 96.4819 167.543 96.4819C168.469 96.4819 169.049 97.2971 169.049 98.582C169.049 99.867 168.469 100.682 167.543 100.682Z" fill="black"/>
<path d="M184.138 97.8774C183.814 97.8774 183.565 97.9603 183.358 98.0984L184.809 96.1917V96.1641H184.304L182.798 98.1883C182.487 98.6166 182.328 98.9827 182.328 99.4732C182.328 100.378 183.047 101.069 184.021 101.069C184.995 101.069 185.714 100.378 185.714 99.4525C185.714 98.5544 185.043 97.8774 184.138 97.8774ZM184.021 100.689C183.303 100.689 182.771 100.164 182.771 99.4525C182.771 98.7409 183.296 98.2021 184.021 98.2021C184.746 98.2021 185.278 98.7409 185.278 99.4525C185.278 100.164 184.746 100.689 184.021 100.689ZM188.648 101.069C189.837 101.069 190.583 100.109 190.583 98.582C190.583 97.0553 189.837 96.095 188.648 96.095C187.46 96.095 186.7 97.0553 186.7 98.582C186.7 100.109 187.46 101.069 188.648 101.069ZM188.648 100.682C187.723 100.682 187.128 99.867 187.128 98.582C187.128 97.2971 187.723 96.4819 188.648 96.4819C189.574 96.4819 190.154 97.2971 190.154 98.582C190.154 99.867 189.574 100.682 188.648 100.682Z" fill="black"/>
<path d="M204.554 96.1641V96.5302H207.09L205.335 101H205.784L207.656 96.2193V96.1641H204.554ZM210.367 101.069C211.555 101.069 212.301 100.109 212.301 98.582C212.301 97.0553 211.555 96.095 210.367 96.095C209.179 96.095 208.419 97.0553 208.419 98.582C208.419 100.109 209.179 101.069 210.367 101.069ZM210.367 100.682C209.441 100.682 208.847 99.867 208.847 98.582C208.847 97.2971 209.441 96.4819 210.367 96.4819C211.293 96.4819 211.873 97.2971 211.873 98.582C211.873 99.867 211.293 100.682 210.367 100.682Z" fill="black"/>
<path d="M228.216 98.3955C228.693 98.2021 228.997 97.8221 228.997 97.3454C228.997 96.6269 228.368 96.1019 227.505 96.1019C226.634 96.1019 226.006 96.6269 226.006 97.3454C226.006 97.8221 226.31 98.209 226.793 98.3955C226.171 98.5959 225.771 99.0725 225.771 99.6736C225.771 100.489 226.496 101.076 227.505 101.076C228.513 101.076 229.239 100.489 229.239 99.6736C229.239 99.0725 228.838 98.5959 228.216 98.3955ZM226.434 97.3731C226.434 96.848 226.883 96.4611 227.505 96.4611C228.12 96.4611 228.569 96.848 228.569 97.3731C228.569 97.8843 228.12 98.2504 227.505 98.2504C226.883 98.2504 226.434 97.8843 226.434 97.3731ZM227.505 100.696C226.752 100.696 226.206 100.254 226.206 99.6321C226.206 99.0173 226.752 98.5751 227.505 98.5751C228.258 98.5751 228.804 99.0173 228.804 99.6321C228.804 100.254 228.258 100.696 227.505 100.696ZM232.199 101.069C233.387 101.069 234.133 100.109 234.133 98.582C234.133 97.0553 233.387 96.095 232.199 96.095C231.011 96.095 230.251 97.0553 230.251 98.582C230.251 100.109 231.011 101.069 232.199 101.069ZM232.199 100.682C231.273 100.682 230.679 99.867 230.679 98.582C230.679 97.2971 231.273 96.4819 232.199 96.4819C233.125 96.4819 233.705 97.2971 233.705 98.582C233.705 99.867 233.125 100.682 232.199 100.682Z" fill="black"/>
<g clip-path="url(#clip1)">
<path d="M56.5 79.7002V93.3002" stroke="#1D1D1B" stroke-miterlimit="10"/>
<path d="M56.5 69V75.8" stroke="#1D1D1B" stroke-miterlimit="10"/>
<path d="M187 69V75.8" stroke="#1D1D1B" stroke-miterlimit="10"/>
<path d="M67.3999 79.7002V90.4002" stroke="#1D1D1B" stroke-miterlimit="10"/>
<path d="M59.2002 79.7002V87.7002" stroke="#1D1D1B" stroke-miterlimit="10"/>
<path d="M61.8999 79.7002V87.7002" stroke="#1D1D1B" stroke-miterlimit="10"/>
<path d="M64.7002 79.7002V87.7002" stroke="#1D1D1B" stroke-miterlimit="10"/>
<path d="M70.1001 79.7002V87.7002" stroke="#1D1D1B" stroke-miterlimit="10"/>
<path d="M72.7998 79.7002V87.7002" stroke="#1D1D1B" stroke-miterlimit="10"/>
<path d="M75.5 79.7002V87.7002" stroke="#1D1D1B" stroke-miterlimit="10"/>
<path d="M78.2998 79.7002V93.3002" stroke="#1D1D1B" stroke-miterlimit="10"/>
<path d="M89.1001 79.7002V90.4002" stroke="#1D1D1B" stroke-miterlimit="10"/>
<path d="M81 79.7002V87.7002" stroke="#1D1D1B" stroke-miterlimit="10"/>
<path d="M83.7002 79.7002V87.7002" stroke="#1D1D1B" stroke-miterlimit="10"/>
<path d="M86.3999 79.7002V87.7002" stroke="#1D1D1B" stroke-miterlimit="10"/>
<path d="M91.8999 79.7002V87.7002" stroke="#1D1D1B" stroke-miterlimit="10"/>
<path d="M94.6001 79.7002V87.7002" stroke="#1D1D1B" stroke-miterlimit="10"/>
<path d="M97.2998 79.7002V87.7002" stroke="#1D1D1B" stroke-miterlimit="10"/>
<path d="M100 79.7002V93.3002" stroke="#1D1D1B" stroke-miterlimit="10"/>
<path d="M110.9 79.7002V90.4002" stroke="#1D1D1B" stroke-miterlimit="10"/>
<path d="M102.7 79.7002V87.7002" stroke="#1D1D1B" stroke-miterlimit="10"/>
<path d="M105.4 79.7002V87.7002" stroke="#1D1D1B" stroke-miterlimit="10"/>
<path d="M108.2 79.7002V87.7002" stroke="#1D1D1B" stroke-miterlimit="10"/>
<path d="M113.6 79.7002V87.7002" stroke="#1D1D1B" stroke-miterlimit="10"/>
<path d="M116.3 79.7002V87.7002" stroke="#1D1D1B" stroke-miterlimit="10"/>
<path d="M119 79.7002V87.7002" stroke="#1D1D1B" stroke-miterlimit="10"/>
<path d="M121.8 79.7002V93.3002" stroke="#1D1D1B" stroke-miterlimit="10"/>
<path d="M132.6 79.7002V90.4002" stroke="#1D1D1B" stroke-miterlimit="10"/>
<path d="M124.5 79.7002V87.7002" stroke="#1D1D1B" stroke-miterlimit="10"/>
<path d="M127.2 79.7002V87.7002" stroke="#1D1D1B" stroke-miterlimit="10"/>
<path d="M129.9 79.7002V87.7002" stroke="#1D1D1B" stroke-miterlimit="10"/>
<path d="M135.4 79.7002V87.7002" stroke="#1D1D1B" stroke-miterlimit="10"/>
<path d="M138.1 79.7002V87.7002" stroke="#1D1D1B" stroke-miterlimit="10"/>
<path d="M140.8 79.7002V87.7002" stroke="#1D1D1B" stroke-miterlimit="10"/>
<path d="M143.5 79.7002V93.3002" stroke="#1D1D1B" stroke-miterlimit="10"/>
<path d="M154.4 79.7002V90.4002" stroke="#1D1D1B" stroke-miterlimit="10"/>
<path d="M146.2 79.7002V87.7002" stroke="#1D1D1B" stroke-miterlimit="10"/>
<path d="M149 79.7002V87.7002" stroke="#1D1D1B" stroke-miterlimit="10"/>
<path d="M151.7 79.7002V87.7002" stroke="#1D1D1B" stroke-miterlimit="10"/>
<path d="M157.1 79.7002V87.7002" stroke="#1D1D1B" stroke-miterlimit="10"/>
<path d="M159.8 79.7002V87.7002" stroke="#1D1D1B" stroke-miterlimit="10"/>
<path d="M162.6 79.7002V87.7002" stroke="#1D1D1B" stroke-miterlimit="10"/>
<path d="M165.3 79.7002V93.3002" stroke="#1D1D1B" stroke-miterlimit="10"/>
<path d="M176.2 79.7002V90.4002" stroke="#1D1D1B" stroke-miterlimit="10"/>
<path d="M168 79.7002V87.7002" stroke="#1D1D1B" stroke-miterlimit="10"/>
<path d="M170.7 79.7002V87.7002" stroke="#1D1D1B" stroke-miterlimit="10"/>
<path d="M173.4 79.7002V87.7002" stroke="#1D1D1B" stroke-miterlimit="10"/>
<path d="M178.9 79.7002V87.7002" stroke="#1D1D1B" stroke-miterlimit="10"/>
<path d="M181.6 79.7002V87.7002" stroke="#1D1D1B" stroke-miterlimit="10"/>
<path d="M184.3 79.7002V87.7002" stroke="#1D1D1B" stroke-miterlimit="10"/>
<path d="M187 79.7002V93.3002" stroke="#1D1D1B" stroke-miterlimit="10"/>
<path d="M197.9 79.7002V90.4002" stroke="#1D1D1B" stroke-miterlimit="10"/>
<path d="M189.7 79.7002V87.7002" stroke="#1D1D1B" stroke-miterlimit="10"/>
<path d="M192.5 79.7002V87.7002" stroke="#1D1D1B" stroke-miterlimit="10"/>
<path d="M195.2 79.7002V87.7002" stroke="#1D1D1B" stroke-miterlimit="10"/>
<path d="M200.6 79.7002V87.7002" stroke="#1D1D1B" stroke-miterlimit="10"/>
<path d="M203.3 79.7002V87.7002" stroke="#1D1D1B" stroke-miterlimit="10"/>
<path d="M206.1 79.7002V87.7002" stroke="#1D1D1B" stroke-miterlimit="10"/>
<path d="M208.8 79.7002V93.3002" stroke="#1D1D1B" stroke-miterlimit="10"/>
<path d="M219.7 79.7002V90.4002" stroke="#1D1D1B" stroke-miterlimit="10"/>
<path d="M211.5 79.7002V87.7002" stroke="#1D1D1B" stroke-miterlimit="10"/>
<path d="M214.2 79.7002V87.7002" stroke="#1D1D1B" stroke-miterlimit="10"/>
<path d="M216.9 79.7002V87.7002" stroke="#1D1D1B" stroke-miterlimit="10"/>
<path d="M222.4 79.7002V87.7002" stroke="#1D1D1B" stroke-miterlimit="10"/>
<path d="M225.1 79.7002V87.7002" stroke="#1D1D1B" stroke-miterlimit="10"/>
<path d="M227.8 79.7002V87.7002" stroke="#1D1D1B" stroke-miterlimit="10"/>
<path d="M230.5 79.7002V93.3002" stroke="#1D1D1B" stroke-miterlimit="10"/>
<path d="M241.4 79.7002V90.4002" stroke="#1D1D1B" stroke-miterlimit="10"/>
<path d="M233.3 79.7002V87.7002" stroke="#1D1D1B" stroke-miterlimit="10"/>
<path d="M236 79.7002V87.7002" stroke="#1D1D1B" stroke-miterlimit="10"/>
<path d="M238.7 79.7002V87.7002" stroke="#1D1D1B" stroke-miterlimit="10"/>
<path d="M56.5 72.4004H187" stroke="#1D1D1B" stroke-miterlimit="10"/>
</g>
<rect x="0.5" y="0.5" width="244" height="104" stroke="#BCBEC0"/>
<defs>
<radialGradient id="paint0_radial" cx="0" cy="0" r="1" gradientUnits="userSpaceOnUse" gradientTransform="translate(58.375 52.4347) scale(14.5668)">
<stop stop-color="white"/>
<stop offset="1" stop-color="#B2B2B2"/>
</radialGradient>
<radialGradient id="paint1_radial" cx="0" cy="0" r="1" gradientUnits="userSpaceOnUse" gradientTransform="translate(187.543 52.4347) rotate(180) scale(14.5668)">
<stop stop-color="white"/>
<stop offset="1" stop-color="#B2B2B2"/>
</radialGradient>
<clipPath id="clip0">
<rect width="227.9" height="53.4" fill="white" transform="translate(9 13)"/>
</clipPath>
<clipPath id="clip1">
<rect width="185.9" height="24.3" fill="white" transform="translate(56 69)"/>
</clipPath>
</defs>
</svg>
