<svg width="88" height="8" viewBox="0 0 88 8" fill="none" xmlns="http://www.w3.org/2000/svg">
<path fill-rule="evenodd" clip-rule="evenodd" d="M26.1905 0.305905C25.4341 0.316381 25.3026 0.408048 24.859 1.48919L22.4788 7.33333H22.2169L19.3212 1.04029C19.0389 0.418 18.8074 0.326333 18.3333 0.305905V0.309048C17.6335 0.319524 17.4402 0.566762 17.4402 1.14295V6.18986C17.4402 6.76605 17.634 7.01381 18.3333 7.02376V7.33333C17.4722 7.31238 17.1066 7.3019 16.7619 7.3019C16.4178 7.3019 16.0516 7.31238 15.1905 7.33333V7.02428C15.8903 7.01381 16.0841 6.76657 16.0841 6.18986V1.14295C16.0841 0.566762 15.8903 0.319 15.1905 0.309048V0C16.0516 0.0209524 16.4178 0.0309048 16.7619 0.0309048C17.1066 0.0309048 17.4722 0.0204286 18.3333 0C19.0295 0.0204286 19.493 0.0303809 19.9467 0.0303809C20.4108 0.0303809 20.8649 0.0199048 21.571 0V0.305905H21.1677C20.8041 0.305905 20.6428 0.448905 20.6428 0.693524C20.6428 0.795143 20.6732 0.876857 21.0262 1.67305L22.8318 5.74252L24.3545 1.38705C24.4451 1.11152 24.5263 0.877381 24.5263 0.693524C24.5263 0.377667 24.254 0.305905 23.8202 0.305905V0C24.4048 0.0204286 24.728 0.0303809 25.0103 0.0303809C25.2932 0.0303809 25.6153 0.0199048 26.1905 0C26.5446 0.0104762 27.0548 0.0309048 27.5864 0.0309048C29.1809 0.0309048 30.4621 0.00995238 31.4312 0L31.4731 1.73014H31.1394C30.9729 0.741714 30.525 0.391286 29.2747 0.391286H28.3685V3.36809H29.1699C30.1185 3.36809 30.2542 3.02762 30.3275 2.37914H30.6811C30.6706 2.7809 30.6601 3.16171 30.6601 3.49119C30.6601 3.97519 30.6706 4.367 30.6811 4.77871H30.327C30.327 3.96524 30.0667 3.75938 29.16 3.75938H28.368V6.21081C28.368 6.68433 28.566 6.94152 29.545 6.94152C30.6083 6.94152 31.3479 6.74614 31.5983 5.44867H31.9524C31.8895 5.94262 31.7958 6.80795 31.7958 7.33333C30.7853 7.32286 29.4622 7.3019 27.8263 7.3019C27.0239 7.3019 26.399 7.32286 26.1905 7.33333V7.02428C26.8678 7.01381 27.0548 6.76657 27.0548 6.18986V1.14295C27.0548 0.566762 26.8678 0.319 26.1905 0.309048V0.305905ZM4.12238 0C6.38262 0 8.38095 1.50019 8.38095 3.66667C8.38095 5.59429 6.82157 7.33333 4.25857 7.33333C1.99833 7.33333 0 5.83262 0 3.66667C0 1.73905 1.55938 0 4.12238 0ZM4.53043 6.95619C5.19986 6.95619 6.83205 6.56857 6.83205 4.10352C6.83205 2.1759 5.68124 0.377667 3.85052 0.377667C3.1811 0.377667 1.5489 0.765285 1.5489 3.22981C1.5489 5.15743 2.69919 6.95619 4.53043 6.95619ZM8.90476 7.02428C9.55848 7.01381 9.73919 6.76657 9.73919 6.18986V1.14295C9.73919 0.566762 9.55848 0.319 8.90476 0.309048V0C9.70933 0.0209524 10.0509 0.0309048 10.373 0.0309048C10.6946 0.0309048 11.0367 0.0204286 11.8412 0V0.309048C11.1875 0.319524 11.0063 0.566762 11.0063 1.14295V6.18986C11.0063 6.72519 11.298 6.90014 12.1325 6.90014C13.4598 6.90014 14.1235 6.72519 14.3246 5.44867H14.6667L14.5059 7.33333C13.4897 7.32286 11.5694 7.3019 9.64857 7.3019C9.34738 7.3019 9.086 7.31238 8.90476 7.33333V7.02428ZM32.4762 6.89857C33.1461 6.88809 33.3311 6.64557 33.3311 6.07881V1.12252C33.3311 0.556809 33.1467 0.314286 32.4762 0.303809V0C32.9607 0.0104762 33.3724 0.0303809 33.7538 0.0303809C34.4232 0.0303809 35.1031 0 35.773 0C37.5655 0 38.1323 0.88 38.1323 1.87105C38.1323 2.55933 37.6991 3.32776 36.6997 3.63105L37.9877 5.95781C38.4513 6.79695 38.6985 6.98971 39.2857 7.07038V7.31343C39.1312 7.32286 38.9767 7.33333 38.8117 7.33333C37.4419 7.33333 36.8751 6.86767 36.2979 5.66448L35.8967 4.82429C35.464 3.92438 35.3194 3.85314 34.6291 3.84319V6.07828C34.6291 6.64505 34.815 6.88757 35.4844 6.89752V7.20133C34.6605 7.1809 34.3101 7.17095 33.98 7.17095C33.6506 7.17095 33.3001 7.18143 32.4762 7.20133V6.89752V6.89857ZM34.6291 3.46919C34.825 3.51005 35.1031 3.5399 35.3095 3.5399C36.2366 3.5399 36.7929 3.12557 36.7929 2.14395C36.7929 1.4059 36.4116 0.303286 35.0722 0.303286C34.8868 0.303286 34.7736 0.313762 34.6291 0.343619V3.46919ZM42.4286 7.02428C43.1106 7.01433 43.2997 6.76709 43.2997 6.19038V1.14295C43.2997 0.566762 43.1111 0.319 42.4286 0.309048V0C42.7853 0.0209524 43.2997 0.0309048 43.7402 0.0309048C44.297 0.0309048 44.8528 0 45.4096 0C47.4661 0 48.1905 0.895714 48.1905 2.08057C48.1905 3.27486 47.3927 3.99614 45.4614 3.99614C45.1576 3.99614 44.7899 3.98567 44.6218 3.96471V6.18986C44.6218 6.76605 44.8109 7.01381 45.4934 7.02376V7.33333C44.6537 7.31238 44.297 7.3019 43.9607 7.3019C43.625 7.3019 43.2682 7.31238 42.4286 7.33333V7.02428ZM44.6218 3.53309C44.8213 3.57448 45.1047 3.60538 45.3148 3.60538C46.2592 3.60538 46.8265 3.18319 46.8265 2.18376C46.8265 1.42162 46.4378 0.309571 45.0733 0.309571C44.8847 0.309571 44.7695 0.320048 44.6218 0.350429V3.53309ZM48.7143 7.02428C49.3916 7.01433 49.5791 6.76709 49.5791 6.19038V1.14295C49.5791 0.566762 49.3916 0.319 48.7143 0.309048V0C49.0684 0.0104762 49.5791 0.0309048 50.1108 0.0309048C51.7047 0.0309048 52.9865 0.00995238 53.9555 0L53.9974 1.73014H53.6638C53.4972 0.741714 53.0488 0.391286 51.7985 0.391286H50.8923V3.36809H51.6942C52.6429 3.36809 52.7785 3.02762 52.8508 2.37914H53.2049C53.1944 2.7809 53.1845 3.16171 53.1845 3.49119C53.1845 3.97519 53.195 4.367 53.2054 4.77871H52.8508C52.8508 3.96524 52.5905 3.75938 51.6838 3.75938H50.8923V6.21081C50.8923 6.68433 51.0898 6.94152 52.0693 6.94152C53.1326 6.94152 53.8722 6.74614 54.1226 5.44867H54.4762C54.4133 5.94262 54.3201 6.80795 54.3201 7.33333C53.3091 7.32286 51.9865 7.3019 50.3507 7.3019C49.5477 7.3019 48.9228 7.32286 48.7143 7.33333V7.02428ZM59.6462 0C61.9064 0 63.9048 1.50019 63.9048 3.66667C63.9048 5.59429 62.3459 7.33333 59.7824 7.33333C57.5221 7.33333 55.5238 5.83262 55.5238 3.66667C55.5238 1.73905 57.0827 0 59.6462 0ZM60.0548 6.95619C60.7242 6.95619 62.3564 6.56857 62.3564 4.10352C62.3564 2.1759 61.2056 0.377667 59.3743 0.377667C58.7044 0.377667 57.0722 0.765285 57.0722 3.22981C57.0722 5.15743 58.2241 6.95619 60.0548 6.95619ZM64.4286 7.02428C65.1106 7.01381 65.2997 6.76657 65.2997 6.18986V1.14295C65.2997 0.566762 65.1106 0.319 64.4286 0.309048V0C64.7848 0.0209524 65.2997 0.0309048 65.7407 0.0309048C66.297 0.0309048 66.8528 0 67.409 0C69.4666 0 70.1905 0.895714 70.1905 2.08057C70.1905 3.27486 69.3932 3.99614 67.4614 3.99614C67.1576 3.99614 66.7899 3.98567 66.6218 3.96471V6.18986C66.6218 6.76605 66.8103 7.01381 67.4929 7.02376V7.33333C66.6532 7.31238 66.297 7.3019 65.9607 7.3019C65.6244 7.3019 65.2682 7.31238 64.4286 7.33333V7.02428ZM66.6218 3.53257C66.8213 3.57395 67.1052 3.60486 67.3153 3.60486C68.2597 3.60486 68.8265 3.18267 68.8265 2.18324C68.8265 1.4211 68.4378 0.309048 67.0733 0.309048C66.8847 0.309048 66.7695 0.319524 66.6218 0.349905V3.53257ZM70.1905 7.02428C70.8442 7.01433 71.0254 6.76709 71.0254 6.19038V1.14295C71.0254 0.566762 70.8442 0.319 70.1905 0.309048V0C70.9951 0.0209524 71.3371 0.0309048 71.6587 0.0309048C71.9809 0.0309048 72.3224 0.0204286 73.127 0V0.309048C72.4732 0.319524 72.2925 0.566762 72.2925 1.14295V6.18986C72.2925 6.72519 72.5838 6.90014 73.4187 6.90014C74.7455 6.90014 75.4092 6.72519 75.6103 5.44867H75.9524L75.7911 7.33333C74.7759 7.32286 72.8551 7.3019 70.9353 7.3019C70.6331 7.3019 70.3717 7.31238 70.1905 7.33333V7.02428ZM76.4762 7.02428C77.1535 7.01433 77.3405 6.76709 77.3405 6.19038V1.14295C77.3405 0.566762 77.1535 0.319 76.4762 0.309048V0C76.8303 0.0104762 77.3405 0.0309048 77.8721 0.0309048C79.4661 0.0309048 80.7479 0.00995238 81.7169 0L81.7588 1.73014H81.4251C81.258 0.741714 80.8107 0.391286 79.5604 0.391286H78.6537V3.36809H79.4556C80.4042 3.36809 80.5399 3.02762 80.6127 2.37914H80.9663C80.9563 2.7809 80.9453 3.16171 80.9453 3.49119C80.9453 3.97519 80.9563 4.367 80.9663 4.77871H80.6127C80.6127 3.96524 80.3519 3.75938 79.4457 3.75938H78.6537V6.21081C78.6537 6.68433 78.8512 6.94152 79.8307 6.94152C80.894 6.94152 81.6336 6.74614 81.8835 5.44867H82.2381C82.1752 5.94262 82.082 6.80795 82.082 7.33333C81.071 7.32286 79.7474 7.3019 78.1115 7.3019C77.3096 7.3019 76.6847 7.32286 76.4762 7.33333V7.02428ZM83.2857 5.28681H83.6718C83.9096 6.43919 84.8802 6.95619 85.5638 6.95619C86.5344 6.95619 87.0095 6.33024 87.0095 5.7839C87.0095 4.19362 83.3947 4.27324 83.3947 2.06748C83.3947 1.56043 83.6817 0.000523809 85.8906 0.000523809C86.4254 0.000523809 87.1687 0.0602381 87.7229 0.258762L87.7826 2.01771H87.416C87.307 1.00414 86.6533 0.37819 85.6031 0.37819C84.8011 0.37819 84.326 0.894667 84.326 1.43105C84.326 2.882 88 3.01138 88 5.22709C88 6.3999 87.1682 7.33386 85.524 7.33386C84.8901 7.33386 84.0678 7.205 83.3648 7.00595L83.2857 5.28681Z" fill="black"/>
</svg>
