<svg width="18" height="19" viewBox="0 0 18 19" fill="none" xmlns="http://www.w3.org/2000/svg">
<path d="M16.7934 4.86837C15.9886 3.48954 14.8969 2.39783 13.518 1.59304C12.1392 0.788281 10.6333 0.385986 9.00035 0.385986C7.36748 0.385986 5.86158 0.788281 4.48275 1.59304C3.10372 2.39771 2.01201 3.48942 1.20725 4.86837C0.402295 6.2474 0 7.75318 0 9.38609C0 11.2065 0.496045 12.8591 1.48826 14.3431C2.48043 15.8279 3.78123 16.9254 5.39065 17.6364C5.35938 16.8004 5.41019 16.1091 5.54289 15.5622L6.70315 10.6634C6.50777 10.2805 6.41012 9.80431 6.41012 9.23372C6.41012 8.5698 6.57796 8.0151 6.91396 7.56967C7.24997 7.12431 7.66006 6.90168 8.14449 6.90168C8.53501 6.90168 8.83575 7.03056 9.04677 7.28834C9.25783 7.54623 9.36303 7.87041 9.36303 8.26113C9.36303 8.50314 9.31792 8.79818 9.22803 9.14585C9.13822 9.49355 9.02112 9.89588 8.87659 10.353C8.73207 10.8099 8.62847 11.1754 8.56604 11.4486C8.45673 11.9251 8.5465 12.3333 8.83559 12.6733C9.12464 13.0131 9.5076 13.1832 9.98419 13.1832C10.8201 13.1832 11.5056 12.7184 12.0409 11.7888C12.5761 10.8589 12.8435 9.72997 12.8435 8.40192C12.8435 7.37831 12.5134 6.54622 11.8531 5.90577C11.1929 5.26508 10.273 4.94459 9.09319 4.94459C7.7731 4.94459 6.70463 5.36848 5.88822 6.21612C5.07176 7.06389 4.66356 8.07766 4.66356 9.25729C4.66356 9.96049 4.8628 10.5505 5.26119 11.0269C5.39398 11.1831 5.43699 11.3511 5.39008 11.5309C5.37444 11.5778 5.34324 11.6949 5.29633 11.8823C5.24962 12.0697 5.21822 12.1911 5.2027 12.2456C5.14027 12.4956 4.99172 12.5737 4.75735 12.4799C4.15586 12.2301 3.69872 11.7964 3.38632 11.1792C3.07379 10.562 2.91749 9.847 2.91749 9.03469C2.91749 8.51123 3.00151 7.98781 3.16951 7.46442C3.33735 6.94084 3.59919 6.43506 3.95457 5.94674C4.31015 5.45829 4.73592 5.0266 5.23205 4.65177C5.72797 4.27681 6.33156 3.97606 7.04252 3.74949C7.75348 3.52291 8.51904 3.40962 9.33943 3.40962C10.449 3.40962 11.4449 3.65569 12.3276 4.14788C13.2106 4.64011 13.8843 5.27674 14.3492 6.05805C14.8141 6.83941 15.0465 7.6754 15.0465 8.56602C15.0465 9.73786 14.8434 10.7925 14.4373 11.7301C14.0311 12.6676 13.4568 13.4039 12.7144 13.9389C11.9722 14.4743 11.1285 14.7419 10.1829 14.7419C9.70647 14.7419 9.26116 14.6305 8.84692 14.4079C8.43296 14.1852 8.14773 13.9217 7.99155 13.6169C7.63995 14.9995 7.42897 15.8239 7.35862 16.0895C7.2102 16.6439 6.90555 17.2847 6.44452 18.0112C7.28051 18.2612 8.13201 18.386 8.99924 18.386C10.6321 18.386 12.1381 17.9837 13.5169 17.1788C14.8958 16.3742 15.9875 15.2825 16.7921 13.9037C17.5969 12.5246 17.9992 11.0187 17.9992 9.38593C17.9996 7.75318 17.5979 6.2472 16.7934 4.86837Z" fill="white"/>
</svg>
