<svg width="50" height="37" viewBox="0 0 50 37" fill="none" xmlns="http://www.w3.org/2000/svg">
<path d="M26.6947 12.217C24.5771 11.6523 22.3183 12.0758 20.7653 13.7699C18.3653 16.1699 18.3653 19.9817 20.7653 22.3817C23.1653 24.7817 26.9771 24.7817 29.3771 22.3817C30.93 20.8288 31.4947 18.4288 30.93 16.4523" stroke="#1D1D1B" stroke-miterlimit="10"/>
<path d="M31.4419 15.8544C32.5996 14.6966 32.5996 12.8195 31.4419 11.6617C30.2841 10.5039 28.407 10.5039 27.2492 11.6617C26.0914 12.8195 26.0914 14.6966 27.2492 15.8544C28.407 17.0122 30.2841 17.0122 31.4419 15.8544Z" stroke="#1D1D1B" stroke-miterlimit="10"/>
<path d="M33.6398 26.7552C38.3812 22.0138 38.3812 14.3265 33.6398 9.58514C28.8985 4.84376 21.2112 4.84376 16.4698 9.58514C11.7284 14.3265 11.7284 22.0138 16.4698 26.7552C21.2112 31.4966 28.8985 31.4966 33.6398 26.7552Z" stroke="#1D1D1B" stroke-miterlimit="10"/>
<path d="M25 1.91113C14.1294 1.91113 4.95294 8.54643 1 18.1464C4.81176 27.6053 14.1294 34.3817 25 34.3817C35.8706 34.3817 45.1882 27.7464 49 18.1464C45.1882 8.54643 35.8706 1.91113 25 1.91113Z" stroke="#1D1D1B" stroke-miterlimit="10"/>
</svg>
