<svg width="411" height="148" viewBox="0 0 411 148" fill="none" xmlns="http://www.w3.org/2000/svg">
<path d="M409.5 74C409.5 83.6096 404.096 92.963 393.878 101.662C383.667 110.356 368.802 118.253 350.302 124.915C313.316 138.233 262.121 146.5 205.5 146.5C148.879 146.5 97.6841 138.233 60.6978 124.915C42.1982 118.253 27.3333 110.356 17.1216 101.662C6.90392 92.963 1.5 83.6096 1.5 74C1.5 64.3904 6.90392 55.037 17.1216 46.338C27.3333 37.6441 42.1982 29.747 60.6978 23.0854C97.6841 9.7667 148.879 1.5 205.5 1.5C262.121 1.5 313.316 9.7667 350.302 23.0854C368.802 29.747 383.667 37.6441 393.878 46.338C404.096 55.037 409.5 64.3904 409.5 74Z" stroke="black" stroke-width="3"/>
</svg>
