<svg width="41" height="36" viewBox="0 0 41 36" fill="none" xmlns="http://www.w3.org/2000/svg">
<g clip-path="url(#clip0)">
<path d="M40.3999 15.0999C40.3999 27.1999 31.3999 35.3999 19.7999 35.3999C7.1999 35.4999 0.399902 23.8999 0.399902 15.1999C0.399902 4.7999 10.8999 0.399902 22.3999 0.399902C34.1999 0.399902 40.3999 4.8999 40.3999 15.0999Z" stroke="#1D1D1B" stroke-width="0.75" stroke-miterlimit="10"/>
<path d="M3 12.3999C3.3 12.5999 3.6 12.6999 3.9 12.8999" stroke="#1D1D1B" stroke-width="0.75" stroke-miterlimit="10"/>
<path d="M5.5 14.2998C8 16.9998 8.9 20.9998 7.9 25.2998" stroke="#1D1D1B" stroke-width="0.75" stroke-miterlimit="10" stroke-dasharray="2.12 2.12"/>
<path d="M7.60005 26.2998C7.50005 26.5998 7.40005 26.8998 7.30005 27.2998" stroke="#1D1D1B" stroke-width="0.75" stroke-miterlimit="10"/>
<path d="M37.9 12.3999C37.6 12.5999 37.3 12.6999 37 12.8999" stroke="#1D1D1B" stroke-width="0.75" stroke-miterlimit="10"/>
<path d="M35.6001 14C32.6001 16.9 31.5001 21.6 32.7001 26.5" stroke="#1D1D1B" stroke-width="0.75" stroke-miterlimit="10" stroke-dasharray="1.79 1.79"/>
<path d="M33 27.5C33.1 27.8 33.2 28.1 33.3 28.5" stroke="#1D1D1B" stroke-width="0.75" stroke-miterlimit="10"/>
</g>
<defs>
<clipPath id="clip0">
<rect width="40.8" height="35.8" fill="white"/>
</clipPath>
</defs>
</svg>
