<svg width="638" height="494" viewBox="0 0 638 494" fill="none" xmlns="http://www.w3.org/2000/svg">
<path fill-rule="evenodd" clip-rule="evenodd" d="M22.4385 192.305C13.6793 191.673 -3.3001 210.973 1.88287 225.202L95.4769 480.226C100.66 494.455 124.263 495.648 130.566 489.529L188.159 435.651C194.586 429.875 191.403 416.185 187.589 405.679L119.588 217.912C115.773 207.416 109.803 196.858 101.178 196.547L22.4385 192.316V192.305ZM89.1226 213.815L92.4086 222.838L52.2613 223.875L48.5814 213.773L89.1226 213.815ZM147.12 447.495L140.03 428.029L150.644 420.043L157.455 438.794L147.12 447.495ZM112.902 435.091L40.7448 234.847L115.483 230.575L174.165 391.886L112.902 435.091Z" fill="#E8E8E8" fill-opacity="0.87"/>
<path fill-rule="evenodd" clip-rule="evenodd" d="M112.955 435.288L40.2585 233.55L115.453 229.288L174.57 391.802L112.955 435.288Z" fill="#B2E4F2"/>
<path fill-rule="evenodd" clip-rule="evenodd" d="M365.021 120.829C378.144 117.2 387.235 114.814 392.294 113.673C405.666 110.645 414.487 109.649 422.977 108.695C449.058 106.082 453.494 105.698 466.514 105.584C479.378 105.47 500.856 105.594 521.453 107.658C542.185 108.695 573.283 113.881 595.052 125.289C616.405 136.479 630.296 160.55 633.405 176.107C638.588 202.035 637.915 218.97 637.759 234.444C637.604 249.918 636.453 262.27 632.058 283.395C625.113 310.93 614.747 336.858 600.131 349.511C583.649 367.971 553.494 382.501 521.453 388.506C489.423 394.511 463.3 392.654 449.275 393.152C300.69 398.483 189.194 411.799 114.767 433.101L45.429 234.299L365.021 120.819V120.829Z" fill="url(#paint0_linear)" fill-opacity="0.54"/>
<path d="M225.53 277.368L458.763 225.513L235.895 90.6892" stroke="#01A6D4" stroke-linecap="square" stroke-dasharray="3 3"/>
<path d="M242.01 322.554L572.787 241.079L287.724 44.0298" stroke="#01A6D4" stroke-linecap="square" stroke-dasharray="3 3"/>
<path fill-rule="evenodd" clip-rule="evenodd" d="M169.863 53.5929L247.162 66.9923L222.18 112.075L169.863 53.5929ZM220.957 0.773193L297.727 16.8587L271.19 61.0497L220.957 0.773193Z" fill="#01A6D4"/>
<defs>
<linearGradient id="paint0_linear" x1="607.5" y1="211.5" x2="113" y2="328.5" gradientUnits="userSpaceOnUse">
<stop stop-color="#E3F4FD"/>
<stop offset="1" stop-color="#79E2FF"/>
</linearGradient>
</defs>
</svg>
