<svg width="19" height="20" viewBox="0 0 19 20" fill="none" xmlns="http://www.w3.org/2000/svg">
<g clip-path="url(#clip0)">
<path d="M16.3746 16.9184C15.8912 16.435 15.4079 15.6495 14.6224 14.5015L17.281 11.2387L15.6495 10.0302L13.5347 12.6888C12.8701 11.5408 12.145 10.2719 11.8429 9.60725C13.7764 8.82175 15.4683 7.43202 15.4683 4.89426C15.4683 3.08157 14.6828 1.81269 13.4743 1.02719C12.2659 0.302115 10.8157 0 8.27795 0H0.120846V1.02719C2.23565 1.20846 2.47734 1.51057 2.47734 3.80665V14.9245C2.47734 17.281 2.17523 17.5831 0 17.8248V18.852H8.64048L10.0906 20L12.145 17.5227C13.1118 18.4894 14.4411 18.9728 17.0997 19.0937C17.4622 19.0937 17.8248 19.0937 17.9456 19.0937L18.1269 18.1873C17.4622 17.9456 16.9789 17.5831 16.3746 16.9184ZM6.28399 2.53776C6.28399 1.93353 6.34441 1.63142 6.52568 1.45015C6.70695 1.26888 7.12991 1.14804 7.85499 1.14804C9.48641 1.14804 11.2991 2.29607 11.2991 5.37764C11.2991 6.82779 10.8761 8.03625 9.90937 8.82175C9.24471 9.42598 8.27795 9.60725 7.06949 9.60725H6.34441V2.53776H6.28399ZM8.76133 18.6103V17.8248C6.5861 17.6435 6.28399 17.3414 6.28399 14.9245V10.6949H6.8278C7.73414 10.6949 8.27795 11.0574 8.76133 11.9637C9.54683 13.3535 10.2115 14.7432 10.9366 15.8912L8.76133 18.6103Z" fill="black"/>
</g>
<defs>
<clipPath id="clip0">
<rect width="18.1269" height="20" fill="white"/>
</clipPath>
</defs>
</svg>
