<svg width="48" height="16" viewBox="0 0 48 16" fill="none" xmlns="http://www.w3.org/2000/svg">
<g clip-path="url(#clip0)">
<path d="M47 1.3C45.6 0.8 42.4 0 36.9 0C29.7 0 27.3 1.7 24 1.7C20.7 1.7 18.3 0 11.1 0C5.6 0 2.4 0.8 1 1.3C0.4 1.5 0 2.1 0 2.7V4.8C0 5.2 0.2 5.6 0.5 5.9C0.9 6.2 1.4 6.8 1.7 7.5C3.6 12 3.2 15.3 11.7 15.3C20.2 15.3 20.9 11 21.6 6.5C21.9 4.1 23.1 4.4 24 4.4C24.9 4.4 26.1 4.1 26.4 6.5C27 11 27.7 15.3 36.3 15.3C44.9 15.3 44.5 12 46.3 7.5C46.6 6.8 47.1 6.2 47.5 5.9C47.8 5.6 48 5.2 48 4.8V2.7C48 2.1 47.6 1.5 47 1.3ZM11.6 14.2C5 14.2 3.5 11.6 3.5 6.5C3.5 4.5 3.6 1.4 11.3 1.4C19 1.4 20.2 3.5 20.2 6.6C20.2 9.8 19.4 14.2 11.6 14.2ZM36.4 14.2C28.6 14.2 27.7 9.8 27.7 6.7C27.7 3.6 28.9 1.5 36.6 1.5C44.3 1.5 44.4 4.6 44.4 6.6C44.5 11.6 43 14.2 36.4 14.2Z" fill="black"/>
</g>
<defs>
<clipPath id="clip0">
<rect width="48" height="15.3" fill="white"/>
</clipPath>
</defs>
</svg>
