<svg width="34" height="26" viewBox="0 0 34 26" fill="none" xmlns="http://www.w3.org/2000/svg">
<g clip-path="url(#clip0)">
<path d="M12.2 11.5C11.3 11.5 10.7 12.2 10.7 13C10.7 13.8 11.4 14.5 12.2 14.5C13 14.5 13.7 13.8 13.7 13C13.7 12.2 13 11.5 12.2 11.5Z" fill="#BCBEC0"/>
<path d="M18.6 11.5C17.8 11.5 17.1 12.2 17.1 13C17.1 13.8 17.8 14.5 18.6 14.5C19.5 14.5 20.1 13.8 20.1 13C20.1 12.2 19.5 11.5 18.6 11.5Z" fill="#BCBEC0"/>
<path d="M25.1 11.5C24.2 11.5 23.6 12.2 23.6 13C23.6 13.8 24.3 14.5 25.1 14.5C25.9 14.5 26.6 13.8 26.6 13C26.6 12.2 26 11.5 25.1 11.5Z" fill="#BCBEC0"/>
<path d="M29.2 0H7.2C5 0 3.2 1.8 3.2 4V9.4L0.3 12.3C0.1 12.5 0 12.7 0 13C0 13.3 0.1 13.5 0.3 13.7L3.2 16.6V22C3.2 24.2 5 26 7.2 26H29.2C31.4 26 33.2 24.2 33.2 22V4C33.2 1.8 31.4 0 29.2 0ZM31.2 22C31.2 23.1 30.3 24 29.2 24H7.2C6.1 24 5.2 23.1 5.2 22V16.2C5.2 15.9 5.1 15.7 4.9 15.5L2.4 13L4.9 10.5C5.1 10.3 5.2 10.1 5.2 9.8V4C5.2 2.9 6.1 2 7.2 2H29.2C30.3 2 31.2 2.9 31.2 4V22Z" fill="#BCBEC0"/>
</g>
<defs>
<clipPath id="clip0">
<rect width="33.2" height="26" fill="white"/>
</clipPath>
</defs>
</svg>
