<svg width="40" height="11" viewBox="0 0 40 11" fill="none" xmlns="http://www.w3.org/2000/svg">
<g clip-path="url(#clip0)">
<path d="M40 3.19088H38.6325C38.0627 0.911681 36.3533 0 30.9972 0C25.755 0 23.9316 0.911681 23.4758 3.19088C22.5641 2.96296 21.4245 2.849 19.943 2.849C18.4615 2.849 17.3219 2.96296 16.4103 3.19088C15.9544 0.911681 14.245 0 8.88889 0C3.53276 0 1.82336 0.911681 1.36752 3.19088H0V4.33048H1.25356C1.25356 4.5584 1.25356 4.78633 1.25356 5.01425C1.25356 8.77493 1.59544 10.3704 9.00285 10.3704C16.4103 10.3704 16.7521 8.66097 16.7521 5.01425C16.7521 4.78633 16.7521 4.5584 16.7521 4.21652C17.5499 3.9886 18.6895 3.87464 20.1709 3.87464C21.6524 3.87464 22.6781 4.10256 23.5897 4.21652C23.5897 4.44444 23.5897 4.67237 23.5897 5.01425C23.5897 8.77493 23.9316 10.3704 31.339 10.3704C38.7464 10.3704 38.7464 8.77493 38.7464 5.01425C38.7464 4.78633 38.7464 4.5584 38.7464 4.33048H40V3.19088ZM16.0684 5.01425C16.0684 8.43305 16.0684 9.80057 8.88889 9.80057C1.7094 9.80057 1.82336 8.43305 1.82336 5.01425C1.82336 4.78633 1.82336 4.5584 1.82336 4.33048H3.4188V3.19088H1.93732C2.39316 1.36752 3.87464 0.569801 8.88889 0.569801C14.0171 0.569801 15.4986 1.36752 15.8405 3.30484C15.0427 3.53276 14.5869 3.76068 14.4729 3.76068L14.9288 4.78632C14.9288 4.78632 15.2707 4.67237 15.8405 4.44445C16.0684 4.67237 16.0684 4.78633 16.0684 5.01425ZM38.1766 5.01425C38.1766 8.43305 38.1766 9.80057 30.9972 9.80057C23.8177 9.80057 23.9316 8.43305 23.9316 5.01425C23.9316 4.78633 23.9316 4.5584 23.9316 4.44445C24.5014 4.67237 24.8433 4.78632 24.8433 4.78632L25.2991 3.76068C25.2991 3.76068 24.8433 3.53276 23.9316 3.30484C24.2735 1.36752 25.755 0.569801 30.8832 0.569801C36.0114 0.569801 37.4929 1.36752 37.8348 3.19088H36.3533V4.33048H37.9487C38.1766 4.5584 38.1766 4.78633 38.1766 5.01425Z" fill="black"/>
</g>
<defs>
<clipPath id="clip0">
<rect width="40" height="10.4843" fill="white"/>
</clipPath>
</defs>
</svg>
