<svg width="49" height="16" viewBox="0 0 49 16" fill="none" xmlns="http://www.w3.org/2000/svg">
    <g clip-path="url(#clip0)">
        <path d="M47.3 5.6H46C44.8 5.6 43.7 4.9 43 3.9C41.6 1.6 39 0 36.1 0C33.2 0 30.7 1.5 29.3 3.8C28.8 4.6 27.8 5 26.9 4.6C26.1 4.2 25.1 4 24.1 4C23.1 4 22.1 4.2 21.2 4.6C20.3 5 19.3 4.6 18.8 3.8C17.4 1.5 14.9 0 12 0C9.1 0 6.6 1.6 5.2 3.9C4.6 4.9 3.5 5.6 2.2 5.6H1C0.5 5.6 0 6 0 6.6V7.3C0 7.8 0.4 8.3 1 8.3H1.5C3.3 8.3 4.5 11.4 5.8 13.1C7.3 14.9 9.5 16.1 12.1 16.1C15.4 16.1 18.2 14.1 19.4 11.3C21.1 10.6 20.9 6 24.1 6C27.3 6 27.1 10.7 28.8 11.3C30 14.1 32.9 16.1 36.1 16.1C38.6 16.1 40.9 14.9 42.4 13.1C43.8 11.4 45 8.3 46.7 8.3H47.2C47.7 8.3 48.2 7.9 48.2 7.3V6.5C48.3 6 47.8 5.6 47.3 5.6ZM12 15C8.2 15 5.1 11.9 5.1 8C5.1 4.1 8.2 1.1 12 1.1C15.8 1.1 19 4.2 19 8C19 11.8 15.9 15 12 15ZM36.2 15C32.4 15 29.3 11.9 29.3 8.1C29.3 4.3 32.4 1.2 36.2 1.2C40 1.2 43.1 4.3 43.1 8.1C43.1 11.9 40 15 36.2 15Z" fill="black"/>
    </g>
    <defs>
        <clipPath id="clip0">
            <rect width="48.3" height="16" fill="white"/>
        </clipPath>
    </defs>
</svg>
