<svg enable-background="new 0 0 2734.8 267.826" height="267.826" viewBox="0 0 2734.8 267.826" width="2734.8" xmlns="http://www.w3.org/2000/svg"><g fill="#121722"><path d="m139.287 111.353c-64.086-16.469-76.262-18.975-76.262-38.66 0-21.492 20.765-29.013 38.669-29.013 26.852 0 48.694 7.884 50.485 38.673h54.426c0-59.079-49.053-82.357-102.407-82.357-46.188-.001-95.595 25.074-95.595 77.344 0 47.976 38.312 62.661 76.259 72.686 37.602 10.025 75.914 14.686 75.914 42.253 0 26.142-30.077 31.864-49.769 31.864-30.077 0-56.576-13.253-56.576-47.259h-54.424c-.719 63.017 52.274 90.942 108.849 90.942 69.458 0 106.346-35.092 106.346-81.992-.001-58.011-57.295-69.821-75.915-74.481"/><path d="m483.012 261.74h56.212v-255.645h-56.212z"/><path d="m871.139 261.74h56.214v-208.38h76.623v-47.266h-259.234v171.498h-.71l-106.706-171.498h-55.852v255.646h52.629v-171.145h.718l106.344 171.145h56.214v-208.38h73.76z"/><path d="m305.786 162.914 33.3-93.813h.715l32.222 93.813zm5.371-156.82-97.035 255.646h56.93l20.053-56.931h95.598l19.337 56.931h58.363l-95.605-255.646z"/><path d="m2141.871 151.823h123.856v-43.685h-123.856v-54.778h134.973v-47.266h-191.203v255.646h194.074v-47.257h-137.844z"/><path d="m2528.194 6.094h-52.632v171.498h-.708l-106.717-171.498h-55.84v255.646h52.612v-171.145h.728l106.344 171.145h56.213v-208.38h73.762v208.38h56.211v-208.38h76.635v-47.266z"/><path d="m1950.315 121.741h-61.583v-71.973h61.583c25.047 0 38.662 10.746 38.662 35.456 0 25.776-13.615 36.517-38.662 36.517zm54.421 19.698v-.728c28.293-11.457 40.453-34.005 40.453-64.093 0-38.66-29.001-70.524-74.825-70.524h-137.86v255.646h56.229v-99.893h56.193c28.311 0 38.681 11.815 42.615 38.672 2.872 20.408 2.146 45.104 8.952 61.221h56.23c-10.033-14.319-9.68-44.404-10.761-60.511-1.772-25.782-9.661-52.635-37.226-59.79"/><path d="m1791.343 165.063v-158.969h-56.239v158.969c0 37.962-12.867 55.5-52.975 55.5-45.479 0-52.639-27.574-52.639-55.5v-158.969h-56.2v158.969c0 69.462 40.095 102.764 108.839 102.764 68.387-.001 109.214-33.659 109.214-102.764"/><path d="m1406.065 162.914 33.306-93.813h.72l32.213 93.813zm5.373-156.82-97.032 255.646h56.925l20.067-56.931h95.6l19.319 56.931h58.374l-95.6-255.646h-57.653"/><path d="m1174.768 6.094h-56.212v255.646h180.814v-47.257h-124.603v-208.389"/><path d="m139.287 111.353c-64.086-16.469-76.262-18.975-76.262-38.66 0-21.492 20.765-29.013 38.669-29.013 26.852 0 48.694 7.884 50.485 38.673h54.426c0-59.079-49.053-82.357-102.407-82.357-46.188-.001-95.595 25.074-95.595 77.344 0 47.976 38.312 62.661 76.259 72.686 37.602 10.025 75.914 14.686 75.914 42.253 0 26.142-30.077 31.864-49.769 31.864-30.077 0-56.576-13.253-56.576-47.259h-54.424c-.719 63.017 52.274 90.942 108.849 90.942 69.458 0 106.346-35.092 106.346-81.992-.001-58.011-57.295-69.821-75.915-74.481"/><path d="m483.012 261.74h56.212v-255.645h-56.212z"/><path d="m871.139 261.74h56.214v-208.38h76.623v-47.266h-259.234v171.498h-.71l-106.706-171.498h-55.852v255.646h52.629v-171.145h.718l106.344 171.145h56.214v-208.38h73.76z"/><path d="m305.786 162.914 33.3-93.813h.715l32.222 93.813zm5.371-156.82-97.035 255.646h56.93l20.053-56.931h95.598l19.337 56.931h58.363l-95.605-255.646z"/><path d="m2141.871 151.823h123.856v-43.685h-123.856v-54.778h134.973v-47.266h-191.203v255.646h194.074v-47.257h-137.844z"/><path d="m2528.194 6.094h-52.632v171.498h-.708l-106.717-171.498h-55.84v255.646h52.612v-171.145h.728l106.344 171.145h56.213v-208.38h73.762v208.38h56.211v-208.38h76.635v-47.266z"/><path d="m1950.315 121.741h-61.583v-71.973h61.583c25.047 0 38.662 10.746 38.662 35.456 0 25.776-13.615 36.517-38.662 36.517zm54.421 19.698v-.728c28.293-11.457 40.453-34.005 40.453-64.093 0-38.66-29.001-70.524-74.825-70.524h-137.86v255.646h56.229v-99.893h56.193c28.311 0 38.681 11.815 42.615 38.672 2.872 20.408 2.146 45.104 8.952 61.221h56.23c-10.033-14.319-9.68-44.404-10.761-60.511-1.772-25.782-9.661-52.635-37.226-59.79"/><path d="m1791.343 165.063v-158.969h-56.239v158.969c0 37.962-12.867 55.5-52.975 55.5-45.479 0-52.639-27.574-52.639-55.5v-158.969h-56.2v158.969c0 69.462 40.095 102.764 108.839 102.764 68.387-.001 109.214-33.659 109.214-102.764"/><path d="m1406.065 162.914 33.306-93.813h.72l32.213 93.813zm5.373-156.82-97.032 255.646h56.925l20.067-56.931h95.6l19.319 56.931h58.374l-95.6-255.646h-57.653"/><path d="m1174.768 6.094h-56.212v255.646h180.814v-47.257h-124.603v-208.389"/></g></svg>