<svg width="944" height="509" viewBox="0 0 944 509" fill="none" xmlns="http://www.w3.org/2000/svg">
<mask id="mask0" mask-type="alpha" maskUnits="userSpaceOnUse" x="0" y="0" width="944" height="509">
<path d="M0 0H943.3V508.181H0V0Z" fill="white"/>
</mask>
<g mask="url(#mask0)">
<path fill-rule="evenodd" clip-rule="evenodd" d="M123.438 198.306C114.679 197.673 97.6997 216.974 102.883 231.203L196.477 486.226C201.66 500.455 225.263 501.648 231.565 495.529L289.158 441.652C295.585 435.875 292.403 422.185 288.588 411.679L220.588 223.912C216.773 213.416 210.802 202.859 202.178 202.547L123.438 198.316V198.306ZM190.122 219.815L193.408 228.838L153.261 229.875L149.581 219.774L190.122 219.815ZM248.12 453.495L241.029 434.029L251.644 426.043L258.455 444.794L248.12 453.495ZM213.902 441.092L141.745 240.848L216.483 236.575L275.164 397.886L213.902 441.092Z" fill="#E8E8E8" fill-opacity="0.87"/>
<path fill-rule="evenodd" clip-rule="evenodd" d="M213.955 441.288L141.258 239.551L216.453 235.288L275.57 397.802L213.955 441.288Z" fill="#B2E4F2"/>
<path fill-rule="evenodd" clip-rule="evenodd" d="M466.021 126.83C479.144 123.2 488.235 120.814 493.294 119.674C506.666 116.645 515.487 115.65 523.977 114.696C550.057 112.082 554.494 111.698 567.514 111.584C580.378 111.47 601.856 111.595 622.453 113.658C643.185 114.696 674.283 119.881 696.051 131.289C717.405 142.48 731.295 166.551 734.405 182.107C739.588 208.035 738.914 224.971 738.759 240.444C738.603 255.918 737.453 268.27 733.058 289.396C726.112 316.931 715.747 342.858 701.131 355.511C684.649 373.971 654.494 388.501 622.453 394.506C590.422 400.511 564.3 398.654 550.275 399.152C401.69 404.483 290.194 417.799 215.766 439.102L146.429 240.299L466.021 126.819V126.83Z" fill="url(#paint0_linear)" fill-opacity="0.54"/>
<path d="M326.529 283.368L559.763 231.513L336.895 96.6895" stroke="#01A6D4" stroke-linecap="square" stroke-dasharray="3 3"/>
<path d="M343.009 328.554L673.786 247.079L388.723 50.0298" stroke="#01A6D4" stroke-linecap="square" stroke-dasharray="3 3"/>
<path fill-rule="evenodd" clip-rule="evenodd" d="M270.863 59.5931L348.162 72.9925L323.18 118.075L270.863 59.5931ZM321.956 6.77344L398.727 22.8589L372.19 67.0499L321.956 6.77344Z" fill="#01A6D4"/>
</g>
<defs>
<linearGradient id="paint0_linear" x1="708.5" y1="217.5" x2="214" y2="334.5" gradientUnits="userSpaceOnUse">
<stop stop-color="#E3F4FD"/>
<stop offset="1" stop-color="#79E2FF"/>
</linearGradient>
</defs>
</svg>
