<svg width="40" height="11" viewBox="0 0 40 11" fill="none" xmlns="http://www.w3.org/2000/svg">
<g clip-path="url(#clip0)">
<path d="M39.41 0.707965C38.8201 0.117994 37.9941 0 37.0501 0H24.7788C22.7729 0 22.1829 1.41593 22.0649 2.71386C21.4749 2.59587 20.767 2.47788 20.059 2.47788C19.233 2.47788 18.6431 2.59587 18.0531 2.71386C17.8171 1.41593 17.3451 0 15.2212 0H2.94985C2.12389 0 1.17994 0.117994 0.707965 0.707965C0.117994 1.17994 0 1.65192 0 2.59587C0 3.42183 0.117994 4.12979 0.58997 4.83776C0.825959 5.30973 1.06195 5.8997 1.06195 6.48968C1.41593 9.20354 3.65782 10.6195 7.9056 10.6195C15.2212 10.6195 16.9911 9.55752 16.9911 4.95575C16.9911 4.71976 17.5811 4.24779 17.9351 4.12979C18.5251 3.89381 19.233 3.77581 20.177 3.77581C21.1209 3.77581 21.8289 3.89381 22.4189 4.12979C22.7729 4.36578 23.3628 4.71976 23.3628 4.95575C23.1268 9.43953 24.8968 10.6195 32.2124 10.6195C36.3422 10.6195 38.7021 9.20354 38.938 6.48968C39.056 5.8997 39.174 5.30973 39.528 4.83776C39.882 4.12979 40.118 3.30383 40.118 2.59587C40 1.65192 39.882 1.17994 39.41 0.707965ZM7.9056 10.0295C3.65782 10.0295 1.65192 8.61357 1.65192 5.8997V2.71386C1.65192 2.24189 1.76991 2.0059 1.76991 1.88791C1.76991 1.88791 2.0059 1.76991 2.83186 1.76991H15.1032C15.5752 1.76991 15.8112 1.76991 16.0472 2.35988C16.0472 2.94985 16.1652 3.77581 16.1652 5.07375C16.2832 8.84956 15.2212 10.0295 7.9056 10.0295ZM38.3481 5.8997C38.3481 8.73156 36.3422 10.0295 32.0944 10.0295C24.7788 10.0295 23.5988 8.84956 23.5988 4.95575C23.5988 3.65782 23.5988 2.71386 23.7168 2.24189C23.9528 1.65192 24.1888 1.65192 24.6608 1.65192H36.9322C37.7581 1.65192 37.9941 1.76991 37.9941 1.76991C38.1121 1.88791 38.1121 2.24189 38.1121 2.59587V5.8997H38.3481Z" fill="black"/>
</g>
<defs>
<clipPath id="clip0">
<rect width="40" height="10.6195" fill="white"/>
</clipPath>
</defs>
</svg>
