<svg width="40" height="20" viewBox="0 0 40 20" fill="none" xmlns="http://www.w3.org/2000/svg">
<path d="M0.8 4.69998C0.3 4.84998 0 5.29998 0 5.79998V7.49998C0 7.84998 0.15 8.14997 0.4 8.39997C0.7 8.69998 1.15 9.14998 1.35 9.69998C2.85 13.4 2.55 16.05 9.5 16.05C16.45 16.05 17 12.6 17.55 8.89997C17.85 6.89998 18.75 7.14998 19.55 7.14998V4.99998C16.85 4.99998 14.95 3.59998 9.05 3.59998C4.55 3.59998 1.95 4.24998 0.8 4.69998ZM1.25 7.39998C1.1 7.39998 1 7.29998 1 7.14998C1 6.99998 1.1 6.89998 1.25 6.89998C1.4 6.89998 1.5 6.99998 1.5 7.14998C1.5 7.29998 1.4 7.39998 1.25 7.39998ZM1.25 6.24998C1.1 6.24998 1 6.14998 1 5.99998C1 5.84998 1.1 5.74998 1.25 5.74998C1.4 5.74998 1.5 5.84998 1.5 5.94998C1.5 6.09998 1.4 6.24998 1.25 6.24998ZM16.45 9.04998C16.45 11.55 15.75 15.15 9.4 15.15C4.05 15.15 2.85 13.05 2.85 8.89997C2.85 7.24998 2.95 4.74998 9.2 4.74998C15.45 4.79998 16.45 6.54998 16.45 9.04998Z" fill="black"/>
<path d="M38.95 5.85007C36.8 5.85007 36.25 3.70007 31.45 3.70007C29.1 3.70007 27.05 4.30007 25.75 5.25007C25.75 5.25007 25.2 5.70007 24.65 5.70007C24.15 5.70007 23.85 5.10007 23.2 5.10007C22.55 5.10007 21.75 5.10007 21.75 5.10007V6.60007C22.5 6.60007 23.25 6.70007 23.75 6.90007C24.05 7.05007 24.25 7.35007 24.25 7.70007C24.25 8.20007 23.9 8.10007 23.9 8.50007C23.95 12.2501 27.05 16.3001 31.3 16.3001C36 16.3001 37.5 12.2501 37.95 9.45007C38.1 8.40007 38.5 7.80007 39.25 7.80007C39.8 7.80007 40 7.70007 40 7.35007C40 6.95007 40 6.65007 40 6.30007C40 5.95007 39.65 5.85007 38.95 5.85007ZM31.4 15.6001C28.2 15.6001 25.2 13.2001 25.2 9.25007C25.2 5.35007 28.95 4.50007 31.5 4.50007C34.05 4.50007 37.15 5.40007 37.15 9.05007C37.15 12.7001 34.65 15.6001 31.4 15.6001ZM38.8 7.20007C38.65 7.20007 38.5 7.10007 38.45 7.00007C38.4 7.10007 38.25 7.20007 38.1 7.20007C37.85 7.20007 37.7 7.05007 37.7 6.80007C37.7 6.60007 37.9 6.40007 38.1 6.40007C38.25 6.40007 38.4 6.50007 38.45 6.60007C38.5 6.50007 38.65 6.40007 38.8 6.40007C39.05 6.40007 39.2 6.55007 39.2 6.80007C39.2 7.05007 39.05 7.20007 38.8 7.20007Z" fill="black"/>
<path d="M20.8999 0H20.3999V19.7H20.8999V0Z" fill="black"/>
</svg>
