<svg width="25" height="30" viewBox="0 0 25 30" fill="none" xmlns="http://www.w3.org/2000/svg">
<g clip-path="url(#clip0)">
<path d="M23.3 18.5H18.1V10.6H23.3C23.9 10.6 24.3 10.2 24.3 9.6C24.3 9 23.9 8.6 23.3 8.6H18.1V5.9C18.1 5.3 17.7 4.9 17.1 4.9C16.5 4.9 16.1 5.3 16.1 5.9V8.7H8.2V1C8.2 0.4 7.8 0 7.2 0C6.6 0 6.2 0.4 6.2 1V8.6H1C0.4 8.6 0 9 0 9.6C0 10.2 0.4 10.6 1 10.6H6.2V18.5H1C0.4 18.5 0 18.9 0 19.5C0 20.1 0.4 20.5 1 20.5H6.2V23.3C6.2 23.9 6.6 24.3 7.2 24.3C7.8 24.3 8.2 23.9 8.2 23.3V20.5H16.1V28.1C16.1 28.7 16.5 29.1 17.1 29.1C17.7 29.1 18.1 28.7 18.1 28.1V20.5H23.3C23.9 20.5 24.3 20.1 24.3 19.5C24.3 18.9 23.8 18.5 23.3 18.5ZM8.2 18.5V10.6H16.1V18.5H8.2Z" fill="#BCBEC0"/>
</g>
<defs>
<clipPath id="clip0">
<rect width="24.3" height="29.1" fill="white"/>
</clipPath>
</defs>
</svg>
