<svg width="40" height="16" viewBox="0 0 40 16" fill="none" xmlns="http://www.w3.org/2000/svg">
<g clip-path="url(#clip0)">
<path d="M30.4225 0C25.9155 0 24.2254 0.338028 22.7606 0.676056C21.8592 0.901408 21.1831 1.01408 20.0563 1.01408C18.9296 1.01408 18.2535 0.901408 17.3521 0.676056C15.8873 0.338028 14.1972 0 9.69014 0C2.14085 0 0 1.12676 0 5.29577V10.3662C0 13.7465 2.3662 16.1127 5.74648 16.1127H12.8451C15.8873 16.1127 16.7887 13.0704 17.5775 10.7042C18.2535 8.4507 18.8169 7.09859 19.9437 7.09859C21.0704 7.09859 21.6338 8.4507 22.3099 10.7042C23.0986 13.0704 24 16.1127 27.0423 16.1127H34.1408C37.6338 16.1127 39.8873 13.8592 39.8873 10.3662V5.29577C40 1.12676 37.8592 0 30.4225 0ZM38.6479 10.3662C38.6479 12.9577 36.9577 14.6479 34.2535 14.6479H27.1549C25.3521 14.6479 24.6761 12.9577 23.7746 10.2535C23.0986 8 22.3099 5.6338 20.0563 5.6338C17.8028 5.6338 17.0141 7.88732 16.2254 10.1408C15.4366 12.8451 14.6479 14.5352 12.8451 14.5352H5.74648C3.15493 14.5352 1.35211 12.8451 1.35211 10.2535V5.29577C1.35211 3.04225 1.35211 1.57746 9.57746 1.57746C13.8592 1.57746 15.5493 1.91549 16.9014 2.25352C17.8028 2.47887 18.5915 2.59155 19.9437 2.59155C21.2958 2.59155 22.0845 2.3662 22.9859 2.25352C24.338 1.91549 26.0282 1.57746 30.3099 1.57746C38.5352 1.57746 38.5352 3.04225 38.5352 5.29577V10.3662H38.6479Z" fill="#1D1D1B"/>
</g>
<defs>
<clipPath id="clip0">
<rect width="40" height="16" fill="white"/>
</clipPath>
</defs>
</svg>
