<svg width="805" height="463" viewBox="0 0 805 463" fill="none" xmlns="http://www.w3.org/2000/svg">
<path d="M349.564 234.895V227.71H348.265V236H353.571V234.895H349.564ZM360.62 227.71H359.322L355.895 235.931V236H357.263L358.023 234.038H361.905L362.679 236H364.033V235.931L360.62 227.71ZM358.424 233.016L359.957 229.078L361.505 233.016H358.424ZM373.183 230.266C373.183 228.691 372.133 227.71 370.475 227.71H366.731V236H367.988V232.822H370.102L371.829 236H373.183V235.876L371.36 232.712C372.506 232.421 373.183 231.537 373.183 230.266ZM367.988 228.76H370.227C371.235 228.76 371.898 229.354 371.898 230.266C371.898 231.192 371.235 231.786 370.227 231.786H367.988V228.76ZM384.304 231.275H380.504V232.214H383.171C383.129 233.9 381.941 235.019 380.297 235.019C378.584 235.019 377.285 233.693 377.285 231.855C377.285 230.031 378.584 228.705 380.297 228.705C381.361 228.705 382.148 229.161 382.687 229.81L383.53 229.078C382.839 228.193 381.637 227.585 380.283 227.585C377.824 227.585 376 229.409 376 231.855C376 234.314 377.824 236.138 380.283 236.138C382.867 236.138 384.649 234.149 384.304 231.275ZM393.465 228.774V227.71H387.634V236H393.465V234.936H388.905V232.269H393.036V231.219H388.905V228.774H393.465ZM406.214 227.71H404.915L401.489 235.931V236H402.857L403.617 234.038H407.499L408.273 236H409.627V235.931L406.214 227.71ZM404.017 233.016L405.551 229.078L407.098 233.016H404.017ZM418.777 230.266C418.777 228.691 417.727 227.71 416.069 227.71H412.325V236H413.582V232.822H415.696L417.423 236H418.777V235.876L416.953 232.712C418.1 232.421 418.777 231.537 418.777 230.266ZM413.582 228.76H415.82C416.829 228.76 417.492 229.354 417.492 230.266C417.492 231.192 416.829 231.786 415.82 231.786H413.582V228.76ZM427.802 228.774V227.71H421.971V236H427.802V234.936H423.243V232.269H427.374V231.219H423.243V228.774H427.802ZM434.858 227.71H433.559L430.133 235.931V236H431.5L432.26 234.038H436.143L436.917 236H438.271V235.931L434.858 227.71ZM432.661 233.016L434.195 229.078L435.742 233.016H432.661ZM450.522 236.166C452.996 236.166 454.82 234.342 454.806 231.896C454.82 229.451 452.996 227.641 450.522 227.641C448.077 227.641 446.267 229.451 446.253 231.896C446.267 234.342 448.077 236.166 450.522 236.166ZM450.522 235.019C448.823 235.019 447.552 233.693 447.538 231.896C447.552 230.1 448.823 228.774 450.522 228.774C452.263 228.774 453.521 230.1 453.521 231.896C453.521 233.693 452.263 235.019 450.522 235.019ZM463.593 228.815V227.71H458.121V236H459.42V232.421H463.234V231.33H459.42V228.815H463.593ZM476.409 234.991C474.668 234.991 473.369 233.637 473.369 231.855C473.369 230.073 474.668 228.718 476.409 228.718C477.349 228.718 478.219 229.105 478.633 229.575L479.324 228.801C478.703 228.055 477.611 227.572 476.271 227.572C473.908 227.572 472.084 229.451 472.084 231.855C472.084 234.259 473.908 236.138 476.271 236.138C477.611 236.138 478.703 235.655 479.324 234.908L478.633 234.135C478.219 234.604 477.349 234.991 476.409 234.991ZM483.783 234.895V227.71H482.484V236H487.79V234.895H483.783ZM496.696 228.774V227.71H490.865V236H496.696V234.936H492.136V232.269H496.268V231.219H492.136V228.774H496.696ZM503.752 227.71H502.453L499.026 235.931V236H500.394L501.154 234.038H505.037L505.81 236H507.164V235.931L503.752 227.71ZM501.555 233.016L503.088 229.078L504.636 233.016H501.555ZM516.315 230.266C516.315 228.691 515.265 227.71 513.606 227.71H509.862V236H511.119V232.822H513.233L514.961 236H516.315V235.876L514.491 232.712C515.638 232.421 516.315 231.537 516.315 230.266ZM511.119 228.76H513.358C514.366 228.76 515.03 229.354 515.03 230.266C515.03 231.192 514.366 231.786 513.358 231.786H511.119V228.76ZM527.695 236H528.787L532.144 227.779V227.71H530.776L528.248 234.149L525.733 227.71H524.365V227.779L527.695 236ZM536.305 227.71H535.006V236H536.305V227.71ZM545.779 229.478C545.323 228.373 544.328 227.599 542.587 227.599C541.012 227.599 539.534 228.221 539.534 229.838C539.534 231.496 541.261 231.924 542.532 232.256C543.872 232.601 544.66 232.877 544.66 233.803C544.66 234.715 543.803 235.074 542.767 235.074C541.703 235.074 540.764 234.618 540.391 233.499L539.354 234.01C539.769 235.42 541.109 236.138 542.739 236.138C544.37 236.138 545.931 235.544 545.931 233.858C545.931 232.311 544.771 231.758 543.154 231.316C541.8 230.943 540.805 230.736 540.805 229.824C540.805 228.981 541.606 228.636 542.546 228.636C543.651 228.636 544.384 229.147 544.757 229.962L545.779 229.478ZM550.536 227.71H549.237V236H550.536V227.71ZM558.104 236.166C560.577 236.166 562.401 234.342 562.387 231.896C562.401 229.451 560.577 227.641 558.104 227.641C555.658 227.641 553.848 229.451 553.834 231.896C553.848 234.342 555.658 236.166 558.104 236.166ZM558.104 235.019C556.404 235.019 555.133 233.693 555.119 231.896C555.133 230.1 556.404 228.774 558.104 228.774C559.845 228.774 561.102 230.1 561.102 231.896C561.102 233.693 559.845 235.019 558.104 235.019ZM572.736 236V227.71H571.451V233.803L566.642 227.71H565.703V236H566.988V229.921L571.796 236H572.736Z" fill="black"/>
<line x1="452.5" y1="44" x2="452.5" y2="204" stroke="#BCBEC0" stroke-dasharray="4 4"/>
<line x1="452.5" y1="259" x2="452.5" y2="419" stroke="#BCBEC0" stroke-dasharray="4 4"/>
<path d="M532 0C183 0 135.7 138.3 0 113V177C0 177 77.2 151.5 106.3 218.7C169 363 221 463 444 463C658 463 720.3 345 737.3 223C754.3 101 805 93 805 60C805 27 757 0 532 0ZM435.7 439.7C183 439.7 133 237 133 171C133 77 391.7 29 539.7 29C687.7 29 713 94.3 713 171C713 247.7 691 439.7 435.7 439.7Z" fill="#E8E8E8"/>
</svg>
