<svg width="42" height="17" viewBox="0 0 42 17" fill="none" xmlns="http://www.w3.org/2000/svg">
<g clip-path="url(#clip0)">
<path d="M37.2105 0C34.1711 0 31.7763 0 28.9211 0C25.2368 0 23.8553 1.84211 20.9079 1.84211C17.9605 1.84211 16.6711 0 12.8947 0C10.0395 0 7.64474 0 4.60526 0C1.75 0 0 0.644737 0 2.11842C0 9.21053 0.921053 16.3026 5.52632 16.3026C10.1316 16.3026 10.0395 16.3026 13.7237 16.3026C17.4079 16.3026 20.0789 11.0526 20.0789 4.69737C20.0789 4.14474 21 4.14474 21 4.14474C21 4.14474 21.9211 4.14474 21.9211 4.69737C21.9211 11.0526 24.6842 16.3026 28.2763 16.3026C31.8684 16.3026 31.8684 16.3026 36.4737 16.3026C41.0789 16.3026 42 9.21053 42 2.11842C42 0.644737 40.25 0 37.2105 0ZM18.5132 8.19737C18.5132 10.6842 16.0263 14.8289 13.6316 14.8289C11.2368 14.8289 8.93421 14.8289 6.26316 14.8289C3.59211 14.8289 1.93421 11.7895 1.93421 5.43421C1.93421 2.11842 4.14474 1.47368 10.2237 1.47368C16.3026 1.47368 18.5132 2.85526 18.5132 3.86842C18.5132 4.88158 18.5132 5.80263 18.5132 8.19737ZM35.7368 14.8289C33.0658 14.8289 30.7632 14.8289 28.3684 14.8289C25.9737 14.8289 23.4868 10.6842 23.4868 8.19737C23.4868 5.71053 23.4868 4.88158 23.4868 3.86842C23.4868 2.85526 25.6974 1.47368 31.7763 1.47368C37.8553 1.47368 40.0658 2.11842 40.0658 5.43421C40.0658 11.7895 38.4079 14.8289 35.7368 14.8289Z" fill="black"/>
</g>
<defs>
<clipPath id="clip0">
<rect width="42" height="16.3026" fill="white"/>
</clipPath>
</defs>
</svg>
