<svg width="23" height="18" viewBox="0 0 23 18" fill="none" xmlns="http://www.w3.org/2000/svg">
<g clip-path="url(#clip0)">
<path d="M20.9199 0H1.5C1.10218 0 0.720758 0.158026 0.439453 0.439331C0.158149 0.720636 0 1.10218 0 1.5V13.5001C0 13.8979 0.158149 14.2794 0.439453 14.5607C0.720758 14.842 1.10218 15.0001 1.5 15.0001H6.14014L8.14014 17.0001C8.23245 17.0943 8.35811 17.1481 8.48999 17.15C8.62187 17.1481 8.74777 17.0943 8.84009 17.0001L10.76 15.0001H20.9199C21.3177 15.0001 21.6994 14.842 21.9807 14.5607C22.262 14.2794 22.4199 13.8979 22.4199 13.5001V1.5C22.4199 1.10218 22.262 0.720636 21.9807 0.439331C21.6994 0.158026 21.3177 0 20.9199 0ZM21.4199 13.5001C21.4199 13.6327 21.3675 13.7599 21.2737 13.8536C21.1799 13.9474 21.0525 14.0001 20.9199 14.0001H10.55C10.4831 13.9997 10.4166 14.0127 10.3547 14.0385C10.2929 14.0642 10.2368 14.1022 10.1899 14.15L8.47998 15.91L6.70996 14.14C6.61765 14.0458 6.49199 13.992 6.36011 13.9901H1.51001C1.3774 13.9901 1.25026 13.9374 1.15649 13.8436C1.06273 13.7499 1.01001 13.6227 1.01001 13.4901V1.48999C1.01001 1.35738 1.06273 1.23024 1.15649 1.13647C1.25026 1.04271 1.3774 0.98999 1.51001 0.98999H20.9299C21.0625 0.98999 21.1899 1.04271 21.2837 1.13647C21.3775 1.23024 21.4299 1.35738 21.4299 1.48999V13.4901L21.4199 13.5001Z" fill="black"/>
<path d="M5.94988 6.5498C5.78967 6.5498 5.63313 6.59728 5.49993 6.68628C5.36672 6.77528 5.26289 6.9018 5.20159 7.0498C5.14028 7.19781 5.12419 7.3607 5.15544 7.51782C5.1867 7.67495 5.26384 7.81921 5.37712 7.9325C5.4904 8.04578 5.63479 8.12292 5.79192 8.15417C5.94904 8.18543 6.11193 8.16934 6.25994 8.10803C6.40794 8.04673 6.53446 7.94302 6.62346 7.80981C6.71247 7.67661 6.75994 7.51994 6.75994 7.35974C6.75994 7.14492 6.67454 6.93889 6.52263 6.78699C6.37073 6.63508 6.1647 6.5498 5.94988 6.5498Z" fill="black"/>
<path d="M11.2099 6.5498C11.0497 6.5498 10.8931 6.59728 10.7599 6.68628C10.6267 6.77528 10.5229 6.9018 10.4616 7.0498C10.4003 7.19781 10.3842 7.3607 10.4155 7.51782C10.4467 7.67495 10.5239 7.81921 10.6371 7.9325C10.7504 8.04578 10.8948 8.12292 11.0519 8.15417C11.2091 8.18543 11.3719 8.16934 11.5199 8.10803C11.668 8.04673 11.7945 7.94302 11.8835 7.80981C11.9725 7.67661 12.0199 7.51994 12.0199 7.35974C12.0199 7.14492 11.9345 6.93889 11.7826 6.78699C11.6307 6.63508 11.4247 6.5498 11.2099 6.5498Z" fill="black"/>
<path d="M16.4699 6.5498C16.3097 6.5498 16.1532 6.59728 16.0199 6.68628C15.8867 6.77528 15.7829 6.9018 15.7216 7.0498C15.6603 7.19781 15.6442 7.3607 15.6755 7.51782C15.7067 7.67495 15.7839 7.81921 15.8971 7.9325C16.0104 8.04578 16.1548 8.12292 16.3119 8.15417C16.4691 8.18543 16.6319 8.16934 16.78 8.10803C16.928 8.04673 17.0545 7.94302 17.1435 7.80981C17.2325 7.67661 17.28 7.51994 17.28 7.35974C17.28 7.14492 17.1946 6.93889 17.0427 6.78699C16.8907 6.63508 16.6847 6.5498 16.4699 6.5498Z" fill="black"/>
</g>
<defs>
<clipPath id="clip0">
<rect width="22.42" height="17.13" fill="white"/>
</clipPath>
</defs>
</svg>
