<svg enable-background="new 0 48.052 826.661 123.386" height="123.386" viewBox="0 48.052 826.66198 123.386" width="826.66199" xmlns="http://www.w3.org/2000/svg"><path d="m61.527 169.348h-20.431v-100.105h-41.096v-19.024h101.793v19.024h-40.266" transform="translate(0 -.000002)"/><path d="m481.169 69.243h-68.157v35.18h63.161v19.053h-63.161v45.872h-20.513v-119.129h88.67" transform="translate(0 -.000002)"/><path d="m664.172 69.242998h-27.905v35.180002h27.905c16.389 0 25.428-7.031002 25.428-18.271002-.001-12.915-9.842-16.909-25.428-16.909m27.919 100.105002-29.58-45.982h-26.244v45.982h-20.527v-119.129002h52.502c27.919 0 42.717 12.982 42.717 35.282 0 20.299002-11.489 30.701002-26.328 34.210002l32.072 49.608h-24.611z"/><path d="m763.488 69.242998h-23.851v81.044002h23.851c25.44 0 40.984-16.43 40.984-40.362-.013-23.531002-15.544-40.682002-40.984-40.682002m0 100.105002h-44.309v-119.129002h44.309c38.577 0 63.174 24.776 63.174 59.359002-.001 33.692-23.781 59.77-63.174 59.77"/><path d="m282.317 169.348-31.946-85.481v85.481h-20.541v-119.129h29.552l28.75 76.523 29.496-76.523h29.539v119.129h-20.514v-85.605l-32.819 85.605" transform="translate(0 -.000002)"/><path d="m159.278 67.298998c-23.892 0-40.252 18.568-40.252 42.385002 0 23.647 16.36 42.444 40.252 42.444 23.767 0 40.142-18.506 40.142-42.32-.001-23.670002-16.376-42.509002-40.142-42.509002m0 104.139002c-36.112 0-62.454-27.311-62.454-61.631 0-34.355002 26.342-61.755002 62.454-61.755002 36.931 0 62.371 27.322 62.371 61.631002 0 34.334-25.441 61.755-62.371 61.755"/><path d="m545.174 67.298998c-23.862 0-40.225 18.568-40.225 42.385002 0 23.647 17.191 42.444 40.225 42.444 23.768 0 40.143-18.506 40.143-42.32-.001-23.670002-16.376-42.509002-40.143-42.509002m0 104.139002c-36.1 0-62.413-27.311-62.413-61.631 0-34.355002 26.328-61.755002 62.413-61.755002 36.944 0 62.33 27.322 62.33 61.631002.013 34.334-25.372 61.755-62.33 61.755"/></svg>