<svg width="18" height="17" viewBox="0 0 18 17" fill="none" xmlns="http://www.w3.org/2000/svg">
<path d="M18 2.36209C17.3375 2.67503 16.6266 2.88726 15.8798 2.98201C16.6424 2.49519 17.2261 1.72303 17.5028 0.805763C16.7875 1.25659 15.9978 1.58394 15.1565 1.7614C14.4828 0.995229 13.5244 0.518005 12.4615 0.518005C10.4223 0.518005 8.76881 2.28058 8.76881 4.45321C8.76881 4.76135 8.80142 5.06231 8.86443 5.3501C5.79601 5.18581 3.07515 3.61869 1.25412 1.2374C0.935796 1.81774 0.754707 2.49396 0.754707 3.21581C0.754707 4.58151 1.40709 5.78653 2.39692 6.49153C1.79177 6.46996 1.22262 6.29251 0.724354 5.99754V6.0467C0.724354 7.95315 1.99762 9.54425 3.68592 9.90638C3.37659 9.99511 3.05042 10.0443 2.71297 10.0443C2.47453 10.0443 2.24394 10.0191 2.01786 9.97112C2.488 11.5359 3.85127 12.6737 5.46648 12.7049C4.20333 13.7601 2.61062 14.3872 0.880707 14.3872C0.582648 14.3872 0.289059 14.368 0 14.3332C1.63433 15.4519 3.57459 16.1042 5.65995 16.1042C12.4525 16.1042 16.1655 10.1066 16.1655 4.90526L16.1531 4.39568C16.8786 3.84409 17.5062 3.15106 18 2.36209Z" fill="white"/>
</svg>
