<svg width="39" height="20" viewBox="0 0 39 20" fill="none" xmlns="http://www.w3.org/2000/svg">
<g clip-path="url(#clip0)">
<path d="M37.6497 5.85007C35.4997 5.85007 34.9497 3.70007 30.1497 3.70007C27.7997 3.70007 25.7497 4.30007 24.4497 5.25007C24.4497 5.25007 23.8997 5.70007 23.3497 5.70007C22.8497 5.70007 22.5497 5.10007 21.8997 5.10007C21.2497 5.10007 20.4497 5.10007 20.4497 5.10007V6.60007C21.1997 6.60007 21.9497 6.70007 22.4497 6.90007C22.7497 7.05007 22.9497 7.35007 22.9497 7.70007C22.9497 8.20007 22.5997 8.10007 22.5997 8.50007C22.6497 12.2501 25.7497 16.3001 29.9997 16.3001C34.6997 16.3001 36.1997 12.2501 36.6497 9.45007C36.7997 8.40007 37.1997 7.80007 37.9497 7.80007C38.4997 7.80007 38.6997 7.70007 38.6997 7.35007C38.6997 6.95007 38.6997 6.65007 38.6997 6.30007C38.6997 5.95007 38.3497 5.85007 37.6497 5.85007ZM30.0997 15.6001C26.8997 15.6001 23.8997 13.2001 23.8997 9.25007C23.8997 5.30007 27.6497 4.50007 30.1997 4.50007C32.7497 4.50007 35.8497 5.40007 35.8497 9.05007C35.8497 12.7001 33.3497 15.6001 30.0997 15.6001ZM37.4997 7.20007C37.3497 7.20007 37.1997 7.10007 37.1497 7.00007C37.0997 7.10007 36.9497 7.20007 36.7997 7.20007C36.5497 7.20007 36.3997 7.05007 36.3997 6.80007C36.3997 6.60007 36.5997 6.40007 36.7997 6.40007C36.9497 6.40007 37.0997 6.50007 37.1497 6.60007C37.1997 6.50007 37.3497 6.40007 37.4997 6.40007C37.7497 6.40007 37.8997 6.55007 37.8997 6.80007C37.8997 7.05007 37.6997 7.20007 37.4997 7.20007Z" fill="black"/>
<path d="M0 6.35007C0 6.70007 0 7.00007 0 7.40007C0 7.80007 0.2 7.85007 0.75 7.85007C1.5 7.85007 1.9 8.45007 2.05 9.50007C2.5 12.2501 3.95 16.3001 8.65 16.3001C12.95 16.3001 16 12.2501 16.05 8.50007C16.05 8.10007 15.7 8.25007 15.7 7.70007C15.7 7.35007 15.9 7.05007 16.2 6.90007C16.7 6.70007 17.45 6.60007 18.2 6.60007V5.10007C18.2 5.10007 17.4 5.10007 16.75 5.10007C16.1 5.10007 15.8 5.70007 15.3 5.70007C14.8 5.70007 14.2 5.25007 14.2 5.25007C12.9 4.30007 10.85 3.70007 8.5 3.70007C3.7 3.70007 3.15 5.85007 1 5.85007C0.35 5.85007 0 5.95007 0 6.35007ZM0.8 6.85007C0.8 6.65007 1 6.45007 1.2 6.45007C1.35 6.45007 1.5 6.55007 1.55 6.65007C1.6 6.55007 1.75 6.45007 1.9 6.45007C2.15 6.45007 2.3 6.60007 2.3 6.85007C2.3 7.05007 2.1 7.25007 1.9 7.25007C1.75 7.25007 1.6 7.15007 1.55 7.05007C1.5 7.15007 1.35 7.25007 1.2 7.25007C0.95 7.20007 0.8 7.05007 0.8 6.85007Z" fill="black"/>
<path d="M19.6001 0H19.1001V19.7H19.6001V0Z" fill="black"/>
<path d="M2.8501 9.05C2.8501 5.4 5.9501 4.5 8.5001 4.5C11.0501 4.5 14.8001 5.35 14.8001 9.25C14.8001 13.2 11.8001 15.6 8.6001 15.6C5.3501 15.6 2.8501 12.7 2.8501 9.05Z" fill="url(#paint0_linear)"/>
</g>
<defs>
<linearGradient id="paint0_linear" x1="8.8134" y1="4.5219" x2="8.8134" y2="15.5352" gradientUnits="userSpaceOnUse">
<stop stop-color="#1D1D1B"/>
<stop offset="1" stop-color="#DADADA"/>
</linearGradient>
<clipPath id="clip0">
<rect width="38.7" height="19.7" fill="white"/>
</clipPath>
</defs>
</svg>
