<svg width="78" height="40" viewBox="0 0 78 40" fill="none" xmlns="http://www.w3.org/2000/svg">
<g clip-path="url(#clip0)">
<path d="M75.2999 11.7C70.9999 11.7 69.8999 7.40002 60.2999 7.40002C55.5999 7.40002 51.4999 8.60002 48.8999 10.5C48.8999 10.5 47.7999 11.4 46.6999 11.4C45.6999 11.4 45.0999 10.2 43.7999 10.2C42.4999 10.2 40.8999 10.2 40.8999 10.2V13.2C42.3999 13.2 43.8999 13.4 44.8999 13.8C45.4999 14.1 45.8999 14.7 45.8999 15.4C45.8999 16.4 45.1999 16.2 45.1999 17C45.2999 24.5 51.4999 32.6 59.9999 32.6C69.3999 32.6 72.3999 24.5 73.2999 18.9C73.5999 16.8 74.3999 15.6 75.8999 15.6C76.9999 15.6 77.3999 15.4 77.3999 14.7C77.3999 13.9 77.3999 13.3 77.3999 12.6C77.3999 11.9 76.6999 11.7 75.2999 11.7ZM60.1999 31.2C53.7999 31.2 47.7999 26.4 47.7999 18.5C47.7999 10.6 55.2999 9.00002 60.3999 9.00002C65.4999 9.00002 71.6999 10.8 71.6999 18.1C71.6999 25.4 66.6999 31.2 60.1999 31.2ZM74.9999 14.4C74.6999 14.4 74.3999 14.2 74.2999 14C74.1999 14.2 73.8999 14.4 73.5999 14.4C73.0999 14.4 72.7999 14.1 72.7999 13.6C72.7999 13.2 73.1999 12.8 73.5999 12.8C73.8999 12.8 74.1999 13 74.2999 13.2C74.3999 13 74.6999 12.8 74.9999 12.8C75.4999 12.8 75.7999 13.1 75.7999 13.6C75.7999 14.1 75.3999 14.4 74.9999 14.4Z" fill="black"/>
<path d="M0 12.7C0 13.4 0 14 0 14.8C0 15.6 0.4 15.7 1.5 15.7C3 15.7 3.8 16.9 4.1 19C5 24.5 7.9 32.6 17.3 32.6C25.9 32.6 32 24.5 32.1 17C32.1 16.2 31.4 16.5 31.4 15.4C31.4 14.7 31.8 14.1 32.4 13.8C33.4 13.4 34.9 13.2 36.4 13.2V10.2C36.4 10.2 34.8 10.2 33.5 10.2C32.2 10.2 31.6 11.4 30.6 11.4C29.6 11.4 28.4 10.5 28.4 10.5C25.8 8.60002 21.7 7.40002 17 7.40002C7.4 7.40002 6.3 11.7 2 11.7C0.7 11.7 0 11.9 0 12.7ZM1.6 13.7C1.6 13.3 2 12.9 2.4 12.9C2.7 12.9 3 13.1 3.1 13.3C3.2 13.1 3.5 12.9 3.8 12.9C4.3 12.9 4.6 13.2 4.6 13.7C4.6 14.1 4.2 14.5 3.8 14.5C3.5 14.5 3.2 14.3 3.1 14.1C3 14.3 2.7 14.5 2.4 14.5C1.9 14.4 1.6 14.1 1.6 13.7Z" fill="black"/>
<path d="M39.2 0H38.2V39.4H39.2V0Z" fill="black"/>
<path d="M5.69995 18.1C5.69995 10.8 11.9 9 17 9C22.1 9 29.6 10.7 29.6 18.5C29.6 26.4 23.6 31.2 17.2 31.2C10.7 31.2 5.69995 25.4 5.69995 18.1Z" fill="url(#paint0_linear)"/>
</g>
<defs>
<linearGradient id="paint0_linear" x1="17.6266" y1="9.0438" x2="17.6266" y2="31.0704" gradientUnits="userSpaceOnUse">
<stop stop-color="#1D1D1B"/>
<stop offset="1" stop-color="#DADADA"/>
</linearGradient>
<clipPath id="clip0">
<rect width="77.4" height="39.4" fill="white"/>
</clipPath>
</defs>
</svg>
