<svg width="90" height="50" viewBox="0 0 90 50" fill="none" xmlns="http://www.w3.org/2000/svg">
<path d="M87.6625 17.026C88.6661 18.6839 89.3653 20.4195 89.7234 22.2123L89.2331 22.3102C89.4095 23.1937 89.5 24.0911 89.5 25C89.5 25.9089 89.4095 26.8063 89.2331 27.6898L89.7234 27.7877C89.3653 29.5805 88.6661 31.3161 87.6625 32.974L87.2348 32.715C86.3369 34.1982 85.185 35.6238 83.8033 36.9748L84.1529 37.3323C82.879 38.5779 81.4181 39.7567 79.7913 40.857L79.5112 40.4429C78.047 41.4332 76.4442 42.3607 74.7183 43.2159L74.9402 43.6639C73.3221 44.4656 71.599 45.2034 69.7839 45.87L69.6115 45.4007C67.9201 46.0219 66.1469 46.5812 64.3026 47.0724L64.4313 47.5556C62.6676 48.0254 60.8403 48.4332 58.9585 48.774L58.8694 48.282C57.078 48.6064 55.2363 48.8697 53.3525 49.0674L53.4047 49.5647C51.5756 49.7567 49.7075 49.8872 47.8074 49.9521L47.7903 49.4524C46.8675 49.484 45.9372 49.5 45 49.5C44.0628 49.5 43.1325 49.484 42.2097 49.4524L42.1926 49.9521C40.2925 49.8872 38.4244 49.7567 36.5953 49.5647L36.6475 49.0674C34.7637 48.8697 32.922 48.6064 31.1306 48.282L31.0415 48.774C29.1597 48.4332 27.3324 48.0254 25.5687 47.5556L25.6974 47.0724C23.8531 46.5812 22.0799 46.0219 20.3885 45.4007L20.2161 45.87C18.401 45.2034 16.6779 44.4656 15.0598 43.6639L15.2817 43.2159C13.5558 42.3607 11.953 41.4332 10.4888 40.4429L10.2087 40.857C8.58195 39.7567 7.12101 38.5779 5.8471 37.3323L6.19666 36.9748C4.81497 35.6238 3.66309 34.1982 2.76524 32.715L2.33751 32.974C1.33391 31.3161 0.634653 29.5805 0.276626 27.7877L0.766944 27.6898C0.590502 26.8063 0.5 25.9089 0.5 25C0.5 24.0911 0.590501 23.1937 0.766943 22.3102L0.276625 22.2123C0.634652 20.4195 1.33391 18.6839 2.33751 17.026L2.76524 17.285C3.66309 15.8018 4.81496 14.3762 6.19665 13.0252L5.8471 12.6677C7.121 11.4221 8.58194 10.2433 10.2087 9.14297L10.4888 9.55713C11.953 8.56675 13.5558 7.63928 15.2817 6.78414L15.0598 6.33611C16.6779 5.53438 18.401 4.79662 20.2161 4.13L20.3885 4.59934C22.0799 3.97813 23.8531 3.41885 25.6974 2.92758L25.5687 2.44442C27.3324 1.97464 29.1597 1.56681 31.0415 1.22603L31.1306 1.71803C32.922 1.3936 34.7637 1.13028 36.6475 0.932556L36.5953 0.435288C38.4244 0.243316 40.2925 0.112835 42.1926 0.0478595L42.2097 0.547567C43.1325 0.516012 44.0628 0.5 45 0.5C45.9372 0.5 46.8675 0.516012 47.7903 0.547567L47.8074 0.0478592C49.7075 0.112835 51.5756 0.243316 53.4047 0.435287L53.3525 0.932556C55.2363 1.13028 57.078 1.3936 58.8694 1.71803L58.9585 1.22603C60.8403 1.56681 62.6676 1.97464 64.4313 2.44442L64.3026 2.92758C66.1469 3.41885 67.9201 3.97813 69.6115 4.59935L69.7839 4.13C71.599 4.79663 73.3221 5.53438 74.9402 6.33611L74.7183 6.78414C76.4442 7.63928 78.047 8.56675 79.5112 9.55713L79.7913 9.14297C81.4181 10.2433 82.879 11.4221 84.1529 12.6677L83.8033 13.0252C85.185 14.3762 86.3369 15.8018 87.2348 17.285L87.6625 17.026Z" stroke="#BCBEC0" stroke-dasharray="6 6"/>
</svg>
