<svg width="110" height="50" viewBox="0 0 110 50" fill="none" xmlns="http://www.w3.org/2000/svg">
<path d="M106.438 16.1309C107.938 17.9271 108.996 19.8224 109.551 21.7891L109.069 21.9248C109.354 22.9334 109.5 23.9595 109.5 25C109.5 26.0405 109.354 27.0666 109.069 28.0752L109.551 28.2109C108.996 30.1776 107.938 32.0729 106.438 33.8691L106.055 33.5486C104.801 35.0498 103.224 36.4881 101.356 37.8444L101.65 38.249C100.004 39.4437 98.1426 40.5706 96.0898 41.6185L95.8625 41.1732C94.042 42.1025 92.0674 42.9703 89.9559 43.768L90.1326 44.2357C88.1821 44.9726 86.1177 45.6493 83.9533 46.2596L83.8176 45.7784C81.8067 46.3454 79.708 46.855 77.5326 47.3021L77.6332 47.7918C75.5597 48.2179 73.4177 48.5873 71.2168 48.8955L71.1474 48.4004C69.054 48.6936 66.9067 48.9313 64.7138 49.1097L64.7543 49.608C62.6278 49.781 60.4589 49.8985 58.2552 49.9569L58.2419 49.4571C57.1693 49.4856 56.0884 49.5 55 49.5C53.9116 49.5 52.8307 49.4856 51.7581 49.4571L51.7448 49.9569C49.5411 49.8985 47.3722 49.781 45.2457 49.608L45.2863 49.1097C43.0933 48.9313 40.946 48.6936 38.8526 48.4004L38.7832 48.8955C36.5823 48.5873 34.4403 48.2179 32.3668 47.7918L32.4674 47.3021C30.292 46.855 28.1933 46.3454 26.1824 45.7784L26.0467 46.2596C23.8823 45.6493 21.8179 44.9726 19.8674 44.2357L20.0441 43.768C17.9326 42.9703 15.958 42.1025 14.1375 41.1732L13.9102 41.6185C11.8574 40.5706 9.99577 39.4437 8.35007 38.249L8.64381 37.8444C6.77559 36.4881 5.19875 35.0498 3.94533 33.5486L3.56153 33.8691C2.0617 32.0729 1.00419 30.1776 0.449427 28.2109L0.930649 28.0752C0.646152 27.0666 0.5 26.0405 0.5 25C0.5 23.9595 0.646152 22.9334 0.93065 21.9248L0.449428 21.7891C1.00419 19.8224 2.06171 17.9271 3.56153 16.1309L3.94533 16.4514C5.19875 14.9502 6.77559 13.5119 8.64381 12.1556L8.35007 11.751C9.99577 10.5563 11.8574 9.42937 13.9102 8.38146L14.1375 8.82679C15.958 7.89748 17.9326 7.02972 20.0441 6.23203L19.8674 5.76429C21.8179 5.02744 23.8823 4.35073 26.0467 3.7404L26.1824 4.22163C28.1933 3.6546 30.292 3.14496 32.4674 2.69792L32.3668 2.20816C34.4403 1.78206 36.5823 1.41271 38.7832 1.10446L38.8526 1.59962C40.946 1.30643 43.0933 1.06872 45.2862 0.890321L45.2457 0.391967C47.3722 0.218969 49.5411 0.101527 51.7448 0.0430613L51.7581 0.542885C52.8307 0.514428 53.9116 0.5 55 0.5C56.0884 0.5 57.1693 0.514428 58.2419 0.542885L58.2552 0.043061C60.4589 0.101527 62.6278 0.218969 64.7543 0.391966L64.7137 0.89032C66.9067 1.06872 69.054 1.30643 71.1474 1.59962L71.2168 1.10446C73.4177 1.41271 75.5597 1.78206 77.6332 2.20816L77.5326 2.69792C79.708 3.14496 81.8067 3.6546 83.8176 4.22163L83.9533 3.7404C86.1177 4.35073 88.1821 5.02744 90.1326 5.76429L89.9558 6.23203C92.0674 7.02972 94.042 7.89748 95.8625 8.82679L96.0898 8.38146C98.1426 9.42937 100.004 10.5563 101.65 11.751L101.356 12.1556C103.224 13.5119 104.801 14.9502 106.055 16.4514L106.438 16.1309Z" stroke="#BCBEC0" stroke-dasharray="6 6"/>
</svg>
