<svg width="31" height="31" viewBox="0 0 31 31" fill="none" xmlns="http://www.w3.org/2000/svg">
<g clip-path="url(#clip0)">
<path d="M4.5 6.8C5.9 6.4 7 5.1 7 3.5C7 1.6 5.4 0 3.5 0C1.6 0 0 1.6 0 3.5C0 5.1 1.1 6.4 2.5 6.8V28.7H1V30.7H6V28.7H4.5V6.8ZM2 3.5C2 2.7 2.7 2 3.5 2C4.3 2 5 2.7 5 3.5C5 4.3 4.3 5 3.5 5C2.7 5 2 4.3 2 3.5Z" fill="#BCBEC0"/>
<path d="M28.3 6.8C29.7 6.4 30.8 5 30.8 3.5C30.8 1.6 29.2 0 27.3 0C25.4 0 23.8 1.6 23.8 3.5C23.8 5.1 24.9 6.4 26.3 6.8V28.7H24.8V30.7H29.8V28.7H28.3V6.8ZM25.8 3.5C25.8 2.7 26.5 2 27.3 2C28.1 2 28.8 2.7 28.8 3.5C28.8 4.3 28.2 5 27.3 5C26.4 5 25.8 4.3 25.8 3.5Z" fill="#BCBEC0"/>
<path d="M7.79999 7.10001L6.79999 8.80001C9.39999 10.4 12.4 11.2 15.4 11.2C18.4 11.2 21.4 10.4 24 8.80001L23 7.10001C18.4 9.90001 12.4 9.90001 7.79999 7.10001Z" fill="#BCBEC0"/>
</g>
<defs>
<clipPath id="clip0">
<rect width="30.8" height="30.8" fill="white"/>
</clipPath>
</defs>
</svg>
