<svg width="251" height="80" viewBox="0 0 251 80" fill="none" xmlns="http://www.w3.org/2000/svg">
<g clip-path="url(#clip0)">
<path d="M245.2 6.8C237.7 4.2 221.3 0 192.3 0C154.6 0 142.5 9 125.1 9C107.7 9 95.7 0 58 0C29 0 12.6 4.2 5.1 6.8C2 7.9 0 10.8 0 14.1V25C0 27.2 0.9 29.2 2.5 30.7C4.5 32.5 7.2 35.5 8.7 39.2C18.3 62.8 16.5 80 61 80C105.5 80 109.2 57.8 112.5 34.2C114.3 21.5 120.3 23.1 125.2 23.1C130.1 23.1 136.1 21.5 137.9 34.2C141.2 57.9 144.9 80 189.4 80C233.9 80 232.1 62.8 241.7 39.2C243.2 35.5 245.9 32.5 247.9 30.7C249.5 29.2 250.4 27.2 250.4 25V14.1C250.3 10.8 248.3 7.9 245.2 6.8ZM8 24.2C7.1 24.2 6.3 23.4 6.3 22.5C6.3 21.6 7.1 20.8 8 20.8C8.9 20.8 9.7 21.6 9.7 22.5C9.7 23.5 9 24.2 8 24.2ZM8 16.8C7.1 16.8 6.3 16 6.3 15.1C6.3 14.2 7.1 13.4 8 13.4C8.9 13.4 9.7 14.2 9.7 15.1C9.7 16.1 9 16.8 8 16.8ZM60.3 74.2C26 74.2 18.3 60.7 18.3 34.2C18.3 23.7 18.8 7.7 59 7.7C99.2 7.7 105.5 18.9 105.5 35C105.5 51.2 101 74.2 60.3 74.2ZM190 74.2C149.3 74.2 144.8 51.2 144.8 35C144.8 18.8 151.1 7.7 191.3 7.7C231.5 7.7 232 23.7 232 34.2C232 60.7 224.3 74.2 190 74.2ZM242.3 24.2C241.4 24.2 240.6 23.4 240.6 22.5C240.6 21.6 241.4 20.8 242.3 20.8C243.2 20.8 244 21.6 244 22.5C244 23.5 243.2 24.2 242.3 24.2ZM242.3 16.8C241.4 16.8 240.6 16 240.6 15.1C240.6 14.2 241.4 13.4 242.3 13.4C243.2 13.4 244 14.2 244 15.1C244 16.1 243.2 16.8 242.3 16.8Z" fill="black"/>
</g>
<defs>
<clipPath id="clip0">
<rect width="250.3" height="80" fill="white"/>
</clipPath>
</defs>
</svg>
