<svg width="22" height="21" viewBox="0 0 22 21" fill="none" xmlns="http://www.w3.org/2000/svg">
<path d="M14.1429 0V2.1H18.26L15.5571 4.68C13.8914 3.45 11.8486 2.7 9.58571 2.7C4.30571 2.7 0 6.81 0 11.85C0 16.89 4.30571 21 9.58571 21C14.8657 21 19.1714 16.89 19.1714 11.85C19.1714 9.69 18.3857 7.74 17.0971 6.18L19.8 3.6V7.5H22V0H14.1429ZM9.58571 18.9C5.5 18.9 2.2 15.75 2.2 11.85C2.2 7.95 5.5 4.8 9.58571 4.8C13.6714 4.8 16.9714 7.95 16.9714 11.85C16.9714 15.75 13.6714 18.9 9.58571 18.9Z" fill="#1D1D1B"/>
</svg>
