<svg width="14" height="10" viewBox="0 0 14 10" fill="none" xmlns="http://www.w3.org/2000/svg">
<path d="M13.7581 1.6908C13.5867 0.946256 12.9777 0.39695 12.2446 0.315009C10.5085 0.121213 8.75132 0.120202 7.00224 0.121213C5.25287 0.120202 3.49541 0.121213 1.75934 0.315009C1.02664 0.39695 0.418085 0.946256 0.246689 1.6908C0.00274581 2.75112 0 3.90855 0 5.00022C0 6.0919 0 7.24918 0.243943 8.30935C0.41505 9.05376 1.02375 9.60306 1.75688 9.68515C3.49281 9.87909 5.25013 9.8801 6.99949 9.87909C8.74915 9.8801 10.506 9.87909 12.2418 9.68515C12.9745 9.60321 13.5836 9.0539 13.755 8.30935C13.9991 7.24904 14 6.09175 14 5.00022C14 3.90855 14.002 2.75112 13.7581 1.6908ZM5.19333 7.17317C5.19333 5.62453 5.19333 4.09208 5.19333 2.5433C6.67708 3.31748 8.151 4.08645 9.64414 4.86539C8.15562 5.63739 6.68098 6.40174 5.19333 7.17317Z" fill="black"/>
</svg>
